<svg width="230" height="182" viewBox="0 0 230 182" fill="none" xmlns="http://www.w3.org/2000/svg">
<path d="M84.5933 82.0943C100.684 82.0943 113.729 69.0485 113.729 52.9558C113.729 36.863 100.684 23.8173 84.5933 23.8173C68.5022 23.8173 55.4578 36.863 55.4578 52.9558C55.4578 69.0485 68.5022 82.0943 84.5933 82.0943Z" fill="#DBE8EC"/>
<path d="M65.5665 43.453H76.9968" stroke="#B9D4DB" stroke-width="3" stroke-miterlimit="10" stroke-linecap="round"/>
<path d="M65.5665 46.7479H76.9968" stroke="#B9D4DB" stroke-width="3" stroke-miterlimit="10" stroke-linecap="round"/>
<path d="M65.5665 50.0427H76.9968" stroke="#B9D4DB" stroke-width="3" stroke-miterlimit="10" stroke-linecap="round"/>
<path d="M215.458 95.4113V88.9738C215.458 87.7462 214.971 86.5689 214.103 85.7009C213.235 84.8329 212.058 84.3452 210.83 84.3452H194.495C193.887 84.3452 193.285 84.2255 192.724 83.9929C192.162 83.7603 191.652 83.4193 191.222 82.9895C190.792 82.5597 190.451 82.0495 190.219 81.4879C189.986 80.9263 189.867 80.3244 189.867 79.7166V73.2791C189.867 72.6712 189.986 72.0693 190.219 71.5078C190.451 70.9462 190.792 70.436 191.222 70.0062C191.652 69.5764 192.162 69.2354 192.724 69.0028C193.285 68.7702 193.887 68.6505 194.495 68.6505H195.01C196.238 68.6505 197.415 68.1628 198.283 67.2948C199.151 66.4268 199.639 65.2495 199.639 64.0219V57.5843C199.639 56.3568 199.151 55.1795 198.283 54.3114C197.415 53.4434 196.238 52.9557 195.01 52.9557H45.7202C44.4927 52.9557 43.3156 53.4434 42.4476 54.3114C41.5797 55.1795 41.0921 56.3568 41.0921 57.5843V64.0219C41.0921 65.2495 41.5797 66.4268 42.4476 67.2948C43.3156 68.1628 44.4927 68.6505 45.7202 68.6505C46.9476 68.6505 48.1248 69.1381 48.9928 70.0062C49.8607 70.8742 50.3483 72.0515 50.3483 73.2791V79.7166C50.3483 80.9442 49.8607 82.1215 48.9928 82.9895C48.1248 83.8575 46.9476 84.3452 45.7202 84.3452H27.8229C26.5954 84.3452 25.4182 84.8329 24.5503 85.7009C23.6824 86.5689 23.1948 87.7462 23.1948 88.9738V95.4113C23.1948 96.6389 23.6824 97.8162 24.5503 98.6842C25.4182 99.5523 26.5954 100.04 27.8229 100.04H34.8455C36.073 100.04 37.2501 100.528 38.1181 101.396C38.986 102.264 39.4736 103.441 39.4736 104.669V111.106C39.4736 112.334 38.986 113.511 38.1181 114.379C37.2501 115.247 36.073 115.735 34.8455 115.735H34.8285C33.6011 115.735 32.4239 116.222 31.556 117.09C30.688 117.958 30.2004 119.136 30.2004 120.363V126.801C30.2004 128.028 30.688 129.206 31.556 130.074C32.4239 130.942 33.6011 131.429 34.8285 131.429H35.8446C36.4523 131.429 37.0542 131.549 37.6157 131.782C38.1772 132.014 38.6874 132.355 39.1171 132.785C39.5469 133.215 39.8878 133.725 40.1204 134.287C40.353 134.848 40.4727 135.45 40.4727 136.058V142.496C40.4727 143.103 40.353 143.705 40.1204 144.267C39.8878 144.828 39.5469 145.339 39.1171 145.768C38.6874 146.198 38.1772 146.539 37.6157 146.772C37.0542 147.004 36.4523 147.124 35.8446 147.124H19.1697C17.9423 147.124 16.7651 147.612 15.8972 148.48C15.0292 149.348 14.5416 150.525 14.5416 151.753V158.19C14.5416 158.798 14.6613 159.4 14.8939 159.962C15.1265 160.523 15.4674 161.033 15.8972 161.463C16.3269 161.893 16.8371 162.234 17.3986 162.467C17.9601 162.699 18.562 162.819 19.1697 162.819H197.495C198.723 162.819 199.9 162.331 200.768 161.463C201.636 160.595 202.123 159.418 202.123 158.19V151.753C202.123 150.525 201.636 149.348 200.768 148.48C199.9 147.612 198.723 147.124 197.495 147.124H193.482C192.875 147.124 192.273 147.004 191.711 146.772C191.15 146.539 190.639 146.198 190.21 145.768C189.78 145.339 189.439 144.828 189.206 144.267C188.974 143.705 188.854 143.103 188.854 142.496V136.058C188.854 135.45 188.974 134.848 189.206 134.287C189.439 133.725 189.78 133.215 190.21 132.785C190.639 132.355 191.15 132.014 191.711 131.782C192.273 131.549 192.875 131.429 193.482 131.429H202.944C204.172 131.429 205.349 130.942 206.217 130.074C207.085 129.206 207.572 128.028 207.572 126.801V120.363C207.572 119.755 207.452 119.154 207.22 118.592C206.987 118.03 206.646 117.52 206.217 117.09C205.787 116.661 205.277 116.32 204.715 116.087C204.154 115.854 203.552 115.735 202.944 115.735H200.074C198.846 115.735 197.669 115.247 196.801 114.379C195.933 113.511 195.446 112.334 195.446 111.106V104.669C195.446 103.441 195.933 102.264 196.801 101.396C197.669 100.528 198.846 100.04 200.074 100.04H210.83C212.058 100.04 213.235 99.5523 214.103 98.6842C214.971 97.8162 215.458 96.6389 215.458 95.4113Z" fill="#DBE8EC"/>
<path d="M165.797 18.3691H76.9559C75.1971 18.3691 73.7713 19.7951 73.7713 21.5541V154.812C73.7713 156.571 75.1971 157.997 76.9559 157.997H165.797C167.556 157.997 168.982 156.571 168.982 154.812V21.5541C168.982 19.7951 167.556 18.3691 165.797 18.3691Z" fill="#3086A3"/>
<path d="M160.047 25.201H82.7064C80.9476 25.201 79.5218 26.627 79.5218 28.386V147.98C79.5218 149.739 80.9476 151.165 82.7064 151.165H160.047C161.805 151.165 163.231 149.739 163.231 147.98V28.386C163.231 26.627 161.805 25.201 160.047 25.201Z" fill="#DBE8EC"/>
<path d="M121.377 75.2221C130.042 75.2221 137.067 68.1965 137.067 59.53C137.067 50.8634 130.042 43.8378 121.377 43.8378C112.711 43.8378 105.686 50.8634 105.686 59.53C105.686 68.1965 112.711 75.2221 121.377 75.2221Z" fill="#F9AE2B"/>
<path d="M118.74 58.1613V54.8983C118.74 54.5711 118.805 54.2472 118.931 53.9452C119.057 53.6432 119.241 53.3692 119.474 53.1389C119.706 52.9086 119.982 52.7267 120.285 52.6036C120.588 52.4806 120.913 52.4188 121.24 52.4218H121.512C121.839 52.4186 122.164 52.4803 122.467 52.6034C122.77 52.7264 123.046 52.9083 123.278 53.1386C123.511 53.3689 123.695 53.643 123.821 53.945C123.947 54.2471 124.012 54.5711 124.012 54.8983V55.9975C124.012 56.0712 124.042 56.1418 124.094 56.194C124.145 56.2463 124.216 56.2761 124.29 56.2771L125.606 56.283C125.643 56.2832 125.679 56.2761 125.713 56.2621C125.747 56.2481 125.778 56.2275 125.804 56.2016C125.831 56.1756 125.851 56.1447 125.865 56.1107C125.88 56.0768 125.887 56.0403 125.887 56.0035V55.0802C125.887 54.5138 125.776 53.9529 125.559 53.4297C125.342 52.9064 125.024 52.4311 124.623 52.0308C124.223 51.6305 123.747 51.3132 123.224 51.0969C122.7 50.8807 122.139 50.7698 121.573 50.7706H121.179C120.612 50.7701 120.052 50.8812 119.528 51.0975C119.005 51.3139 118.53 51.6313 118.129 52.0315C117.729 52.4317 117.411 52.907 117.194 53.4301C116.978 53.9532 116.866 54.514 116.866 55.0802V58.2485L118.74 58.1613Z" fill="#409CB5"/>
<path d="M126.51 67.5439C126.839 67.5431 127.155 67.4118 127.388 67.1788C127.621 66.9457 127.752 66.6299 127.753 66.3004V59.2284C127.752 58.8989 127.621 58.583 127.388 58.35C127.155 58.117 126.839 57.9857 126.51 57.9849H116.243C115.914 57.9857 115.598 58.117 115.365 58.35C115.132 58.5831 115.001 58.8989 115 59.2284V66.3004C115.001 66.6299 115.132 66.9457 115.365 67.1788C115.598 67.4118 115.914 67.5431 116.243 67.5439L126.51 67.5439Z" fill="#3086A3"/>
<path d="M121.377 60.4108C121.024 60.412 120.685 60.5528 120.436 60.8024C120.186 61.0521 120.046 61.3903 120.044 61.7433C120.051 61.9438 120.103 62.1401 120.196 62.3173C120.29 62.4945 120.424 62.6478 120.586 62.7654V64.329C120.586 64.5387 120.669 64.7398 120.818 64.888C120.966 65.0363 121.167 65.1196 121.377 65.1196C121.586 65.1196 121.787 65.0363 121.936 64.888C122.084 64.7398 122.167 64.5387 122.167 64.329V62.7654C122.329 62.6475 122.463 62.4942 122.556 62.3171C122.65 62.1399 122.702 61.9437 122.709 61.7433C122.708 61.3903 122.567 61.0521 122.317 60.8024C122.068 60.5528 121.73 60.412 121.377 60.4108Z" fill="#409CB5"/>
<path d="M79.5219 133.598V148.496C79.5218 148.847 79.5909 149.194 79.725 149.518C79.8591 149.841 80.0556 150.136 80.3034 150.384C80.5512 150.631 80.8454 150.828 81.1691 150.962C81.4929 151.096 81.8399 151.165 82.1903 151.165H160.563C160.913 151.165 161.26 151.096 161.584 150.962C161.908 150.828 162.202 150.631 162.45 150.384C162.698 150.136 162.894 149.841 163.028 149.518C163.162 149.194 163.231 148.847 163.231 148.496V133.598H79.5219Z" fill="#409CB5"/>
<path d="M163.231 27.8698C163.231 27.5193 163.162 27.1723 163.028 26.8485C162.894 26.5247 162.698 26.2305 162.45 25.9827C162.202 25.7349 161.908 25.5383 161.584 25.4042C161.26 25.2701 160.913 25.201 160.563 25.201H82.1903C81.8399 25.201 81.4929 25.2701 81.1691 25.4042C80.8454 25.5383 80.5512 25.7349 80.3034 25.9827C80.0556 26.2305 79.8591 26.5247 79.725 26.8485C79.5909 27.1723 79.5218 27.5193 79.5219 27.8698V33.2072H163.231V27.8698Z" fill="#409CB5"/>
<path d="M121.377 29.6845C123.852 29.6845 125.86 27.6772 125.86 25.2011C125.86 22.7249 123.852 20.7176 121.377 20.7176C118.901 20.7176 116.894 22.7249 116.894 25.2011C116.894 27.6772 118.901 29.6845 121.377 29.6845Z" fill="#F9AE2B"/>
<path d="M121.377 146.865C123.852 146.865 125.86 144.858 125.86 142.382C125.86 139.906 123.852 137.898 121.377 137.898C118.901 137.898 116.894 139.906 116.894 142.382C116.894 144.858 118.901 146.865 121.377 146.865Z" fill="#F9AE2B"/>
<path d="M113.27 80.7107H89.5627C88.9764 80.7107 88.5012 81.186 88.5012 81.7723V88.6662C88.5012 89.2526 88.9764 89.7279 89.5627 89.7279H113.27C113.857 89.7279 114.332 89.2526 114.332 88.6662V81.7723C114.332 81.186 113.857 80.7107 113.27 80.7107Z" fill="#F9AE2B"/>
<path d="M153.404 80.7107H124.146C123.56 80.7107 123.084 81.186 123.084 81.7723V121.089C123.084 121.675 123.56 122.15 124.146 122.15H153.404C153.99 122.15 154.465 121.675 154.465 121.089V81.7723C154.465 81.186 153.99 80.7107 153.404 80.7107Z" fill="#EE781D"/>
<path d="M113.27 96.9219H89.5627C88.9764 96.9219 88.5012 97.3972 88.5012 97.9835V104.877C88.5012 105.464 88.9764 105.939 89.5627 105.939H113.27C113.857 105.939 114.332 105.464 114.332 104.877V97.9835C114.332 97.3972 113.857 96.9219 113.27 96.9219Z" fill="#F9AE2B"/>
<path d="M113.27 113.133H89.5627C88.9764 113.133 88.5012 113.608 88.5012 114.195V121.089C88.5012 121.675 88.9764 122.15 89.5627 122.15H113.27C113.857 122.15 114.332 121.675 114.332 121.089V114.195C114.332 113.608 113.857 113.133 113.27 113.133Z" fill="#F9AE2B"/>
<path d="M138.775 110.257H129.732C129.558 110.257 129.386 110.211 129.235 110.124C129.084 110.036 128.958 109.911 128.871 109.76C128.784 109.608 128.738 109.437 128.738 109.262C128.738 109.088 128.784 108.916 128.871 108.765L133.392 100.933L137.914 93.1014C138.001 92.9502 138.126 92.8246 138.278 92.7374C138.429 92.6501 138.6 92.6041 138.775 92.6041C138.949 92.6041 139.121 92.6501 139.272 92.7374C139.423 92.8246 139.549 92.9502 139.636 93.1014L144.157 100.933L148.679 108.765C148.766 108.916 148.812 109.088 148.812 109.262C148.812 109.437 148.766 109.608 148.679 109.76C148.591 109.911 148.466 110.036 148.315 110.124C148.163 110.211 147.992 110.257 147.817 110.257H138.775Z" fill="#F9AE2B"/>
<path d="M138.775 96.7438H138.775C138.5 96.7438 138.277 96.9666 138.277 97.2413V104.658C138.277 104.933 138.5 105.156 138.775 105.156H138.775C139.05 105.156 139.272 104.933 139.272 104.658V97.2413C139.272 96.9666 139.05 96.7438 138.775 96.7438Z" fill="#409CB5"/>
<path d="M139.959 107.48C140.024 106.826 139.546 106.243 138.892 106.178C138.238 106.114 137.655 106.591 137.59 107.246C137.526 107.9 138.004 108.483 138.658 108.547C139.312 108.612 139.895 108.134 139.959 107.48Z" fill="#409CB5"/>
<path d="M61.5878 134.048V125.72C61.5879 124.885 61.7534 124.058 62.0748 123.287C62.3963 122.516 62.8672 121.817 63.4604 121.229C64.0537 120.641 64.7575 120.177 65.5312 119.863C66.3049 119.549 67.1332 119.391 67.9682 119.399H68.6627C69.4978 119.39 70.3262 119.548 71.1001 119.862C71.8739 120.176 72.5779 120.64 73.1712 121.228C73.7645 121.816 74.2354 122.516 74.5567 123.287C74.878 124.058 75.0434 124.885 75.0431 125.72V128.525C75.0446 128.714 75.1197 128.894 75.2524 129.027C75.385 129.16 75.5647 129.237 75.7528 129.239L79.1128 129.254C79.2068 129.255 79.2999 129.236 79.3868 129.201C79.4738 129.165 79.5528 129.113 79.6194 129.046C79.6861 128.98 79.739 128.901 79.7751 128.814C79.8113 128.728 79.8299 128.635 79.8301 128.541V126.184C79.8305 124.738 79.5458 123.307 78.9924 121.971C78.439 120.636 77.6277 119.422 76.605 118.401C75.5823 117.379 74.3681 116.569 73.0321 116.017C71.696 115.465 70.2642 115.182 68.8187 115.184H67.8122C66.367 115.183 64.9358 115.466 63.6003 116.018C62.2647 116.571 61.0511 117.381 60.0289 118.402C59.0066 119.424 58.1956 120.637 57.6424 121.972C57.0891 123.307 56.8045 124.739 56.8046 126.184V134.271L61.5878 134.048Z" fill="#EE781D"/>
<path d="M81.4197 157.997C82.2607 157.995 83.0668 157.66 83.6615 157.065C84.2562 156.47 84.5912 155.664 84.5933 154.823V136.772C84.5912 135.931 84.2562 135.125 83.6615 134.53C83.0668 133.935 82.2607 133.6 81.4197 133.598H55.215C54.374 133.6 53.568 133.935 52.9732 134.53C52.3785 135.125 52.0435 135.931 52.0414 136.772V154.823C52.0435 155.664 52.3785 156.47 52.9732 157.065C53.568 157.66 54.374 157.995 55.215 157.997H81.4197Z" fill="#F9AE2B"/>
<path d="M68.3174 139.79C67.4164 139.793 66.5533 140.152 65.9163 140.79C65.2793 141.427 64.9202 142.29 64.9174 143.191C64.9329 143.703 65.0656 144.204 65.3053 144.656C65.5449 145.109 65.8851 145.5 66.2996 145.8V149.791C66.3003 150.326 66.5132 150.839 66.8916 151.216C67.2699 151.594 67.7827 151.807 68.3174 151.807C68.852 151.807 69.3649 151.594 69.7432 151.216C70.1215 150.839 70.3344 150.326 70.3351 149.791V145.8C70.749 145.499 71.0887 145.108 71.3282 144.656C71.5678 144.204 71.7009 143.703 71.7173 143.191C71.7145 142.29 71.3554 141.427 70.7184 140.79C70.0815 140.152 69.2183 139.793 68.3174 139.79Z" fill="#EE781D"/>
<path d="M21.9565 151.814H33.3867" stroke="#B9D4DB" stroke-width="3" stroke-miterlimit="10" stroke-linecap="round"/>
<path d="M21.9565 155.109H33.3867" stroke="#B9D4DB" stroke-width="3" stroke-miterlimit="10" stroke-linecap="round"/>
<path d="M21.9565 158.404H33.3867" stroke="#B9D4DB" stroke-width="3" stroke-miterlimit="10" stroke-linecap="round"/>
<path d="M174.387 100.515H185.817" stroke="#B9D4DB" stroke-width="3" stroke-miterlimit="10" stroke-linecap="round"/>
<path d="M174.387 103.81H185.817" stroke="#B9D4DB" stroke-width="3" stroke-miterlimit="10" stroke-linecap="round"/>
<path d="M174.387 107.105H185.817" stroke="#B9D4DB" stroke-width="3" stroke-miterlimit="10" stroke-linecap="round"/>
<path d="M48.2571 113.365C51.4675 113.365 54.0701 110.762 54.0701 107.551C54.0701 104.341 51.4675 101.738 48.2571 101.738C45.0467 101.738 42.4442 104.341 42.4442 107.551C42.4442 110.762 45.0467 113.365 48.2571 113.365Z" fill="#B9D4DB"/>
<path d="M48.493 98.7262C50.1653 98.7262 51.5209 97.3705 51.5209 95.6981C51.5209 94.0256 50.1653 92.6699 48.493 92.6699C46.8208 92.6699 45.4651 94.0256 45.4651 95.6981C45.4651 97.3705 46.8208 98.7262 48.493 98.7262Z" fill="#B9D4DB"/>
<path d="M68.6604 100.088C70.1078 100.088 71.2811 98.9148 71.2811 97.4673C71.2811 96.0199 70.1078 94.8464 68.6604 94.8464C67.2131 94.8464 66.0398 96.0199 66.0398 97.4673C66.0398 98.9148 67.2131 100.088 68.6604 100.088Z" fill="#B9D4DB"/>
<path d="M59.1264 96.6673C60.091 96.6673 60.873 95.8852 60.873 94.9205C60.873 93.9558 60.091 93.1738 59.1264 93.1738C58.1618 93.1738 57.3799 93.9558 57.3799 94.9205C57.3799 95.8852 58.1618 96.6673 59.1264 96.6673Z" fill="#B9D4DB"/>
<path d="M61.1561 108.642C63.4685 108.642 65.343 106.768 65.343 104.455C65.343 102.142 63.4685 100.268 61.1561 100.268C58.8437 100.268 56.9692 102.142 56.9692 104.455C56.9692 106.768 58.8437 108.642 61.1561 108.642Z" fill="#B9D4DB"/>
<path d="M188.219 156.522C191.429 156.522 194.032 153.92 194.032 150.709C194.032 147.498 191.429 144.895 188.219 144.895C185.008 144.895 182.406 147.498 182.406 150.709C182.406 153.92 185.008 156.522 188.219 156.522Z" fill="#B9D4DB"/>
<path d="M175.915 156.602C177.587 156.602 178.943 155.246 178.943 153.574C178.943 151.901 177.587 150.546 175.915 150.546C174.243 150.546 172.887 151.901 172.887 153.574C172.887 155.246 174.243 156.602 175.915 156.602Z" fill="#B9D4DB"/>
<path d="M175.915 145.503C178.227 145.503 180.102 143.628 180.102 141.316C180.102 139.003 178.227 137.128 175.915 137.128C173.603 137.128 171.728 139.003 171.728 141.316C171.728 143.628 173.603 145.503 175.915 145.503Z" fill="#B9D4DB"/>
<path d="M188.693 53.4201C191.904 53.4201 194.506 50.8173 194.506 47.6065C194.506 44.3958 191.904 41.793 188.693 41.793C185.483 41.793 182.88 44.3958 182.88 47.6065C182.88 50.8173 185.483 53.4201 188.693 53.4201Z" fill="#B9D4DB"/>
<path d="M177.162 56.0411C178.609 56.0411 179.783 54.8676 179.783 53.4202C179.783 51.9727 178.609 50.7993 177.162 50.7993C175.715 50.7993 174.542 51.9727 174.542 53.4202C174.542 54.8676 175.715 56.0411 177.162 56.0411Z" fill="#B9D4DB"/>
<path d="M173.95 47.6065C176.262 47.6065 178.137 45.7317 178.137 43.4191C178.137 41.1065 176.262 39.2318 173.95 39.2318C171.637 39.2318 169.763 41.1065 169.763 43.4191C169.763 45.7317 171.637 47.6065 173.95 47.6065Z" fill="#B9D4DB"/>
</svg>
