<svg width="20" height="24" viewBox="0 0 20 24" fill="none" xmlns="http://www.w3.org/2000/svg">
<g clip-path="url(#clip0_282_4516)">
<path d="M10.8143 2.08856C12.394 0.0101601 14.5902 0 14.5902 0C14.5902 0 14.9168 1.95408 13.3475 3.8364C11.6718 5.8464 9.76722 5.51744 9.76722 5.51744C9.76722 5.51744 9.40956 3.93672 10.8143 2.08856ZM9.96814 6.88632C10.7808 6.88632 12.2891 5.7712 14.2523 5.7712C17.6317 5.7712 18.961 8.1716 18.961 8.1716C18.961 8.1716 16.3609 9.49864 16.3609 12.7187C16.3609 16.3512 19.5999 17.603 19.5999 17.603C19.5999 17.603 17.3357 23.9648 14.2774 23.9648C12.8727 23.9648 11.7807 23.0198 10.3006 23.0198C8.79239 23.0198 7.29536 24 6.32077 24C3.52819 24 0 17.9653 0 13.1143C0 8.34168 2.98636 5.838 5.78744 5.838C7.60839 5.838 9.02143 6.886 9.96814 6.886V6.88632Z" fill="#999999"/>
</g>
<defs>
<clipPath id="clip0_282_4516">
<rect width="19.6" height="24" fill="white"/>
</clipPath>
</defs>
</svg>
