<svg width="25" height="24" viewBox="0 0 25 24" fill="none" xmlns="http://www.w3.org/2000/svg">
<g clip-path="url(#clip0_282_4518)">
<path d="M5.91888 14.5035L5.08348 17.6222L2.03008 17.6868C1.11757 15.9943 0.599976 14.0578 0.599976 12C0.599976 10.0101 1.08391 8.13362 1.94173 6.48132H1.94238L4.66076 6.9797L5.85157 9.68176C5.60233 10.4084 5.46649 11.1884 5.46649 12C5.46659 12.8809 5.62615 13.7249 5.91888 14.5035Z" fill="#FBBB00"/>
<path d="M24.3903 9.75824C24.5281 10.4841 24.6 11.2338 24.6 12C24.6 12.8591 24.5096 13.6971 24.3376 14.5055C23.7534 17.2563 22.227 19.6582 20.1125 21.358L20.1119 21.3574L16.6879 21.1827L16.2033 18.1576C17.6064 17.3347 18.7029 16.047 19.2805 14.5055H12.8638V9.75824H24.3903Z" fill="#518EF8"/>
<path d="M20.1118 21.3574L20.1125 21.358C18.056 23.011 15.4437 24 12.6 24C8.03009 24 4.05692 21.4457 2.03009 17.6868L5.91889 14.5035C6.93228 17.2081 9.54129 19.1334 12.6 19.1334C13.9147 19.1334 15.1464 18.778 16.2033 18.1576L20.1118 21.3574Z" fill="#28B446"/>
<path d="M20.2595 2.76262L16.372 5.94525C15.2782 5.26153 13.9852 4.86656 12.6 4.86656C9.47204 4.86656 6.81423 6.88017 5.8516 9.68175L1.94237 6.48131H1.94171C3.93887 2.63077 7.96215 0 12.6 0C15.5116 0 18.1813 1.03716 20.2595 2.76262Z" fill="#F14336"/>
</g>
<defs>
<clipPath id="clip0_282_4518">
<rect width="24" height="24" fill="white" transform="translate(0.599976)"/>
</clipPath>
</defs>
</svg>
