<svg width="55" height="55" viewBox="0 0 55 55" fill="none" xmlns="http://www.w3.org/2000/svg">
<g clip-path="url(#clip0_282_4575)">
<path fill-rule="evenodd" clip-rule="evenodd" d="M10.2626 33.6203C9.91186 33.0257 10.1095 32.2593 10.7041 31.9085L39.4142 14.9721C40.0088 14.6213 40.7752 14.819 41.126 15.4136C41.4767 16.0082 41.279 16.7746 40.6844 17.1254L11.9744 34.0618C11.3798 34.4125 10.6134 34.2149 10.2626 33.6203Z" fill="white"/>
<path d="M13.8443 30.0561L13.0122 27.2472C11.9472 23.6519 11.4147 21.8542 12.0448 20.253C12.6749 18.6518 14.2898 17.6992 17.5195 15.7939L22.0135 13.1428C25.2432 11.2376 26.858 10.285 28.5643 10.5079C30.2706 10.7309 31.5864 12.0665 34.2181 14.7376L36.274 16.8245L13.8443 30.0561Z" fill="white"/>
</g>
<defs>
<clipPath id="clip0_282_4575">
<rect width="40" height="40" fill="white" transform="translate(0 20.3237) rotate(-30.5369)"/>
</clipPath>
</defs>
</svg>
