<svg width="57" height="30" viewBox="0 0 57 30" fill="none" xmlns="http://www.w3.org/2000/svg">
<path d="M9.84891 18.96C9.52891 19.0133 9.24891 19.12 9.00891 19.28C8.76891 19.44 8.55557 19.6133 8.36891 19.8C8.20891 19.96 8.06224 20.12 7.92891 20.28C7.79557 20.4133 7.67557 20.4933 7.56891 20.52C7.43557 20.44 7.26224 20.4 7.04891 20.4C6.83557 20.3733 6.62224 20.4133 6.40891 20.52C6.22224 20.6 6.07557 20.76 5.96891 21C5.88891 21.2133 5.91557 21.52 6.04891 21.92L6.20891 24.76L6.04891 26.24V27L5.28891 28.08L3.96891 28.4H1.32891C1.03557 28.4533 0.795573 28.4133 0.608906 28.28C0.448906 28.12 0.368906 27.7333 0.368906 27.12V27.04L1.00891 24.64L1.12891 21.92L1.40891 16.8L1.88891 13.36C1.86224 13.2267 1.83557 12.9733 1.80891 12.6C1.78224 12.2267 1.74224 11.76 1.68891 11.2C1.66224 10.6133 1.63557 10.1333 1.60891 9.76C1.60891 9.38667 1.60891 9.09333 1.60891 8.88C1.60891 8.93333 1.70224 8.86667 1.88891 8.68C2.07557 8.46667 2.23557 8.21333 2.36891 7.92C2.50224 7.6 2.55557 7.25333 2.52891 6.88C2.50224 6.50667 2.27557 6.16 1.84891 5.84L2.24891 2.52C2.43557 2.41333 2.44891 2.09333 2.28891 1.56L3.08891 0.759999L3.60891 0.68C3.82224 0.733332 4.03557 0.773332 4.24891 0.799998C4.48891 0.799998 4.75557 0.826665 5.04891 0.88C5.28891 0.933332 5.50224 0.973332 5.68891 0.999998C5.90224 0.999998 6.08891 1.04 6.24891 1.12L7.04891 1.56V2.32C7.10224 2.45333 7.15557 2.66666 7.20891 2.96C7.26224 3.22667 7.30224 3.56 7.32891 3.96C7.32891 4.14667 7.31557 4.36 7.28891 4.6C7.26224 4.84 7.23557 5.06667 7.20891 5.28C7.20891 5.49333 7.19557 5.68 7.16891 5.84C7.14224 6 7.12891 6.09333 7.12891 6.12C7.12891 6.14667 7.11557 6.21333 7.08891 6.32C7.08891 6.42667 7.07557 6.53333 7.04891 6.64C7.02224 6.74667 6.99557 6.84 6.96891 6.92C6.94224 7 6.91557 7.02667 6.88891 7C6.86224 7 6.82224 7.08 6.76891 7.24C6.74224 7.4 6.70224 7.6 6.64891 7.84C6.62224 8.05333 6.59557 8.28 6.56891 8.52C6.54224 8.76 6.54224 8.94667 6.56891 9.08C6.59557 9.21333 6.62224 9.42667 6.64891 9.72C6.67557 9.98667 6.70224 10.36 6.72891 10.84C6.72891 11.08 6.72891 11.2933 6.72891 11.48C6.75557 11.6667 6.76891 11.8267 6.76891 11.96C6.76891 12.12 6.78224 12.24 6.80891 12.32L6.56891 15.24L5.84891 15.84C5.47557 16.5867 5.30224 17.1067 5.32891 17.4C5.38224 17.6933 5.54224 17.9333 5.80891 18.12C6.28891 18.04 6.62224 17.9733 6.80891 17.92C6.99557 17.8667 7.14224 17.7733 7.24891 17.64C7.35557 17.5067 7.44891 17.3333 7.52891 17.12C7.63557 16.9067 7.84891 16.6 8.16891 16.2C8.16891 16.2533 8.40891 16.1333 8.88891 15.84C9.31557 15.5733 9.51557 15.2533 9.48891 14.88C9.83557 14.72 10.0889 14.5867 10.2489 14.48C10.4089 14.3733 10.5956 14.2667 10.8089 14.16C11.3156 13.7867 11.6489 13.4267 11.8089 13.08C11.9956 12.7333 12.1422 12.5733 12.2489 12.6C12.3289 12.6 12.3822 12.6133 12.4089 12.64C12.4622 12.6667 12.5422 12.7067 12.6489 12.76C12.7822 12.68 12.9956 12.5467 13.2889 12.36C13.6089 12.1467 13.9822 11.8533 14.4089 11.48C14.6756 11.2667 14.9156 11.0667 15.1289 10.88C15.3689 10.6933 15.5956 10.5067 15.8089 10.32L16.8089 10.44L17.4889 11.88L17.0489 12.16C16.8889 12.32 16.7289 12.52 16.5689 12.76C16.4089 13 16.2489 13.24 16.0889 13.48C15.9556 13.6933 15.8089 13.8933 15.6489 14.08C15.4889 14.24 15.3289 14.3333 15.1689 14.36C14.5022 14.8933 13.7556 15.3867 12.9289 15.84C12.1289 16.2933 11.3422 16.7867 10.5689 17.32C10.4356 17.4 10.3156 17.4933 10.2089 17.6C10.1022 17.68 9.99557 17.76 9.88891 17.84C9.83557 17.8933 9.80891 17.9867 9.80891 18.12C9.83557 18.2267 9.86224 18.3467 9.88891 18.48C9.91557 18.5867 9.92891 18.6933 9.92891 18.8C9.92891 18.9067 9.90224 18.96 9.84891 18.96ZM19.2089 27.68L16.4089 29.08L15.5689 28.88L14.6089 27.6C14.5022 27.4667 14.4089 27.3333 14.3289 27.2C14.2489 27.04 14.1422 26.8667 14.0089 26.68C13.7156 26.2 13.4222 25.8 13.1289 25.48C12.8622 25.1333 12.6756 24.8533 12.5689 24.64C12.5422 24.5867 12.4889 24.4933 12.4089 24.36C12.3289 24.2267 12.1822 24.1067 11.9689 24L11.8089 21.88C11.9156 21.8267 11.8222 21.6933 11.5289 21.48C11.2622 21.24 10.9822 20.9467 10.6889 20.6C10.2356 19.8533 10.1156 19.3333 10.3289 19.04C10.7022 19.0933 11.1156 19.1333 11.5689 19.16C12.0489 19.1867 12.5689 19.1733 13.1289 19.12C13.3156 19.0933 13.4756 19.08 13.6089 19.08C13.7422 19.08 13.8756 19.08 14.0089 19.08L14.5689 19.64C14.5689 19.6667 14.5556 19.68 14.5289 19.68C14.5289 19.68 14.5289 19.6933 14.5289 19.72C14.5822 19.8 14.6622 19.9333 14.7689 20.12C14.9022 20.3067 15.0756 20.5733 15.2889 20.92C15.6089 21.1867 15.8356 21.4267 15.9689 21.64C16.1022 21.8533 16.1956 22.0533 16.2489 22.24C16.3022 22.4267 16.3422 22.6133 16.3689 22.8C16.3956 22.9867 16.4756 23.2 16.6089 23.44C16.6889 23.52 16.8089 23.6533 16.9689 23.84C17.1289 24 17.3289 24.2 17.5689 24.44C17.8089 24.68 17.9822 24.8667 18.0889 25C18.1956 25.1333 18.2622 25.2133 18.2889 25.24C18.3422 25.2933 18.3422 25.3467 18.2889 25.4C18.2622 25.4533 18.2622 25.48 18.2889 25.48L19.2889 26.96L19.2089 27.68ZM26.2836 3.16C26.3369 2.94667 26.3636 2.74667 26.3636 2.56C26.3903 2.34667 26.4169 2.13333 26.4436 1.92C26.4436 1.73333 26.4436 1.57333 26.4436 1.44C26.4703 1.30667 26.4836 1.18667 26.4836 1.08L26.6836 0.639998C26.7636 0.613332 26.8703 0.599998 27.0036 0.599998C27.1369 0.599998 27.2969 0.586665 27.4836 0.559999C28.0436 0.533333 28.4036 0.466666 28.5636 0.359999C28.5636 0.333333 28.6303 0.279999 28.7636 0.199999C28.8436 0.119998 28.9103 0.0666649 28.9636 0.0399985C28.9903 0.0399985 29.0836 0.0533317 29.2436 0.079998C29.4036 0.106664 29.6169 0.159998 29.8836 0.239998C30.3369 0.346665 30.6569 0.399999 30.8436 0.399999C31.0836 0.399999 31.2169 0.386666 31.2436 0.359999C31.2703 0.333333 31.3503 0.333333 31.4836 0.359999L31.8436 1.04L32.2036 3.08L31.3636 4.48C31.3369 4.50666 31.3103 4.53333 31.2836 4.56C31.2836 4.58667 31.2569 4.61333 31.2036 4.64C31.0703 4.72 30.9103 4.84 30.7236 5L30.6036 5.12L29.4036 5.24C29.2436 5.18667 29.0569 5.13333 28.8436 5.08C28.6303 5 28.3769 4.90667 28.0836 4.8C27.7903 4.69333 27.5369 4.6 27.3236 4.52C27.1103 4.41333 26.9236 4.33333 26.7636 4.28L26.5636 4.08L26.2836 3.16ZM31.2436 10.04L31.0836 11.48L31.2436 12.08L31.0036 12.72L31.1236 13.64L30.9236 14.4L31.0436 14.64L30.8836 16.44L30.7236 20.24C30.7236 20.4267 30.6969 20.6667 30.6436 20.96C30.5903 21.2267 30.5503 21.52 30.5236 21.84C30.4969 22.1333 30.4969 22.44 30.5236 22.76C30.5503 23.0533 30.6303 23.3067 30.7636 23.52C30.7369 23.92 30.6969 24.3867 30.6436 24.92C30.5903 25.4533 30.4969 26.0667 30.3636 26.76C30.1503 27.0533 29.9236 27.32 29.6836 27.56C29.4703 27.7733 29.0569 27.8933 28.4436 27.92C28.0969 27.9467 27.7503 27.9733 27.4036 28C27.0836 28.0267 26.7769 28.0667 26.4836 28.12C26.3236 28.1467 26.1636 28.1733 26.0036 28.2C25.8436 28.2267 25.6703 28.2667 25.4836 28.32L24.4836 27.04C24.5103 26.9067 24.5503 26.5467 24.6036 25.96C24.6836 25.3467 24.7503 24.6267 24.8036 23.8C24.8569 22.9733 24.8836 22.0933 24.8836 21.16C24.9103 20.2267 24.8836 19.36 24.8036 18.56L25.0436 17.8L25.4036 16.04L25.5236 14.64L25.7636 14.16L25.8036 13.8L26.0436 12.72L26.2436 10.52L29.8436 9.12L31.2436 10.04ZM42.4661 28.16C42.3861 28.16 42.2128 28.1733 41.9461 28.2C41.7061 28.2 41.4394 28.2133 41.1461 28.24C40.8528 28.24 40.5728 28.2533 40.3061 28.28C40.0394 28.28 39.8528 28.28 39.7461 28.28L38.8661 28.36L38.1861 27.88C38.1594 27.48 38.1861 27.0133 38.2661 26.48C38.3728 25.9467 38.4261 25.5333 38.4261 25.24C38.7461 25.24 38.8128 24.92 38.6261 24.28C38.4128 23.64 38.3328 23.1333 38.3861 22.76C38.4128 22.3333 38.4794 21.9067 38.5861 21.48C38.6928 21.0267 38.7061 20.7333 38.6261 20.6C38.5728 20.44 38.5061 20.2667 38.4261 20.08C38.3461 19.8667 38.2794 19.6267 38.2261 19.36L38.7061 16.76C38.7061 15.32 38.7194 14.2133 38.7461 13.44C38.7994 12.6667 38.8394 12.0933 38.8661 11.72C38.9194 11.3467 38.9728 11.12 39.0261 11.04C39.1061 10.9333 39.1594 10.84 39.1861 10.76C39.2394 10.68 39.2661 10.5467 39.2661 10.36C39.2928 10.1733 39.2928 9.8 39.2661 9.24L40.1061 8.8C40.5594 8.82667 41.1061 8.90667 41.7461 9.04C42.4128 9.14667 43.0528 9.26667 43.6661 9.4C43.9861 9.45333 44.2661 9.50667 44.5061 9.56C44.7461 9.58667 44.9594 9.62667 45.1461 9.68L45.7061 10.44C45.1994 10.7867 44.8661 11.0133 44.7061 11.12C44.5461 11.2267 44.5328 11.4533 44.6661 11.8C45.1461 12.2267 45.5594 12.36 45.9061 12.2C46.2794 12.04 46.5328 11.7867 46.6661 11.44L49.2661 10.8H50.7861L51.4661 11.04C52.1061 11.2533 52.7461 11.48 53.3861 11.72C54.0528 11.96 54.5994 12.1467 55.0261 12.28L55.7461 14.04L55.7061 14.52C55.7594 15.2933 55.7994 16.04 55.8261 16.76C55.8794 17.4533 55.8794 18.3067 55.8261 19.32C55.7994 19.96 55.7728 20.6133 55.7461 21.28C55.7194 21.92 55.6928 22.5333 55.6661 23.12C55.6661 23.7067 55.6661 24.2267 55.6661 24.68C55.6661 25.1067 55.6661 25.4267 55.6661 25.64C55.6661 25.6667 55.6928 25.7733 55.7461 25.96C55.8261 26.1467 55.9328 26.3467 56.0661 26.56L55.7861 27L55.0261 27.36C54.6528 27.3867 54.1728 27.4533 53.5861 27.56C53.0261 27.6667 52.5594 27.72 52.1861 27.72C52.0261 27.72 51.8928 27.6667 51.7861 27.56C51.6794 27.4267 51.4394 27.3733 51.0661 27.4L50.5061 26.92C50.5594 26.5733 50.5728 26.2933 50.5461 26.08C50.5194 25.84 50.4794 25.64 50.4261 25.48C50.3728 25.2933 50.3194 25.1333 50.2661 25C50.2128 24.8667 50.1861 24.7333 50.1861 24.6C50.2128 24.2 50.2528 23.76 50.3061 23.28C50.3594 22.9067 50.4128 22.48 50.4661 22C50.5461 21.4933 50.6394 21 50.7461 20.52C50.7994 20.2267 50.8261 19.8533 50.8261 19.4C50.8261 18.92 50.8261 18.4533 50.8261 18C50.8261 17.52 50.8261 17.0667 50.8261 16.64C50.8261 16.2133 50.8394 15.8933 50.8661 15.68L49.7061 13.64C49.5994 13.6133 49.4928 13.5867 49.3861 13.56C49.2794 13.5333 49.1594 13.4933 49.0261 13.44C48.8128 13.3867 48.5994 13.4 48.3861 13.48C48.1994 13.56 48.0128 13.6533 47.8261 13.76C47.6394 13.8667 47.4661 13.9733 47.3061 14.08C47.1461 14.1867 46.9994 14.24 46.8661 14.24C46.8661 14.32 46.7194 14.2533 46.4261 14.04C46.1594 13.8 45.9328 13.5733 45.7461 13.36C45.2928 12.9867 44.9594 12.92 44.7461 13.16C44.5594 13.3733 44.3994 13.6667 44.2661 14.04C44.2928 14.3333 44.3328 14.5333 44.3861 14.64C44.4661 14.7467 44.5461 14.8267 44.6261 14.88C44.7328 14.9067 44.8261 14.9067 44.9061 14.88C44.7728 14.9867 44.6661 15.1867 44.5861 15.48C44.5061 15.7467 44.4394 16.0533 44.3861 16.4C44.3594 16.72 44.3461 17.0667 44.3461 17.44C44.3728 17.7867 44.4128 18.1067 44.4661 18.4C44.5194 18.72 44.4794 19.28 44.3461 20.08C44.2394 20.88 44.2128 21.8 44.2661 22.84C44.2661 23.24 44.2528 23.6667 44.2261 24.12C44.1994 24.5467 44.1728 24.9733 44.1461 25.4C44.1194 25.8 44.0928 26.1733 44.0661 26.52C44.0394 26.84 44.0261 27.0933 44.0261 27.28V27.4C43.5194 27.8267 42.9994 28.08 42.4661 28.16Z" fill="white"/>
</svg>
