<svg width="230" height="230" viewBox="0 0 230 230" fill="none" xmlns="http://www.w3.org/2000/svg">
<path fill-rule="evenodd" clip-rule="evenodd" d="M110.263 48.8308C203.848 46.3831 212.783 115.189 193.135 115.748C155.166 116.829 152.667 137.687 127.646 160.787C87.2335 198.099 39.6772 200.229 42.5145 102.959C43.7071 62.1348 72.2895 49.8238 110.263 48.8308Z" fill="#F5F2FD"/>
<path fill-rule="evenodd" clip-rule="evenodd" d="M175.21 124.851C202.252 118.812 207.455 130.967 201.779 132.243C190.811 134.709 192.306 138.521 184.663 144.617C173.509 153.515 160.641 150.031 157.622 138.877C155.611 131.446 164.237 127.301 175.21 124.851Z" fill="#F5F2FD"/>
<path d="M165.874 152.134C164.088 151.617 162.487 151.114 160.825 150.42C158.663 149.571 156.761 148.152 154.649 147.202C152.638 146.235 150.443 145.847 148.348 145.122C147.2 144.776 145.961 144.144 144.68 143.769C145.137 143.639 145.613 143.5 146.084 143.376C146.377 143.308 146.675 143.225 146.953 143.153C147.37 143.362 147.797 143.549 148.233 143.714C149.194 144.097 150.179 144.455 151.187 144.702C153.507 145.235 155.869 145.646 158.273 145.752C160.807 145.801 163.213 145.078 165.628 144.968C166.43 144.941 167.251 145.04 168.004 145.064C168.133 145.057 168.298 144.946 168.283 144.805C168.175 144.616 167.91 144.558 167.732 144.429C166.019 143.38 164.14 142.628 162.122 142.504C159.592 142.305 157.093 142.842 154.707 142.27C154.076 142.153 153.454 141.994 152.844 141.794C153.733 141.376 154.628 140.942 155.491 140.463C156.946 139.648 158.288 138.609 159.666 137.649C161.669 136.213 163.791 134.936 165.615 133.236C165.884 133.008 166.538 132.355 165.816 132.426C164.883 132.695 163.967 133.054 163.021 133.267C157.423 134.069 152.257 136.726 148.349 140.814C147.798 141.4 147.269 142.011 146.829 142.687C146.798 142.725 146.773 142.768 146.754 142.813C145.845 143.057 144.96 143.325 144.056 143.603C144.022 143.609 144.003 143.619 143.97 143.624C143.633 143.727 143.296 143.83 142.973 143.938C143.213 143.565 143.469 143.147 143.671 142.929C144.3 142.167 144.902 141.8 145.631 141.157C147.405 139.558 148.962 137.578 149.817 135.289C150.609 133.23 151.478 131.453 152.73 129.621C153.327 127.851 146.462 134.635 146.133 134.943C144.579 136.366 143.572 138.315 142.75 140.279C142.361 141.31 142.049 142.487 141.58 143.338C141.376 143.791 141.055 144.17 140.813 144.593C140.812 144.617 140.814 144.641 140.82 144.664C140.103 144.905 139.389 145.182 138.68 145.444C138.661 145.454 138.647 145.449 138.627 145.459C138.3 145.583 137.972 145.706 137.653 145.849C137.668 145.804 137.67 145.753 137.685 145.708C137.75 145.454 137.845 145.209 137.97 144.978C139.419 142.624 141.264 140.542 142.83 138.261C143.657 137.061 144.481 135.825 145.018 134.456C145.411 133.46 145.602 132.174 146.018 131.338C146.533 130.401 147.15 129.533 147.776 128.685C147.862 128.528 148.477 127.896 148.636 127.529C148.716 126.931 147.887 127.54 147.651 127.627C145.506 128.879 143.609 130.606 142.085 132.63C141.07 133.867 140.087 135.15 139.404 136.62C138.151 139.144 137.656 142.268 136.502 144.64C136.158 145.329 135.737 145.977 135.247 146.571C135.144 146.688 135.174 146.783 135.259 146.812C134.346 147.206 133.457 147.625 132.562 148.059C132.789 146.667 133.634 145.235 134.418 143.885C135.343 142.312 136.15 140.665 136.944 139.013C137.47 137.86 137.958 136.677 138.215 135.431C138.55 133.502 138.593 131.59 139.038 129.801C139.186 129.222 139.376 128.656 139.609 128.106C139.698 127.849 139.882 127.592 139.819 127.317C139.756 127.177 139.564 127.228 139.456 127.31C139.191 127.573 139.018 127.935 138.776 128.223C138.012 129.193 136.993 130.581 136.215 131.731C134.616 134.152 133.16 136.757 132.482 139.632C131.979 141.773 131.984 144.141 131.561 146.14C131.422 146.954 131.292 147.788 130.907 148.534C130.897 148.564 130.862 148.619 130.867 148.604C130.836 148.695 130.737 148.796 130.768 148.891C130.771 148.898 130.776 148.905 130.783 148.91C130.789 148.915 130.797 148.919 130.805 148.921C129.609 149.538 128.44 150.214 127.279 150.911C127.294 150.731 127.267 150.535 127.315 150.349C127.345 149.988 127.51 149.42 127.663 148.932C128.071 147.755 128.689 146.701 129.15 145.458C130.149 143.168 130.216 140.639 130.442 138.199C130.662 135.504 130.442 132.842 130.418 130.164C130.428 129.712 130.463 129.262 130.521 128.814L130.536 128.768C130.638 128.316 130.717 127.858 130.773 127.397C130.808 127.206 130.581 127.128 130.449 127.234C130.255 127.336 130.281 127.582 130.233 127.768C130.16 128.115 130.121 128.456 130.082 128.797C129.789 130.149 129.335 131.597 128.895 132.915C128.063 135.044 126.92 137.065 126.38 139.312C125.904 141.192 126.045 143.167 126.331 145.04C126.516 146.017 126.743 146.737 126.674 147.761C126.673 148.724 126.605 149.562 126.379 150.397C126.273 150.749 126.144 151.076 126.01 151.418C126.003 151.439 126.001 151.462 126.005 151.483C126.008 151.505 126.017 151.526 126.03 151.544C126.046 151.557 126.063 151.568 126.083 151.575C126.102 151.581 126.123 151.584 126.143 151.583C125.325 152.075 124.512 152.577 123.705 153.088C123.883 152.805 124.034 152.507 124.156 152.196C124.694 150.963 124.858 149.617 125.032 148.291C125.259 146.629 125.305 144.938 124.982 143.306C124.742 141.939 124.271 140.644 123.959 139.302C123.616 137.728 123.444 136.122 123.446 134.511C123.449 134.423 123.458 134.336 123.473 134.25C123.523 134.014 123.568 133.793 123.598 133.567C123.242 133.223 123.087 133.626 123.023 134.314C122.702 135.927 122.103 137.798 121.942 139.499C121.761 141.989 122.048 144.504 122.581 146.903C122.868 148.27 123.532 149.513 123.554 150.822C123.569 151.604 123.36 152.208 123.111 153.018C123.089 153.128 122.98 153.26 123.067 153.374L123.096 153.384C123.083 153.414 123.077 153.447 123.078 153.48C119.397 155.873 115.874 158.591 112.755 161.787C112.37 162.212 111.966 162.646 111.605 163.096C111.528 163.272 111.74 163.345 111.876 163.274C112.337 162.859 112.701 162.309 113.153 161.874C116.674 158.293 120.668 155.315 124.957 152.676C126.324 153.808 127.351 155.33 128.669 156.513C131.229 158.733 134.656 159.362 137.656 160.721C137.959 160.809 138.441 161.111 138.658 160.713C138.667 160.686 138.667 160.658 138.659 160.631C138.652 160.604 138.636 160.58 138.615 160.563C138.423 160.429 138.216 160.34 138.014 160.237C136.821 159.655 135.938 158.91 134.976 157.935C134.638 157.581 134.296 157.243 133.948 156.92C134.439 157.242 134.954 157.538 135.47 157.835C137.061 158.825 139.038 159.476 140.664 159.954C142.284 160.573 143.78 161.48 145.078 162.63C145.378 162.818 145.653 163.167 146.005 163.205C146.562 163.059 146.083 162.657 145.875 162.433C144.138 160.767 142.638 158.829 140.732 157.375C139.626 156.586 138.58 156.038 137.59 155.189C136.517 154.395 135.605 153.37 134.473 152.657C133.016 151.781 131.301 151.61 129.881 150.95C129.472 150.757 129.169 150.534 128.866 150.311C129.933 149.7 130.99 149.12 132.084 148.569L132.85 149.24C134.243 150.617 135.859 151.717 137.532 152.702C138.833 153.473 140.279 153.923 141.511 154.805C144.206 156.634 146.411 159.695 149.278 161.532C150.002 162.002 150.692 162.528 151.427 162.969C151.728 163.107 152.152 163.439 152.443 163.101C152.56 162.854 152.245 162.711 152.121 162.567C151.704 162.169 151.273 161.766 150.905 161.318C149.016 158.991 147.31 156.457 144.978 154.586C142.509 152.515 139.912 150.585 137.013 149.21C135.941 148.687 134.859 148.059 133.635 148.024C133.495 148.025 133.355 148.016 133.217 147.997C134.247 147.492 135.31 147.032 136.396 146.597C136.729 146.459 137.056 146.335 137.39 146.197C138.005 146.799 138.389 147.658 139.118 148.164C141.538 149.964 144.218 151.332 147.029 152.321C151.447 153.935 155.79 155.995 160.541 156.372C160.931 156.388 161.336 156.545 161.726 156.427C162.275 156.076 161.303 155.909 161.087 155.8C160.286 155.506 159.718 155.36 158.89 155.006C157.979 154.522 157.11 153.967 156.22 153.423C153.894 151.993 151.575 150.497 149.041 149.485C146.392 148.484 143.816 147.914 141.304 146.656C140.551 146.311 139.824 145.941 139.112 145.525C140.39 145.038 141.657 144.581 142.957 144.169C143 144.319 143.249 144.422 143.351 144.542C144.257 145.312 145.374 145.749 146.395 146.322C147.997 147.282 149.507 148.413 151.194 149.216C153.826 150.313 156.377 151.23 159.215 151.823C160.995 152.219 162.809 152.611 164.654 152.59C164.96 152.713 166.36 152.606 165.874 152.134ZM127.96 150.961C127.969 150.981 127.983 150.986 127.992 151.006C128.001 151.026 128.248 151.365 128.161 151.25C128.603 152.079 129.21 152.796 129.828 153.483C129.939 153.623 130.054 153.747 130.169 153.872C129.095 153.186 127.915 152.68 126.677 152.376C126.403 152.298 126.186 152.24 125.973 152.166C126.625 151.75 127.285 151.353 127.96 150.961Z" fill="url(#paint0_linear_282_4373)"/>
<path d="M147.787 112.63C146.042 113.904 144.448 115.028 142.664 116.121C140.383 117.566 137.871 118.546 135.553 119.905C133.299 121.172 131.34 122.845 129.204 124.288C128.071 125.1 126.655 125.866 125.4 126.777C125.65 126.338 125.907 125.878 126.171 125.429C126.343 125.154 126.507 124.868 126.664 124.603C127.141 124.344 127.603 124.064 128.058 123.773C129.076 123.133 130.093 122.462 131.045 121.724C133.207 120.009 135.31 118.207 137.216 116.237C139.178 114.132 140.462 111.802 142.213 109.728C142.802 109.044 143.5 108.397 144.09 107.777C144.183 107.666 144.225 107.479 144.108 107.43C143.883 107.439 143.638 107.636 143.406 107.729C141.317 108.711 139.324 109.961 137.699 111.599C135.627 113.635 134.132 115.965 131.891 117.717C131.386 118.153 130.716 118.653 130.117 119.074C130.478 118.146 130.832 117.207 131.127 116.276C131.62 114.702 131.858 113.125 132.183 111.554C132.625 109.251 133.276 106.918 133.384 104.65C133.417 104.325 133.423 103.494 132.928 104.13C132.421 105.029 131.995 105.954 131.437 106.839C127.876 111.741 125.848 117.295 125.966 122.418C125.988 123.135 126.046 123.843 126.22 124.505C126.225 124.546 126.237 124.586 126.258 124.623C125.751 125.49 125.28 126.349 124.802 127.228C124.781 127.259 124.773 127.279 124.752 127.31C124.574 127.637 124.396 127.964 124.232 128.281C124.133 127.918 124.013 127.522 124.003 127.258C123.907 126.401 124.089 125.737 124.16 124.846C124.305 122.664 123.999 120.5 122.928 118.789C121.982 117.233 121.305 115.733 120.879 113.889C120.002 112.62 119.888 121.32 119.87 121.729C119.759 123.65 120.459 125.34 121.311 126.881C121.791 127.655 122.438 128.426 122.722 129.189C122.908 129.557 122.949 129.991 123.083 130.377C123.113 130.389 123.12 130.4 123.142 130.401C122.778 131.108 122.444 131.827 122.103 132.535C122.096 132.555 122.081 132.565 122.074 132.586C121.918 132.914 121.761 133.243 121.626 133.572C121.604 133.539 121.568 133.516 121.546 133.484C121.403 133.319 121.291 133.132 121.213 132.929C120.543 130.692 120.38 128.241 119.855 125.939C119.581 124.724 119.278 123.497 118.657 122.453C118.206 121.692 117.384 120.973 117.072 120.262C116.758 119.424 116.575 118.529 116.413 117.636C116.36 117.497 116.352 116.707 116.197 116.414C115.808 116.088 115.636 117.047 115.523 117.283C114.835 119.625 114.692 121.965 115.055 124.121C115.215 125.509 115.432 126.889 116.019 128.1C116.964 130.246 118.937 132.016 119.843 134.013C120.104 134.614 120.272 135.252 120.343 135.903C120.351 136.04 120.446 136.056 120.532 135.998C120.135 136.934 119.774 137.862 119.42 138.801C118.547 138.006 118.112 136.677 117.693 135.433C117.213 133.976 116.588 132.584 115.949 131.202C115.482 130.261 114.963 129.338 114.222 128.582C113.026 127.464 111.622 126.599 110.615 125.45C110.292 125.076 110.01 124.669 109.774 124.236C109.648 124.05 109.595 123.784 109.34 123.717C109.187 123.709 109.08 123.893 109.06 124.018C109.056 124.355 109.197 124.657 109.229 124.985C109.378 126.046 109.648 127.503 109.921 128.654C110.527 131.045 111.379 133.397 113.026 135.212C114.253 136.563 116.036 137.586 117.219 138.808C117.725 139.277 118.253 139.748 118.521 140.394C118.536 140.416 118.551 140.47 118.544 140.459C118.588 140.524 118.589 140.651 118.684 140.666C118.702 140.666 118.72 140.66 118.734 140.648C118.29 141.919 117.91 143.193 117.553 144.468C117.429 144.377 117.261 144.316 117.158 144.194C116.909 144.012 116.607 143.628 116.356 143.288C115.781 142.435 115.459 141.46 114.875 140.533C113.912 138.702 112.061 137.549 110.399 136.301C108.54 134.948 106.372 133.978 104.34 132.836C104.012 132.635 103.699 132.41 103.403 132.165L103.381 132.132C103.116 131.848 102.831 131.583 102.53 131.338C102.412 131.227 102.181 131.383 102.161 131.54C102.091 131.746 102.295 131.831 102.398 131.952C102.605 132.157 102.826 132.348 103.058 132.525C103.851 133.357 104.595 134.366 105.252 135.307C106.22 136.928 106.871 138.763 108.15 140.191C109.202 141.405 110.793 142.144 112.419 142.717C113.294 142.985 114.007 143.108 114.725 143.61C115.448 144.028 116.027 144.449 116.483 145C116.66 145.241 116.822 145.492 116.97 145.753C116.983 145.768 117 145.78 117.019 145.787C117.039 145.793 117.059 145.795 117.079 145.79C117.124 145.776 117.165 145.749 117.195 145.712C116.944 146.609 116.704 147.508 116.474 148.41C116.398 148.142 116.288 147.885 116.146 147.645C115.628 146.659 114.741 145.937 113.876 145.217C112.799 144.306 111.563 143.533 110.091 143.096C108.88 142.704 107.549 142.537 106.303 142.217C104.907 141.841 103.566 141.288 102.312 140.569C102.249 140.529 102.191 140.484 102.136 140.433C102.003 140.293 101.864 140.158 101.718 140.032C101.189 140.182 101.374 140.487 101.842 140.839C102.811 141.807 103.762 143.121 104.919 143.995C106.654 145.226 108.762 146.077 110.97 146.67C112.216 147.022 113.655 147.005 114.656 147.554C115.255 147.881 115.55 148.318 115.97 148.878C116.036 148.944 116.052 149.093 116.205 149.069L116.233 149.05C116.247 149.074 116.267 149.094 116.292 149.105C115.295 153.231 114.662 157.365 114.696 161.367C114.723 161.874 114.743 162.401 114.806 162.9C114.88 163.04 115.097 162.894 115.146 162.749C115.184 162.183 115.048 161.639 115.063 161.071C115.046 156.565 115.841 151.923 117.115 147.182C119.005 146.526 120.928 146.325 122.819 145.733C126.432 144.549 129.508 141.947 132.809 140.02C133.105 139.805 133.698 139.532 133.563 139.177C133.545 139.157 133.521 139.144 133.495 139.139C133.469 139.134 133.442 139.137 133.418 139.148C133.172 139.251 132.948 139.386 132.716 139.511C131.373 140.259 130.142 140.677 128.678 141.06C128.156 141.19 127.642 141.331 127.135 141.482C127.749 141.21 128.364 140.907 128.978 140.603C130.931 139.698 132.922 138.322 134.516 137.166C136.186 136.088 137.99 135.233 139.881 134.624C140.25 134.455 140.722 134.375 141.017 134.096C141.331 133.566 140.665 133.793 140.339 133.87C137.767 134.605 135.17 135.022 132.629 135.99C131.197 136.575 129.99 137.215 128.6 137.677C127.188 138.232 125.724 138.553 124.328 139.193C122.564 140.034 121.132 141.399 119.557 142.303C119.155 142.526 118.737 142.718 118.306 142.878C118.658 141.718 119.024 140.58 119.44 139.423L120.527 139.071C122.621 138.501 124.675 137.622 126.685 136.647C128.254 135.89 129.689 134.873 131.289 134.222C134.71 132.755 138.687 132.233 142.245 130.626C143.149 130.222 144.068 129.872 144.958 129.446C145.29 129.254 145.862 129.042 145.829 128.651C145.732 128.446 145.386 128.648 145.183 128.69C144.567 128.867 143.937 129.054 143.32 129.168C140.136 129.743 136.935 130.075 133.757 131.219C130.325 132.391 126.902 133.732 123.666 135.568C122.459 136.239 121.165 136.874 120.209 137.886C120.103 138.005 119.99 138.118 119.871 138.225C120.274 137.142 120.735 136.051 121.233 134.952C121.382 134.612 121.538 134.284 121.687 133.945C122.607 133.689 123.545 133.74 124.479 133.348C127.67 132.1 130.734 130.444 133.613 128.516C138.182 125.511 143.029 122.762 146.921 118.941C147.23 118.621 147.656 118.349 147.863 117.971C148.016 117.358 147.152 118.101 146.906 118.235C146.076 118.78 145.536 119.193 144.64 119.734C143.585 120.287 142.507 120.776 141.423 121.286C138.581 122.616 135.695 123.913 133.009 125.599C130.245 127.386 127.859 129.299 125.005 130.861C124.175 131.342 123.344 131.792 122.491 132.209C123.095 130.926 123.714 129.665 124.392 128.396C124.537 128.425 124.804 128.26 124.971 128.227C126.238 127.801 127.415 127.054 128.622 126.446C130.56 125.519 132.558 124.743 134.443 123.677C137.266 121.945 139.893 120.203 142.494 118.081C144.145 116.759 145.817 115.408 147.203 113.851C147.529 113.648 148.512 112.427 147.787 112.63ZM118.107 143.92C118.129 143.921 118.143 143.911 118.165 143.912C118.187 143.914 118.63 143.853 118.477 143.877C119.436 143.865 120.437 143.667 121.423 143.447C121.611 143.415 121.793 143.372 121.974 143.329C120.631 143.94 119.363 144.705 118.197 145.609C117.93 145.805 117.721 145.962 117.505 146.108C117.686 145.381 117.889 144.655 118.107 143.92Z" fill="url(#paint1_linear_282_4373)"/>
<path d="M41.3092 153.114C41.0317 151.866 41.5244 150.434 42.437 149.574L42.7081 149.346C42.4867 149.193 42.232 149.037 42.0496 148.82C41.7124 148.456 41.5712 147.957 41.563 147.47C41.5748 147.111 41.7112 146.768 41.9489 146.498C42.1535 146.264 42.437 146.088 42.6872 145.908C43.0877 145.541 43.6099 145.318 44.1185 145.445C44.3721 144.646 45.0504 144.168 46.176 144.333C47.0534 144.459 47.9182 145.121 47.904 146.058C47.9425 146.581 47.6912 147.162 47.8561 147.579C48.0459 148.098 48.7729 148.413 49.0454 147.783C49.273 147.282 49.0684 146.745 48.6882 146.293C47.9254 145.423 46.8546 144.626 47.236 143.318C47.8652 141.277 51.2713 140.851 52.2022 142.876C52.2442 142.959 52.276 143.046 52.2971 143.136C52.3152 143.121 52.3152 143.121 52.3485 143.124C52.3436 142.95 52.3643 142.777 52.4098 142.609C52.529 142.201 52.727 141.849 52.7587 141.483C52.8055 141.135 52.6926 140.891 52.4798 140.638C52.079 140.234 51.3605 139.82 51.2365 139.122C51.1778 138.832 51.2428 138.469 51.4902 138.323C51.7194 138.192 52.1187 138.226 52.1744 138.55C52.1933 138.719 52.0639 138.859 51.925 138.914C51.8556 138.941 51.7254 138.896 51.734 138.797C51.755 138.748 51.8244 138.721 51.8425 138.705L51.8786 138.675C51.9806 138.466 51.8228 138.352 51.6268 138.486C51.3319 138.795 51.4946 139.43 51.8805 139.815C52.0933 140.068 52.4934 140.287 52.7337 140.61C52.9132 140.86 53.0536 141.174 53.0097 141.488C52.9723 141.921 52.6781 142.415 52.6312 142.763C52.6262 142.858 52.6125 142.952 52.59 143.044C52.7614 142.978 52.9398 142.932 53.1217 142.906C53.947 142.86 54.8137 143.304 55.219 144.043C55.4426 144.418 55.5999 144.828 55.6839 145.257C56.1071 145.209 56.5873 145.083 57.0322 145.172C57.0655 145.175 57.1139 145.196 57.1472 145.199C57.0893 145.093 57.0466 145.006 56.9887 144.9C55.7977 142.199 55.1621 139.278 53.9198 136.589C53.7945 136.293 53.6512 136.012 53.5108 135.699C53.4746 135.729 53.4204 135.775 53.4175 135.808C53.1225 136.117 52.8368 136.512 52.4203 136.677C52.2069 136.752 51.9777 136.77 51.755 136.731C51.5323 136.691 51.3237 136.594 51.1496 136.45C50.9311 136.263 50.8 136.034 50.6177 135.817C50.3745 135.528 50.0257 135.296 49.6893 135.116C49.1894 134.889 48.602 134.704 48.3093 134.209C48.0871 133.872 47.9705 133.476 47.9024 133.101C46.8696 133.414 45.739 133.501 44.8534 132.888C44.784 132.915 44.6965 132.958 44.6936 132.991C44.2783 133.258 43.8377 133.484 43.378 133.665C41.7421 134.361 39.9153 133.583 39.4813 131.819C39.4596 131.683 39.4226 131.529 39.4008 131.393C38.6146 131.375 38.2671 130.741 38.0462 130.002C37.9476 129.591 37.967 129.174 37.8866 128.747C37.8554 128.527 37.7938 128.27 37.7351 127.98C37.2108 128.421 36.613 129.324 35.8518 128.823C34.6746 127.899 34.5696 126.013 35.4416 124.848C35.264 124.793 35.083 124.749 34.8997 124.717C34.7362 124.67 34.1438 124.736 33.832 124.659C33.121 124.547 33.2053 123.766 33.4966 123.305C33.9931 122.427 34.7511 121.725 35.6651 121.297C35.7165 121.285 35.7526 121.254 35.804 121.242C35.7613 121.155 35.7214 121.034 35.6939 120.964C35.6322 120.709 35.6555 120.44 35.7602 120.199C36.3716 118.945 38.1752 119.218 39.4402 119.512C39.3822 119.17 39.4002 118.82 39.4928 118.486C39.5854 118.153 39.7504 117.843 39.9761 117.58C40.7136 116.806 41.9293 116.123 42.9538 116.682C43.3793 116.417 43.914 116.429 44.3867 116.588C44.7557 116.705 45.1028 116.882 45.414 117.112C45.4777 117.151 45.5233 117.206 45.587 117.245C45.3299 116.535 45.1061 115.829 44.831 115.134C44.7617 115.126 44.6986 115.09 44.6551 115.035C44.396 114.544 44.0871 114.433 43.6385 114.193C42.8326 113.822 42.1909 113.682 41.2765 113.402C40.3772 113.14 39.499 112.829 38.6236 112.485C38.2715 112.874 37.8796 113.141 37.5332 113.463C37.2382 113.773 37.1342 114.2 36.9639 114.621C36.6943 115.218 36.3069 115.821 35.6972 116.087C35.2617 116.283 34.7781 116.346 34.307 116.268C34.2737 116.266 34.2585 116.248 34.2404 116.263C34.2365 116.298 34.2219 116.332 34.1985 116.36C33.9347 116.89 33.5711 117.412 33.0308 117.65C32.5571 117.894 31.7861 117.894 31.3933 117.978C30.7436 118.122 30.3223 118.539 29.649 118.765C29.0602 118.983 28.3586 118.955 27.8188 118.607C27.3247 118.313 27.0619 117.67 27.2438 117.116C27.3164 116.907 27.424 116.712 27.5619 116.54C27.3705 116.397 27.1935 116.236 27.0336 116.058C26.5568 115.564 26.4509 114.851 26.902 114.287C27.0885 114.068 27.4378 113.713 27.5216 113.519C27.8701 112.979 27.6434 112.306 27.7676 111.646C27.9842 110.693 28.7188 109.952 29.591 109.558C29.2254 108.94 29.522 108.228 29.8217 107.667C29.9894 107.279 29.9726 106.892 29.7894 106.491C29.5729 106.087 29.3992 105.77 29.679 105.442C29.5517 105.364 29.4424 105.271 29.2999 105.175C28.8571 104.868 28.5581 104.256 28.7705 103.738C28.8992 103.413 29.1703 103.186 29.4082 102.955C29.6849 102.636 29.884 102.257 29.99 101.848C30.0941 101.422 30.1525 100.941 30.4894 100.534C31.3411 99.602 33.1327 99.2374 34.0113 100.319C34.4187 100.841 34.3952 101.693 35.0339 101.866C35.1017 101.877 35.1713 101.872 35.2365 101.85C34.7255 101.169 34.4467 100.323 33.7463 99.8939C33.2218 99.5636 32.4976 99.2159 32.0807 98.6099C31.8614 98.2389 31.7563 97.7102 31.9753 97.3101C32.1704 96.9917 32.5357 96.839 32.8705 96.6501L32.9247 96.6045C32.7301 96.4081 32.5347 96.2123 32.3386 96.0173L32.3205 96.0325C32.1572 96.1466 31.9564 96.1937 31.7594 96.1641C31.5624 96.1346 31.3842 96.0307 31.2615 95.8738C31.1095 95.6931 31.0335 95.6027 30.8758 95.4886C30.839 95.4588 30.7929 95.4429 30.7456 95.4438C30.5127 95.4236 30.3225 95.4909 30.0383 95.4831C29.1855 95.4596 28.9942 94.5714 29.336 93.9138C29.456 93.6895 29.6368 93.5375 29.8328 93.4036C29.696 93.2409 29.5411 93.0934 29.4044 92.9307C29.3682 92.9611 29.2988 92.9886 29.2627 93.019C28.8345 93.3172 28.6981 93.9256 28.5797 94.5188C28.4642 95.0787 28.1433 95.6879 27.5575 95.8718C26.7633 96.1383 25.8937 95.7281 25.395 95.098C25.0636 94.6667 24.871 94.181 24.3891 93.9382C24.2314 93.824 23.7077 93.678 23.4529 93.5219C23.1618 93.3591 22.9402 93.0955 22.8299 92.7807C22.773 92.623 22.7477 92.4556 22.7551 92.2881L22.7189 92.3186C22.4865 92.5826 22.331 92.9055 22.2694 93.2518C22.2197 93.6331 22.3876 94.0166 22.549 94.2818C22.8262 94.7583 23.4066 95.412 22.9918 95.946C22.7662 96.2281 22.4002 96.1965 22.0797 96.2191C22.0617 96.2342 22.0797 96.2191 22.113 96.2219C21.7289 96.2054 21.4064 96.4457 21.3655 96.7271C21.3273 96.9752 21.6448 96.9859 21.877 96.8217L21.9492 96.7609C21.9977 96.7818 21.8494 96.7523 21.8342 96.7341C21.7402 96.6589 21.8486 96.5678 21.9484 96.5764C22.0997 96.5727 22.3087 96.6746 22.2097 96.8505C22.0926 97.0415 21.851 97.1211 21.6485 97.1371C21.0076 97.1822 20.9568 96.6081 21.4058 96.2613C21.7493 95.9725 22.3273 96.0728 22.566 96.0264C23.0311 95.8823 22.8984 95.2842 22.661 94.9282C22.2593 94.3403 21.8026 93.6135 22.117 92.8864C22.2427 92.5956 22.3894 92.2563 22.6881 92.0977C22.6811 92.0869 22.6717 92.0778 22.6607 92.0711C22.6497 92.0643 22.6373 92.0601 22.6245 92.0587C22.403 91.9055 22.309 91.8303 22.0818 91.7436C21.5819 91.5159 20.7097 91.9098 19.9169 91.7741C19.1031 91.6869 18.3529 90.8677 18.5758 90.0318C18.7398 89.4929 19.2098 89.0977 19.7016 88.8386C19.0859 88.3998 18.2634 88.4124 17.6107 87.8195C17.149 87.3437 17.9764 87.0801 18.3084 86.9244C18.5709 86.7963 19.1227 86.425 19.5581 86.4292C19.6095 86.4169 19.6579 86.4378 19.7093 86.4255L19.6941 86.4074C19.66 86.2201 19.6469 85.9843 19.7792 85.8114C20.3294 85.0712 22.2659 85.3561 23.1334 85.9844L23.1182 85.9663C22.8732 85.5093 22.8001 84.9796 22.9122 84.4734C23.0905 83.9904 23.4204 83.5782 23.8526 83.2983C24.2847 83.0185 24.7958 82.8861 25.3094 82.9209L25.3427 82.9237C25.1742 82.7902 25.0131 82.6475 24.8601 82.4965C24.5988 82.263 24.313 82.0584 24.0077 81.8863C22.9681 81.3102 21.7303 81.0858 20.7897 80.3338C20.5712 80.1473 20.2701 79.7525 20.5442 79.4913C20.7762 79.3269 21.0881 79.4042 21.3543 79.4273C21.899 79.5247 22.5522 79.5308 23.0534 79.3564C23.6544 79.1906 24.2365 78.8554 24.884 78.9282C24.952 78.8713 25.0091 78.8023 25.0525 78.7249C25.708 77.9268 26.8055 77.8373 27.7819 77.7876C28.4561 77.7454 29.0058 77.5921 29.5337 77.3023C30.6771 76.6805 31.7428 75.5994 33.1186 75.5844C33.4252 75.584 33.7272 75.6586 33.9982 75.8019C34.2693 75.9452 34.5011 76.1526 34.6734 76.4062C35.0903 77.0122 34.9609 77.9229 34.2184 78.1772C33.3245 78.435 32.8871 77.2909 32.1484 77.1096C32.0667 77.0858 31.8186 77.0475 31.6978 77.0874C31.5381 77.1441 31.3891 77.2276 31.2574 77.3342C31.0766 77.4862 30.9262 77.6743 30.7331 77.7749C30.7787 77.8292 30.8063 77.8986 30.7282 78.0259C30.4664 78.3385 30.0129 78.3496 29.6781 78.5385C29.2586 78.7368 28.7648 79.2137 28.404 79.7021C28.0823 80.1268 27.8164 80.8751 27.5193 81.4023C27.2763 81.8486 26.9397 82.2369 26.5324 82.5408C26.4562 82.5994 26.3732 82.6485 26.2851 82.687C26.2868 83.0559 26.3064 83.4096 26.3109 83.745C26.329 83.7298 26.3623 83.7327 26.3803 83.7175C26.5344 83.6647 26.6814 83.5929 26.8178 83.5039C27.2433 83.2391 27.6133 82.8352 28.1087 82.7273C28.3987 82.6686 28.7134 82.7126 28.95 82.8839C29.1714 83.0372 29.3661 83.3054 29.3763 83.5745C29.4359 84.049 29.1474 84.4766 28.8951 84.874C28.7751 85.0983 28.6884 85.3255 28.7254 85.4795C28.7738 85.6012 28.8674 85.6994 28.9866 85.7535C29.1834 85.8041 29.4069 85.7396 29.7301 85.6838C29.7966 85.6689 29.8648 85.6635 29.9327 85.6678L29.9442 85.5348C29.9714 84.8333 30.4862 84.3077 31.1879 84.335C32.6512 84.2775 33.7227 86.616 31.8522 86.9235C31.5803 86.967 31.2751 87.0077 31.0088 86.9846C31.0364 87.1639 31.0544 87.3445 31.0626 87.5256C31.1635 87.5778 31.254 87.6482 31.3296 87.7331C31.5756 87.9891 31.5953 88.3426 31.5665 88.6755C31.5259 89.1533 31.3011 89.5966 30.9397 89.9118C30.5239 90.2613 30.037 90.2694 29.7364 90.6457C29.607 90.7854 29.5659 91.0668 29.5999 91.2541C29.6615 91.5108 29.7715 91.7889 29.7818 92.0576C29.7947 92.2314 29.7739 92.4061 29.7205 92.572L30.1765 93.1143L30.2307 93.0687C30.578 92.8358 30.913 92.585 31.2343 92.3175C31.8726 91.719 32.2784 91.1004 32.6316 90.3096C32.7154 90.1157 32.7993 89.9218 32.865 89.7432C32.173 88.4429 33.4835 88.0199 33.4113 86.723C33.3985 86.45 33.366 86.1783 33.314 85.91C33.1185 85.6535 32.9998 85.3468 32.9715 85.0255C32.9547 84.6385 33.053 84.278 32.9306 83.9492C32.8263 83.6049 32.6193 83.2853 32.651 82.9193C32.6638 82.384 33.2892 82.3208 33.6953 82.4733C34.4795 82.7087 35.117 83.2836 35.5462 83.9409C35.8263 84.3842 36.0189 84.8702 36.0574 85.3932C36.0546 85.4265 36.0698 85.4445 36.0517 85.4597C36.2435 85.4226 36.4293 85.3598 36.6043 85.2729C36.6375 85.2758 36.942 85.0507 37.093 85.047C37.3234 85.0245 37.5547 85.08 37.7499 85.2044C38.2354 85.5985 38.3803 86.2479 38.6337 86.8063C39.058 87.7148 39.4765 88.6895 39.3358 89.7333C39.3272 89.8332 39.3033 89.9149 39.2947 90.0148C39.5577 90.001 39.8212 90.0295 40.0752 90.099C40.4326 90.2305 40.7871 90.3954 41.0303 90.6846C41.1313 90.8507 41.1879 91.0401 41.1945 91.2345C41.2012 91.4288 41.1577 91.6216 41.0683 91.7943C40.8074 92.2914 40.3879 92.4897 40.0539 92.8631C39.6143 93.2944 39.6327 94.0503 39.2481 94.6204C38.9778 95.0328 38.6437 95.4062 38.2185 95.6711C38.1823 95.7015 38.1128 95.729 38.0767 95.7594C38.1071 95.7956 38.1194 95.8469 38.1498 95.8831C38.2324 96.0914 38.3272 96.351 38.409 96.3749C38.6875 96.4492 39.1518 96.1207 39.6147 96.1943C40.341 96.3242 40.9033 96.9931 40.9398 97.7337C40.9335 98.3869 40.4976 98.9694 40.2244 99.4151C40.1383 99.5449 40.0698 99.6855 40.0205 99.8332C40.9923 100.034 41.895 100.448 42.6417 101.116C43.1063 101.559 43.6288 102.107 43.6529 102.796C43.6076 103.513 42.8381 103.882 42.4868 104.455C42.3306 104.71 42.2752 105.158 42.3642 105.484C42.4886 106.115 42.7009 106.726 42.995 107.298C43.3215 107.98 43.7478 108.671 43.6968 109.455C43.6763 109.712 43.6033 109.962 43.4823 110.191C43.4613 110.239 43.4222 110.303 43.4013 110.351C43.7828 111.172 44.1491 111.975 44.4945 112.826C45.0752 114.251 45.5713 115.685 46.0825 117.137C46.1219 117.142 46.1619 117.14 46.2004 117.131C47.2584 117.105 48.6652 117.897 48.3589 119.111C48.3033 119.433 48.1855 119.742 48.0121 120.02C47.994 120.035 47.9731 120.083 47.955 120.098C48.2236 120.285 48.4638 120.509 48.6685 120.764C49.1433 121.475 49.2232 122.488 48.8062 123.24C48.7143 123.383 48.6129 123.52 48.5025 123.649L48.4302 123.71C48.6351 124.247 48.84 124.785 49.0627 125.307C49.9965 125.17 50.2594 125.813 50.7999 126.345C51.0611 126.619 51.3549 126.712 51.5661 126.596C51.8647 126.438 51.8964 126.072 51.7806 125.86C51.5071 125.535 50.8958 125.432 50.4444 125.225C50.0718 125.075 49.7106 124.793 49.5427 124.409C49.3804 123.961 49.3584 123.474 49.4794 123.013C49.5978 122.419 50.3264 120.974 51.0708 121.089C51.1377 120.815 51.2813 120.565 51.4848 120.37C52.1413 119.756 53.2168 119.531 54.0141 120.002C54.2384 120.122 54.4598 120.275 54.5937 120.471C54.7411 120.724 54.8311 121.007 54.8573 121.299C54.8751 121.347 54.8764 121.4 54.861 121.45C54.967 121.446 55.0731 121.449 55.1786 121.461C55.6567 121.552 56.2963 121.909 56.6385 122.023C57.0472 122.142 57.4952 122.197 57.8409 122.462C58.6874 123.139 58.7436 124.233 58.2455 125.145C58.1646 125.306 58.0684 125.449 57.9904 125.576C58.5539 125.843 59.0995 126.125 59.663 126.391C60.7512 126.988 61.3018 127.79 60.8496 128.757C61.7656 129.406 62.4091 130.685 61.815 131.74C61.2352 132.629 60.0389 132.894 59.4099 133.577C59.1329 133.871 58.8712 134.184 58.5212 134.355C58.2314 134.473 57.9161 134.515 57.6055 134.477C57.5693 134.507 57.5303 134.571 57.4941 134.601C57.1507 134.89 56.6668 134.865 56.2579 134.746C55.6343 134.591 55.2051 133.934 54.7081 133.673C54.5627 133.61 54.342 133.641 54.2003 133.73C53.9197 133.873 53.6514 134.068 53.3436 134.141C53.7279 134.929 54.1095 135.75 54.4577 136.568C55.6848 139.239 56.2871 142.157 57.5143 144.828C57.9053 145.733 58.4741 146.52 59.1037 147.379C59.142 147.131 59.2135 146.886 59.382 146.683C59.7189 146.276 60.1441 146.011 60.366 145.578C60.684 145.002 60.6295 144.276 61.0445 143.742C61.7602 142.832 63.2007 143.041 63.9567 143.793C64.3785 144.148 64.5074 144.595 64.5337 145.067C65.3356 144.516 66.168 144.001 67.1322 143.9C67.9452 143.803 68.9746 144.11 69.3077 144.91C69.4345 145.575 68.9653 146.154 68.6986 146.718C68.5006 147.07 68.4023 147.43 68.3191 147.808L68.3524 147.811C69.0512 147.872 69.768 147.917 70.4755 147.878C71.1799 147.871 71.9835 147.69 72.6383 148.065C73.0868 148.305 73.3251 148.845 73.1003 149.312C72.6058 150.375 71.1833 150.738 70.0918 150.761C68.9188 150.76 67.9991 150.73 67.0743 151.539C66.7822 151.815 66.331 152.379 65.9485 152.732C65.4908 153.178 64.9847 153.604 64.3903 153.888C64.3274 153.906 64.2681 153.935 64.2153 153.973C65.0634 155.019 65.9087 156.098 66.6846 157.204C66.7881 157.364 66.9249 157.526 67.0103 157.701C67.0349 157.804 66.9113 157.877 66.8086 157.902C66.5033 157.943 66.3962 157.632 66.2623 157.436C65.891 156.884 65.4684 156.344 65.061 155.823C63.7047 154.063 62.2732 152.397 60.9351 150.622C59.7822 149.03 58.4904 147.494 57.4973 145.798C57.2652 145.963 57.0055 146.058 56.7886 146.24C56.4661 146.48 56.0482 147.047 56.0411 147.516C55.9473 148.212 56.135 148.949 56.4245 149.477C56.717 149.972 57.0628 150.236 57.5677 150.213C57.6676 150.222 57.8997 150.058 57.8264 149.934C57.7505 149.843 57.702 149.823 57.5508 149.826C57.4662 149.836 57.3931 149.712 57.4806 149.669C57.5681 149.627 57.6498 149.65 57.7344 149.641C58.1128 149.724 58.2656 150.089 57.8794 150.291C57.5446 150.48 57.1026 150.358 56.7811 150.196C56.1017 149.718 55.8077 148.854 55.759 148.062C55.7154 147.69 55.7718 147.313 55.9223 146.969C56.0728 146.626 56.312 146.329 56.6153 146.108C56.8294 145.959 57.0405 145.843 57.2698 145.712C56.8249 145.624 56.3418 145.783 55.7855 145.819C55.6676 145.825 55.5526 145.798 55.4348 145.805L55.4651 145.841C55.5259 145.913 55.7177 146.215 55.7518 146.402C56.0343 147.399 54.8988 147.736 54.1249 147.77C53.3147 147.834 52.5695 147.535 51.9085 147.813C51.6562 147.899 51.4228 148.032 51.2208 148.206C51.4603 148.344 51.7179 148.467 51.9573 148.605C52.7271 149.007 53.4912 149.475 53.9269 150.251C54.4539 151.134 54.7306 152.197 54.4597 153.197C54.3175 153.871 53.9214 154.575 53.2271 154.85C52.6774 155.003 52.3078 154.821 52.0551 154.447C52.2025 155.65 51.9788 157.072 51.1178 157.919C50.4946 158.536 49.5262 159.072 48.6568 158.661C48.2561 158.481 47.9196 158.183 47.6916 157.807C47.4295 157.348 47.3491 156.922 46.9576 156.604C46.6725 156.411 46.3854 156.437 46.0434 156.323C45.8341 156.24 45.6467 156.11 45.4955 155.942C45.3444 155.775 45.2335 155.576 45.1714 155.359C45.1221 155.154 45.0881 154.967 45.0568 154.746C44.8 154.808 44.5252 154.884 44.2019 154.94C43.5522 155.085 43.0634 154.54 42.5358 154.243C42.2202 154.014 41.4751 153.715 41.3092 153.114ZM35.5305 111.815L35.5666 111.785C35.6512 111.775 35.7084 111.696 35.7502 111.599C35.8899 111.357 35.9919 111.094 36.0525 110.821C36.147 110.31 36.0961 109.735 35.798 109.307C35.4999 108.879 35.0397 108.772 34.5813 109.034C34.2645 109.208 33.6815 109.359 33.7743 109.836C34.0277 110.394 34.6368 110.715 34.9626 111.213C35.0606 111.327 35.1454 111.453 35.2151 111.587C35.3034 111.728 35.3555 111.901 35.5306 111.815H35.5305ZM34.634 96.8025C34.8292 96.4842 35.339 96.2099 35.535 96.0759C35.7548 95.8603 35.9081 95.6389 35.9796 95.3937C35.2488 94.9279 34.2564 94.7752 33.5764 94.884C33.2018 94.9521 32.9885 95.2856 32.7782 95.5859C33.3187 96.1188 33.8564 96.6849 34.3788 97.233C34.4409 97.077 34.527 96.9318 34.6341 96.8025H34.634ZM32.582 97.0775C32.0121 97.464 32.1852 98.3674 32.7315 98.8337C33.178 99.2914 34.0259 99.566 34.5302 100.129C34.8522 100.476 35.0173 100.892 35.2851 101.284C35.3431 101.39 35.4798 101.552 35.5529 101.676C35.6207 101.625 35.677 101.56 35.7181 101.485C35.7593 101.411 35.7843 101.329 35.7916 101.244C35.799 101.159 35.7884 101.074 35.7607 100.994C35.733 100.913 35.6887 100.84 35.6307 100.778C35.5553 100.682 35.4588 100.604 35.3485 100.552C35.4081 100.658 35.4437 100.775 35.4528 100.896C35.4706 100.945 35.4719 100.998 35.4565 101.047C35.3994 101.126 35.1997 101.109 35.2083 101.009C35.1829 100.722 35.0121 100.372 34.7328 100.113C34.4013 99.6822 33.2723 99.3666 33.4258 98.5586C33.4879 98.2287 33.6773 97.9769 33.9123 97.7793L34.0569 97.6578C33.7653 97.3476 33.4736 97.0373 33.1972 96.7452C33.0045 96.8459 32.7629 96.9255 32.5821 97.0773L32.582 97.0775ZM23.6641 86.4328C23.8814 87.0215 23.8122 87.8201 24.3064 88.1143C24.4518 88.1772 24.4786 88.0622 24.435 87.7902C24.4125 87.4697 24.2264 87.1016 23.9833 86.8124C23.895 86.6707 23.7705 86.5593 23.6641 86.4328ZM36.0963 90.174C35.948 90.1444 35.6941 90.1727 35.6768 90.3723C35.6509 90.6718 35.6582 90.9742 35.7864 91.2367C35.8443 91.3423 35.8812 91.4964 36.0172 91.4746L36.0353 91.4594C36.0476 91.5107 36.1294 91.5346 36.1807 91.5223C36.2986 91.5157 36.3253 91.4007 36.3491 91.319C36.4387 91.0585 36.5341 90.7316 36.406 90.469C36.3927 90.3932 36.3555 90.3236 36.2997 90.2705C36.244 90.2173 36.1727 90.1835 36.0963 90.174ZM41.0993 122.036C41.2311 122.45 41.669 123.007 42.0683 123.042C42.5276 122.964 42.2611 122.17 41.96 121.775C41.7682 121.474 41.3254 121.167 41.007 120.972C41.0086 121.341 41.0102 121.71 41.0993 122.036ZM48.0261 123.926C47.6551 124.145 47.1958 124.223 46.7783 124.204C46.8053 124.86 46.7991 125.513 46.4962 126.107C46.1001 126.81 45.2497 127.34 44.6324 126.532C44.5412 126.424 44.4681 126.3 44.3921 126.21C44.0507 126.281 43.6999 126.267 43.4402 126.362C42.8428 126.679 42.9734 127.495 43.6064 127.734C44.0606 127.908 44.5541 128.017 44.9065 128.4C45.1193 128.653 45.2778 128.952 45.5087 129.189L45.5846 129.28L45.5876 129.247C45.5678 128.893 45.2906 128.416 45.3281 127.984C45.442 127.055 46.3315 126.461 47.0857 126.074C47.5055 125.876 47.7879 125.515 48.2377 125.353C48.3405 125.328 48.4612 125.288 48.5639 125.263C48.3714 124.777 48.1912 124.343 48.0261 123.926ZM62.4006 151.704C62.5253 151.847 62.6411 151.997 62.7472 152.153L62.8138 152.159C62.9953 152.192 63.1617 152.206 63.2644 152.181C63.4851 152.15 63.8379 151.946 63.8552 151.746C63.8955 151.281 63.311 151.062 62.8756 151.058C62.7757 151.049 62.4467 151.172 62.3408 151.23C62.2714 151.257 62.2171 151.303 62.1296 151.346C62.2109 151.472 62.3014 151.592 62.4006 151.704V151.704Z" fill="url(#paint2_linear_282_4373)"/>
<path fill-rule="evenodd" clip-rule="evenodd" d="M82.861 50.4879C82.953 50.3454 83.1456 50.1758 83.3632 49.9972C84.0076 49.4726 84.9283 48.9156 85.0162 48.8561C86.4139 47.9343 87.8828 47.0887 89.2931 46.1774C89.904 45.7802 90.5067 45.3711 91.0883 44.9374C91.2766 44.7942 92.5321 43.9387 92.8041 43.328C92.8719 43.1847 92.891 43.0231 92.8585 42.868C92.8357 42.7849 92.7956 42.7076 92.7408 42.6411C92.686 42.5746 92.6177 42.5205 92.5405 42.4823C92.2476 42.3228 91.8416 42.2763 91.398 42.3102C90.5653 42.3735 89.5776 42.7085 89.0712 42.8445C87.3903 43.3034 85.735 43.8514 84.1123 44.4861C82.4801 45.1159 80.8816 45.8101 79.3081 46.5223C74.8303 48.5513 70.4195 50.7401 66.1509 53.1179C61.8238 55.5304 57.6432 58.1385 53.6969 60.9767C51.8933 62.2712 49.9055 63.6536 48.1939 65.2107C46.9887 66.309 45.9215 67.4952 45.1473 68.7954C45.1194 68.8427 45.101 68.895 45.0932 68.9493C45.0854 69.0037 45.0885 69.0591 45.1021 69.1123C45.1157 69.1655 45.1397 69.2155 45.1727 69.2594C45.2056 69.3033 45.2469 69.3404 45.2942 69.3683C45.3414 69.3963 45.3938 69.4147 45.4481 69.4225C45.5025 69.4302 45.5579 69.4272 45.6111 69.4136C45.6643 69.3999 45.7143 69.3759 45.7582 69.343C45.8021 69.31 45.8391 69.2687 45.8671 69.2215C46.5952 67.984 47.6036 66.8566 48.7421 65.8082C50.4203 64.2623 52.3746 62.8888 54.1448 61.6012C58.0576 58.7587 62.2005 56.143 66.49 53.7229C70.7293 51.3328 75.115 49.1339 79.5676 47.0916C81.1243 46.3786 82.7104 45.6828 84.3299 45.0514C85.9318 44.4187 87.5662 43.8717 89.2261 43.4126C89.6488 43.2983 90.4147 43.0349 91.1345 42.9263C91.5697 42.8603 91.984 42.8401 92.2601 42.9908C92.3397 43.0335 92.2769 43.102 92.2267 43.1806C92.1105 43.3516 91.9727 43.5068 91.8166 43.6424C91.3897 44.0363 90.8582 44.3932 90.7452 44.4793C90.176 44.9065 89.5819 45.3099 88.9834 45.7013C87.5731 46.6166 86.1084 47.4647 84.7107 48.3898C84.5935 48.467 83.1623 49.3419 82.5764 49.9588C82.4571 50.0764 82.3618 50.2163 82.2961 50.3705C82.2082 50.6143 82.2709 50.8048 82.4928 50.93C82.9197 51.1649 83.6729 51.1674 84.5391 51.0216C86.1126 50.7558 88.0837 50.0436 88.8161 49.8544C92.2477 48.973 95.6791 48.0865 99.1526 47.3359C101.45 46.8383 103.768 46.4011 106.112 46.0623C114.36 44.8758 123.232 44.5828 131.991 45.299C140.783 46.0183 149.463 47.7551 157.271 50.6132C157.323 50.6318 157.378 50.6402 157.433 50.6376C157.488 50.6351 157.542 50.6218 157.591 50.5985C157.641 50.5752 157.686 50.5423 157.723 50.5017C157.76 50.4611 157.788 50.4136 157.807 50.362C157.826 50.3103 157.834 50.2555 157.832 50.2006C157.829 50.1457 157.816 50.0918 157.793 50.0421C157.769 49.9924 157.736 49.9477 157.696 49.9107C157.655 49.8736 157.608 49.845 157.556 49.8263C149.672 46.9874 140.913 45.2852 132.045 44.6015C123.236 43.923 114.314 44.2487 106.024 45.4755C103.672 45.823 101.341 46.2707 99.027 46.7761C95.5536 47.5363 92.1137 48.4281 88.6779 49.3167C87.954 49.5043 86.0038 50.2122 84.4471 50.4748C83.7942 50.5842 83.2208 50.6293 82.861 50.4879ZM174.785 154.004C177.279 153.607 179.832 152.781 182.196 151.594C184.561 150.405 186.737 148.857 188.452 146.981C190.076 145.243 191.252 143.055 192.767 141.194C193.399 140.416 194.093 139.698 194.909 139.097C195.725 138.494 196.634 138.093 197.588 137.819C198.55 137.542 199.563 137.398 200.571 137.314C200.682 137.303 200.783 137.249 200.853 137.163C200.923 137.078 200.957 136.968 200.946 136.858C200.936 136.748 200.882 136.646 200.797 136.575C200.712 136.505 200.602 136.471 200.492 136.481C199.433 136.595 198.374 136.775 197.366 137.09C196.341 137.411 195.366 137.871 194.491 138.546C193.646 139.197 192.93 139.969 192.273 140.8C190.796 142.674 189.645 144.858 188.046 146.604C186.356 148.406 184.226 149.896 181.907 151.009C179.619 152.102 177.175 152.832 174.663 153.175C174.608 153.182 174.554 153.2 174.506 153.228C174.458 153.255 174.415 153.293 174.381 153.337C174.347 153.381 174.323 153.432 174.309 153.486C174.295 153.54 174.292 153.596 174.3 153.652C174.308 153.707 174.327 153.76 174.356 153.808C174.385 153.855 174.423 153.897 174.468 153.93C174.513 153.962 174.565 153.986 174.619 153.998C174.673 154.011 174.73 154.013 174.785 154.003L174.785 154.004Z" fill="#E3DBF9"/>
<path fill-rule="evenodd" clip-rule="evenodd" d="M106.135 117.296C110.335 127.783 124.75 144.446 137.7 144.444C156.407 144.445 176.433 95.4553 176.433 95.4553C183.994 90.3066 179.365 83.1576 175.949 77.1636L170.744 90.0115C170.744 90.0115 148.225 121.506 138.52 120.087C128.813 118.671 117.903 81.9762 112.506 81.5105C107.109 81.0447 101.937 106.805 106.135 117.296Z" fill="#FB9C9A"/>
<mask id="mask0_282_4373" style="mask-type:luminance" maskUnits="userSpaceOnUse" x="104" y="77" width="77" height="68">
<path d="M106.135 117.296C110.335 127.783 124.75 144.446 137.7 144.444C156.407 144.445 176.433 95.4553 176.433 95.4553C183.994 90.3066 179.365 83.1576 175.949 77.1636L170.744 90.0115C170.744 90.0115 148.225 121.506 138.52 120.087C128.813 118.671 117.903 81.9762 112.506 81.5105C107.109 81.0447 101.937 106.805 106.135 117.296Z" fill="white"/>
</mask>
<g mask="url(#mask0_282_4373)">
<path fill-rule="evenodd" clip-rule="evenodd" d="M160.826 91.269C150.929 78.4991 145.011 60.2938 128.377 54.6121C116.705 50.6253 106.214 56.6572 99.6018 66.3045C89.3072 81.3276 85.9801 102.884 91.952 120.148C100.527 144.935 129.561 153.309 152.398 143.675C159.474 140.689 166.509 136.217 170.43 129.403C173.36 124.313 176.126 114.248 170.974 109.381C169.275 107.775 166.413 108.451 164.956 106.6C163.847 105.193 164.391 103.321 163.747 101.75C162.697 99.1742 158.717 98.6003 156.285 98.9097L160.826 91.269Z" fill="url(#paint3_linear_282_4373)"/>
</g>
<path fill-rule="evenodd" clip-rule="evenodd" d="M104.46 130.651C110.451 123.366 119.583 92.052 114.913 83.2643C110.243 74.4766 85.4814 65.1073 76.4405 77.924C68.495 89.1864 74.3005 118.183 78.9705 126.971C82.997 134.552 99.0075 137.282 104.46 130.651Z" fill="url(#paint4_linear_282_4373)"/>
<path fill-rule="evenodd" clip-rule="evenodd" d="M102.553 91.4979C102.238 90.6638 101.604 89.989 100.792 89.6219C99.9793 89.2547 99.0542 89.2252 98.22 89.5398L51.004 107.36C50.5912 107.516 50.2131 107.752 49.8914 108.054C49.5697 108.356 49.3107 108.719 49.129 109.121C48.9474 109.523 48.8468 109.957 48.833 110.398C48.8191 110.839 48.8923 111.279 49.0483 111.692L76.9145 185.524C77.229 186.358 77.8618 187.033 78.6737 187.4C79.4857 187.768 80.4103 187.797 81.2443 187.483L128.46 169.663C129.294 169.348 129.969 168.714 130.336 167.902C130.703 167.09 130.733 166.165 130.419 165.33L102.553 91.4979Z" fill="white"/>
<path fill-rule="evenodd" clip-rule="evenodd" d="M66.9176 114.66C66.8351 114.441 66.6692 114.265 66.4565 114.168C66.2438 114.072 66.0017 114.064 65.7832 114.147L57.6594 117.213C57.4411 117.295 57.2645 117.461 57.1684 117.674C57.0722 117.887 57.0645 118.129 57.1468 118.347L57.1471 118.348C57.2296 118.566 57.3954 118.743 57.6081 118.839C57.8208 118.935 58.063 118.943 58.2814 118.861L66.4052 115.795C66.6235 115.712 66.8001 115.546 66.8963 115.333C66.9924 115.121 67.0001 114.879 66.9178 114.66L66.9176 114.66ZM65.641 111.277C65.5585 111.059 65.3927 110.882 65.18 110.786C64.9673 110.69 64.7252 110.682 64.5067 110.764L56.3829 113.831C56.1645 113.913 55.9879 114.079 55.8918 114.292C55.7957 114.504 55.788 114.747 55.8703 114.965V114.966C55.9528 115.184 56.1187 115.361 56.3313 115.457C56.544 115.553 56.7862 115.561 57.0046 115.478L65.1286 112.412C65.347 112.33 65.5236 112.164 65.6197 111.951C65.7158 111.739 65.7236 111.497 65.6412 111.278L65.641 111.277Z" fill="#E3E3FE"/>
<path fill-rule="evenodd" clip-rule="evenodd" d="M102.412 91.1249C102.275 90.7609 102.067 90.4276 101.801 90.1439C101.535 89.8603 101.215 89.6318 100.861 89.4716C100.506 89.3114 100.124 89.2227 99.7348 89.2103C99.346 89.198 98.9586 89.2624 98.5947 89.3999L50.6332 107.502C50.2692 107.639 49.9359 107.846 49.6522 108.113C49.3684 108.379 49.1399 108.698 48.9797 109.053C48.8195 109.407 48.7306 109.79 48.7182 110.178C48.7058 110.567 48.7702 110.955 48.9075 111.319V111.319C49.0449 111.683 49.2526 112.016 49.5188 112.3C49.785 112.584 50.1044 112.812 50.4589 112.972C50.8134 113.133 51.196 113.221 51.5848 113.234C51.9736 113.246 52.361 113.182 52.7249 113.044L100.686 94.9425C101.05 94.8052 101.384 94.5976 101.667 94.3314C101.951 94.0653 102.18 93.7459 102.34 93.3914C102.5 93.037 102.589 92.6544 102.601 92.2656C102.614 91.8768 102.549 91.4894 102.412 91.1254V91.1249Z" fill="white"/>
<path fill-rule="evenodd" clip-rule="evenodd" d="M89.7699 133.841C89.7392 133.844 89.7084 133.837 89.6821 133.821C89.6559 133.805 89.6357 133.781 89.6247 133.752L83.7971 118.311C83.5413 117.635 83.0274 117.087 82.3682 116.789C81.7091 116.491 80.9586 116.467 80.2817 116.723L80.2796 116.723C79.9445 116.85 79.6375 117.041 79.3764 117.286C79.1152 117.531 78.9049 117.825 78.7575 118.152C78.6101 118.478 78.5285 118.83 78.5174 119.188C78.5062 119.546 78.5658 119.903 78.6926 120.238L84.5676 135.804V135.804L84.5654 135.805L84.3096 135.902C84.2389 135.929 84.1606 135.929 84.09 135.902C84.0193 135.875 83.9612 135.822 83.927 135.755C83.2013 134.344 79.5161 127.172 77.6423 123.528C77.4985 123.248 77.3009 122.999 77.0608 122.795C76.8208 122.591 76.5429 122.437 76.2432 122.34C75.9434 122.244 75.6276 122.208 75.3138 122.233C75 122.259 74.6943 122.346 74.4143 122.49C74.4121 122.491 74.4121 122.491 74.4122 122.491C74.132 122.635 73.8828 122.833 73.679 123.073C73.4752 123.313 73.3207 123.591 73.2243 123.891C73.1279 124.191 73.0916 124.507 73.1173 124.821C73.1431 125.135 73.2304 125.441 73.3744 125.721C74.6136 128.131 76.6653 132.123 78.2599 135.226C79.7916 138.208 81.1525 141.275 82.3362 144.412C82.3362 144.412 80.1148 142.149 78.3756 140.376C77.8338 139.825 77.0954 139.512 76.3226 139.505C75.5498 139.498 74.8058 139.798 74.2542 140.339V140.34C73.9817 140.607 73.7648 140.926 73.6162 141.278C73.4675 141.63 73.3901 142.008 73.3882 142.39C73.3864 142.772 73.4603 143.151 73.6055 143.504C73.7508 143.857 73.9646 144.179 74.2346 144.449C76.1828 146.401 79.1957 149.415 81.8329 152.058C83.4568 153.683 85.5153 154.806 87.7614 155.291C90.0075 155.775 92.3458 155.601 94.4955 154.79C100.725 152.439 103.87 145.483 101.519 139.254L100.508 136.577C100.508 136.577 99.4974 126.141 99.0311 121.321C98.9695 120.688 98.6589 120.105 98.1677 119.701C97.6764 119.297 97.0447 119.104 96.4115 119.166V119.165C95.7782 119.227 95.1951 119.537 94.7905 120.028C94.3859 120.519 94.1929 121.151 94.2539 121.784C94.6038 125.383 95.2235 131.783 95.2235 131.783L95.1757 131.801C95.1266 131.807 95.0771 131.795 95.0362 131.767C94.9953 131.739 94.9656 131.698 94.9526 131.65C94.5916 130.267 92.5731 122.536 91.4827 118.361C91.2972 117.651 90.8375 117.044 90.2046 116.673C89.5718 116.302 88.8176 116.198 88.1078 116.383L88.1057 116.383C87.7542 116.475 87.4242 116.635 87.1346 116.854C86.845 117.074 86.6015 117.348 86.418 117.661C86.2344 117.975 86.1144 118.321 86.0649 118.681C86.0154 119.041 86.0372 119.407 86.1293 119.759C87.3644 124.488 89.8025 133.829 89.8025 133.829L89.7699 133.841Z" fill="url(#paint5_linear_282_4373)"/>
<path fill-rule="evenodd" clip-rule="evenodd" d="M120.395 152.95L122.492 158.505C122.805 159.335 122.776 160.255 122.411 161.062C122.045 161.87 121.374 162.5 120.545 162.813L114.681 165.026L114.135 163.579L119.999 161.365C120.22 161.282 120.422 161.156 120.594 160.995C120.766 160.834 120.905 160.64 121.003 160.425C121.1 160.21 121.154 159.978 121.162 159.742C121.169 159.507 121.131 159.272 121.047 159.051L118.951 153.495L120.395 152.95ZM77.5273 169.13L79.6238 174.685C79.7068 174.906 79.8325 175.108 79.9937 175.28C80.1549 175.452 80.3485 175.59 80.5633 175.688C80.7781 175.785 81.01 175.838 81.2456 175.846C81.4813 175.853 81.7161 175.814 81.9366 175.731L87.8009 173.518L88.3472 174.966L82.4828 177.179C81.6534 177.492 80.7336 177.462 79.9259 177.097C79.1181 176.732 78.4884 176.061 78.1753 175.232L76.0785 169.676L77.5273 169.13ZM67.4451 119.584L67.9916 121.032L62.1273 123.245C61.9066 123.328 61.7046 123.454 61.5326 123.615C61.3607 123.776 61.2222 123.97 61.1251 124.185C61.0281 124.4 60.9743 124.632 60.967 124.867C60.9596 125.103 60.9988 125.338 61.0823 125.558L63.179 131.113L61.7307 131.66L59.634 126.105C59.3211 125.275 59.3504 124.356 59.7155 123.548C60.0805 122.74 60.7515 122.11 61.5808 121.797L67.4451 119.584ZM93.7786 109.645L99.6429 107.431C100.472 107.119 101.392 107.148 102.2 107.513C103.008 107.878 103.637 108.549 103.951 109.379L106.047 114.934L104.602 115.479L102.506 109.924C102.422 109.703 102.296 109.501 102.134 109.329C101.973 109.157 101.779 109.019 101.564 108.922C101.349 108.825 101.117 108.771 100.881 108.764C100.645 108.757 100.41 108.796 100.189 108.879L94.3251 111.093L93.7786 109.645Z" fill="#E3E3FE"/>
<path d="M81.5361 163.324C81.8176 163.218 82.0761 163.235 82.3115 163.377C82.5914 163.543 82.8356 163.903 83.0442 164.455C83.2522 165.007 83.3034 165.44 83.2045 165.753C83.1235 166.01 82.9405 166.193 82.659 166.299C82.5285 166.353 82.3871 166.374 82.2465 166.363C82.1058 166.351 81.9701 166.305 81.8504 166.231C81.5917 166.079 81.3604 165.723 81.1493 165.163C80.9423 164.615 80.8883 164.184 80.9872 163.872C81.0716 163.613 81.2546 163.43 81.5361 163.324ZM81.7108 163.787C81.644 163.812 81.5879 163.859 81.5521 163.921C81.5138 164.008 81.5017 164.104 81.5173 164.198C81.5345 164.357 81.606 164.608 81.735 164.95C81.864 165.292 81.9696 165.52 82.0518 165.635C82.1373 165.749 82.2102 165.818 82.2804 165.84C82.3467 165.863 82.419 165.862 82.4842 165.836C82.5499 165.812 82.6049 165.765 82.6394 165.704C82.6807 165.617 82.6928 165.52 82.6739 165.426C82.6606 165.267 82.5862 165.019 82.4571 164.677C82.328 164.335 82.2225 164.107 82.1404 163.992C82.0582 163.877 81.9818 163.808 81.9147 163.784C81.8485 163.761 81.7763 163.762 81.7108 163.787ZM83.7984 162.47C84.0799 162.364 84.3384 162.381 84.5738 162.523C84.8537 162.689 85.0979 163.049 85.3065 163.602C85.5145 164.153 85.5691 164.585 85.4702 164.898C85.3859 165.157 85.2029 165.339 84.9213 165.445C84.7907 165.499 84.6494 165.52 84.5088 165.508C84.3683 165.496 84.2326 165.451 84.1128 165.377C83.8575 165.224 83.6227 164.869 83.4116 164.31C83.2046 163.761 83.1506 163.331 83.2529 163.017C83.3339 162.759 83.5169 162.576 83.7984 162.47ZM83.9731 162.933C83.907 162.957 83.8519 163.004 83.8179 163.066C83.7767 163.152 83.7633 163.25 83.7797 163.344C83.7969 163.503 83.8717 163.753 84.0008 164.094C84.1299 164.436 84.2354 164.665 84.3175 164.78C84.3997 164.895 84.4759 164.963 84.5428 164.986C84.6093 165.008 84.6813 165.007 84.7467 164.982C84.8121 164.957 84.8669 164.91 84.9019 164.85C84.9431 164.763 84.9564 164.665 84.94 164.571C84.9233 164.414 84.8522 164.164 84.7232 163.822C84.5942 163.48 84.4886 163.252 84.4064 163.137C84.3209 163.023 84.2479 162.953 84.1774 162.93C84.1111 162.906 84.0385 162.907 83.973 162.933H83.9731ZM87.6498 164.359L87.0936 164.569L86.2992 162.464C86.1651 162.735 85.973 162.972 85.7366 163.16L85.5453 162.653C85.6945 162.525 85.8204 162.373 85.9178 162.202C86.0336 162.024 86.095 161.816 86.0946 161.603L86.5457 161.433L87.6498 164.359ZM89.6916 163.588L89.132 163.799L88.3377 161.695C88.2036 161.965 88.0114 162.203 87.775 162.39L87.5838 161.884C87.7329 161.756 87.8589 161.604 87.9562 161.433C88.072 161.255 88.1334 161.047 88.133 160.834L88.5873 160.662L89.6916 163.588ZM91.73 162.819L91.1705 163.03L90.3761 160.925C90.242 161.196 90.0499 161.433 89.8135 161.621L89.6222 161.114C89.7718 160.986 89.8988 160.833 89.998 160.663C90.1115 160.484 90.1717 160.276 90.1714 160.065L90.6257 159.893L91.73 162.819ZM92.4032 159.222C92.6848 159.116 92.9433 159.134 93.1787 159.275C93.4585 159.442 93.7028 159.801 93.9114 160.354C94.1194 160.905 94.1739 161.337 94.075 161.65C93.9907 161.909 93.8077 162.091 93.5262 162.198C93.3956 162.251 93.2542 162.273 93.1137 162.261C92.9732 162.249 92.8374 162.204 92.7177 162.129C92.4624 161.977 92.2276 161.621 92.0165 161.062C91.8095 160.514 91.7555 160.083 91.8577 159.769C91.9388 159.511 92.1217 159.329 92.4032 159.222ZM92.5779 159.685C92.5121 159.71 92.4571 159.757 92.4227 159.818C92.3812 159.904 92.369 160.002 92.3879 160.095C92.4017 160.255 92.4765 160.505 92.6055 160.847C92.7346 161.189 92.8401 161.417 92.9223 161.532C93.0045 161.647 93.0807 161.716 93.1476 161.739C93.2139 161.761 93.286 161.76 93.3513 161.735C93.4181 161.71 93.4743 161.663 93.5101 161.601C93.5483 161.514 93.5603 161.417 93.5446 161.323C93.5279 161.166 93.4569 160.916 93.3279 160.574C93.1988 160.233 93.0933 160.004 93.0111 159.889C92.9289 159.774 92.8526 159.705 92.782 159.683C92.7159 159.659 92.6434 159.66 92.5779 159.685ZM94.6689 158.367C94.9504 158.261 95.2089 158.279 95.4444 158.42C95.7243 158.587 95.9651 158.948 96.1737 159.5C96.3817 160.051 96.4362 160.483 96.3373 160.796C96.2563 161.054 96.0734 161.236 95.7918 161.342C95.6613 161.396 95.5199 161.418 95.3793 161.406C95.2387 161.394 95.1029 161.349 94.9833 161.274C94.7245 161.122 94.4933 160.766 94.2822 160.207C94.0752 159.658 94.0211 159.228 94.1201 158.915C94.2044 158.656 94.384 158.475 94.6689 158.367ZM94.8437 158.83C94.7768 158.855 94.7207 158.903 94.685 158.964C94.6467 159.051 94.6345 159.148 94.6501 159.242C94.6674 159.4 94.7388 159.651 94.8679 159.993C94.9969 160.335 95.1024 160.563 95.1846 160.678C95.2668 160.793 95.343 160.862 95.4133 160.884C95.4795 160.907 95.5518 160.905 95.617 160.879C95.6827 160.855 95.7377 160.808 95.7722 160.747C95.8136 160.661 95.8257 160.563 95.8067 160.469C95.7935 160.311 95.719 160.062 95.59 159.72C95.4609 159.378 95.3554 159.15 95.2732 159.035C95.191 158.92 95.1147 158.851 95.0476 158.827C94.9814 158.804 94.9092 158.805 94.8437 158.83ZM96.9312 157.514C97.2127 157.407 97.4712 157.425 97.7066 157.566C97.9865 157.733 98.2307 158.092 98.4393 158.645C98.6474 159.196 98.7019 159.628 98.603 159.941C98.5187 160.2 98.3357 160.382 98.0542 160.489C97.9237 160.542 97.7822 160.564 97.6416 160.552C97.501 160.54 97.3653 160.495 97.2456 160.42C96.9903 160.268 96.7555 159.913 96.5445 159.353C96.3375 158.805 96.2834 158.374 96.3858 158.06C96.4668 157.802 96.6497 157.62 96.9312 157.514ZM97.1059 157.977C97.0398 158 96.9847 158.048 96.9507 158.109C96.9095 158.196 96.8961 158.293 96.9125 158.388C96.9298 158.546 97.0011 158.797 97.1302 159.139C97.2593 159.481 97.3647 159.709 97.4504 159.823C97.5325 159.938 97.6087 160.007 97.6757 160.03C97.7421 160.052 97.8141 160.051 97.8795 160.026C97.9449 160.001 97.9998 159.954 98.0347 159.894C98.0759 159.807 98.0892 159.709 98.0728 159.615C98.0561 159.457 97.9851 159.208 97.856 158.866C97.727 158.524 97.6215 158.296 97.5359 158.182C97.4537 158.067 97.3806 157.997 97.3102 157.974C97.2441 157.95 97.1715 157.951 97.106 157.977H97.1059ZM100.783 159.402L100.226 159.612L99.4321 157.507C99.298 157.778 99.1058 158.015 98.8694 158.203L98.6781 157.696C98.8273 157.569 98.9533 157.416 99.0506 157.246C99.165 157.067 99.2264 156.859 99.2275 156.647L99.6786 156.476L100.783 159.402ZM102.821 158.633L102.265 158.843L101.47 156.738C101.336 157.009 101.144 157.246 100.908 157.434L100.717 156.927C100.866 156.799 100.992 156.647 101.089 156.477C101.205 156.298 101.266 156.09 101.266 155.877L101.717 155.707L102.821 158.633ZM104.863 157.862L104.303 158.073L103.509 155.969C103.375 156.239 103.183 156.477 102.946 156.664L102.755 156.158C102.904 156.03 103.03 155.878 103.127 155.707C103.243 155.529 103.305 155.321 103.304 155.108L103.758 154.937L104.863 157.862ZM106.901 157.093L106.342 157.304L105.547 155.199C105.413 155.47 105.221 155.707 104.985 155.895L104.793 155.388C104.944 155.26 105.071 155.108 105.169 154.937C105.283 154.758 105.343 154.55 105.343 154.339L105.797 154.167L106.901 157.093ZM107.575 153.497C107.859 153.389 108.114 153.408 108.35 153.549C108.63 153.716 108.874 154.075 109.083 154.628C109.291 155.179 109.345 155.611 109.246 155.924C109.162 156.183 108.982 156.364 108.697 156.472C108.567 156.525 108.425 156.547 108.285 156.535C108.144 156.523 108.009 156.478 107.889 156.403C107.634 156.251 107.399 155.896 107.188 155.336C106.981 154.788 106.927 154.357 107.029 154.043C107.11 153.785 107.293 153.603 107.575 153.497ZM107.749 153.96C107.683 153.984 107.628 154.031 107.594 154.092C107.553 154.178 107.54 154.276 107.559 154.37C107.573 154.529 107.648 154.779 107.777 155.121C107.906 155.463 108.011 155.691 108.094 155.806C108.176 155.921 108.252 155.99 108.319 156.013C108.385 156.035 108.457 156.034 108.523 156.008C108.589 155.984 108.646 155.937 108.681 155.875C108.72 155.788 108.732 155.691 108.716 155.597C108.699 155.44 108.628 155.19 108.499 154.848C108.37 154.506 108.265 154.278 108.182 154.163C108.1 154.048 108.024 153.979 107.953 153.956C107.887 153.933 107.815 153.934 107.749 153.96ZM109.84 152.641C110.122 152.535 110.38 152.553 110.616 152.694C110.895 152.861 111.14 153.22 111.348 153.773C111.556 154.324 111.608 154.757 111.509 155.07C111.428 155.328 111.245 155.51 110.963 155.616C110.833 155.67 110.691 155.692 110.551 155.68C110.41 155.668 110.274 155.623 110.155 155.548C109.896 155.397 109.665 155.04 109.453 154.481C109.246 153.932 109.192 153.502 109.291 153.189C109.376 152.93 109.559 152.748 109.84 152.641ZM110.015 153.104C109.948 153.129 109.892 153.177 109.856 153.238C109.818 153.325 109.806 153.422 109.821 153.516C109.839 153.674 109.91 153.925 110.039 154.267C110.168 154.609 110.274 154.837 110.356 154.952C110.438 155.067 110.514 155.136 110.585 155.158C110.651 155.181 110.723 155.179 110.788 155.153C110.854 155.129 110.909 155.082 110.943 155.021C110.985 154.935 110.997 154.837 110.978 154.743C110.965 154.585 110.89 154.336 110.761 153.994C110.632 153.653 110.527 153.424 110.444 153.309C110.362 153.194 110.286 153.125 110.219 153.101C110.153 153.078 110.08 153.079 110.015 153.104H110.015ZM112.102 151.788C112.384 151.681 112.642 151.699 112.878 151.84C113.158 152.007 113.402 152.367 113.611 152.919C113.819 153.47 113.873 153.902 113.774 154.215C113.69 154.474 113.507 154.657 113.225 154.763C113.095 154.816 112.954 154.838 112.813 154.826C112.672 154.814 112.537 154.769 112.417 154.694C112.162 154.542 111.927 154.187 111.716 153.627C111.509 153.079 111.455 152.648 111.557 152.334C111.638 152.076 111.821 151.894 112.102 151.788ZM112.277 152.251C112.211 152.274 112.156 152.322 112.122 152.383C112.081 152.47 112.067 152.567 112.084 152.662C112.101 152.82 112.172 153.071 112.301 153.413C112.431 153.755 112.539 153.982 112.622 154.097C112.704 154.212 112.78 154.281 112.847 154.304C112.913 154.327 112.985 154.326 113.051 154.3C113.117 154.276 113.172 154.229 113.206 154.167C113.247 154.081 113.26 153.983 113.244 153.889C113.227 153.731 113.156 153.481 113.027 153.14C112.898 152.798 112.793 152.569 112.707 152.456C112.625 152.341 112.548 152.272 112.481 152.248C112.415 152.224 112.343 152.225 112.277 152.251Z" fill="#20238C"/>
<path d="M84.9072 170.788L84.3476 170.999L83.5533 168.895C83.4192 169.165 83.227 169.403 82.9906 169.59L82.7994 169.084C82.9485 168.956 83.0745 168.804 83.1718 168.633C83.2876 168.455 83.349 168.247 83.3487 168.034L83.8029 167.862L84.9072 170.788ZM86.9457 170.019L86.3861 170.23L85.5917 168.125C85.4581 168.395 85.2673 168.632 85.0325 168.82L84.8412 168.313C84.9897 168.185 85.1156 168.033 85.2137 167.863C85.3285 167.684 85.3888 167.477 85.3872 167.265L85.8414 167.093L86.9457 170.019ZM88.9841 169.249L88.4245 169.46L87.6302 167.356C87.4965 167.625 87.3056 167.862 87.0709 168.051L86.8796 167.544C87.0281 167.416 87.154 167.263 87.252 167.093C87.3665 166.914 87.4278 166.707 87.4289 166.494L87.88 166.324L88.9841 169.249ZM89.6607 165.652C89.9422 165.545 90.2007 165.563 90.4361 165.704C90.7126 165.872 90.9569 166.232 91.1654 166.785C91.3734 167.336 91.428 167.768 91.3291 168.081C91.2481 168.338 91.0652 168.521 90.7836 168.627C90.6525 168.68 90.5107 168.702 90.3696 168.69C90.2285 168.679 90.0921 168.634 89.9716 168.56C89.7164 168.407 89.485 168.05 89.2739 167.491C89.0669 166.943 89.0129 166.512 89.1118 166.199C89.1928 165.942 89.3757 165.759 89.6607 165.652ZM89.8354 166.115C89.7686 166.14 89.7125 166.187 89.6767 166.249C89.6353 166.335 89.6231 166.432 89.6419 166.526C89.6591 166.685 89.7306 166.935 89.8596 167.277C89.9886 167.619 90.0942 167.848 90.1764 167.963C90.2586 168.078 90.3348 168.146 90.4017 168.17C90.4693 168.192 90.5424 168.19 90.6087 168.164C90.6741 168.139 90.7289 168.092 90.7639 168.032C90.8022 167.944 90.8142 167.848 90.7984 167.754C90.7817 167.597 90.7107 167.347 90.5816 167.005C90.4526 166.663 90.347 166.435 90.2649 166.32C90.1827 166.205 90.1063 166.136 90.0392 166.112C89.973 166.089 89.901 166.09 89.8354 166.115ZM91.9229 164.798C92.2045 164.692 92.4629 164.709 92.6984 164.851C92.9782 165.017 93.2225 165.377 93.4311 165.929C93.6391 166.481 93.6937 166.913 93.5914 167.227C93.5103 167.484 93.3274 167.667 93.0459 167.773C92.9154 167.827 92.774 167.848 92.6334 167.836C92.4928 167.825 92.357 167.779 92.2374 167.705C91.9821 167.552 91.7473 167.197 91.5362 166.637C91.3292 166.089 91.2752 165.658 91.3741 165.345C91.4585 165.087 91.6415 164.904 91.9229 164.798ZM92.0977 165.261C92.0316 165.285 91.9764 165.332 91.9424 165.394C91.9012 165.48 91.8879 165.578 91.9043 165.672C91.9215 165.831 91.9929 166.082 92.122 166.424C92.251 166.765 92.3566 166.994 92.4387 167.109C92.5243 167.223 92.5971 167.292 92.6674 167.314C92.7336 167.337 92.8059 167.336 92.8711 167.31C92.9371 167.286 92.9923 167.239 93.0263 167.178C93.0676 167.091 93.0797 166.994 93.0608 166.9C93.0475 166.741 92.9763 166.491 92.8474 166.15C92.7183 165.808 92.6094 165.581 92.5273 165.465C92.4451 165.35 92.3687 165.281 92.3016 165.258C92.2354 165.235 92.1632 165.236 92.0977 165.261L92.0977 165.261ZM94.185 163.944C94.4666 163.838 94.7251 163.855 94.9605 163.997C95.2403 164.163 95.4846 164.523 95.6932 165.075C95.9012 165.627 95.9557 166.059 95.8568 166.371C95.7725 166.63 95.5895 166.813 95.3079 166.919C95.1773 166.973 95.036 166.994 94.8954 166.982C94.7549 166.97 94.6192 166.925 94.4994 166.851C94.2441 166.698 94.0094 166.343 93.7983 165.784C93.5913 165.235 93.5373 164.805 93.6396 164.49C93.7208 164.233 93.9038 164.05 94.185 163.944ZM94.3597 164.407C94.2939 164.431 94.2389 164.478 94.2045 164.54C94.163 164.626 94.1508 164.723 94.1696 164.817C94.1835 164.977 94.2583 165.226 94.3873 165.568C94.5164 165.91 94.6219 166.138 94.7041 166.254C94.7863 166.369 94.8625 166.437 94.9294 166.461C94.9957 166.483 95.0678 166.481 95.1331 166.456C95.1999 166.432 95.2561 166.384 95.2919 166.323C95.3301 166.235 95.3421 166.139 95.3264 166.045C95.3097 165.888 95.2387 165.638 95.1096 165.296C94.9805 164.954 94.8751 164.726 94.7928 164.611C94.7106 164.496 94.6344 164.427 94.5638 164.404C94.4978 164.381 94.4253 164.382 94.36 164.407L94.3597 164.407ZM98.0401 165.831L97.4804 166.042L96.6861 163.938C96.552 164.208 96.3599 164.446 96.1234 164.634L95.9322 164.127C96.0813 163.999 96.2073 163.847 96.3046 163.676C96.4204 163.498 96.4819 163.29 96.4814 163.077L96.9357 162.906L98.0401 165.831ZM100.079 165.062L99.5191 165.273L98.7248 163.169C98.5907 163.439 98.3986 163.677 98.1621 163.864L97.9708 163.358C98.12 163.23 98.246 163.078 98.3433 162.907C98.4591 162.729 98.5205 162.521 98.5202 162.308L98.9744 162.136L100.079 165.062ZM102.117 164.293L101.557 164.504L100.763 162.399C100.629 162.669 100.438 162.906 100.204 163.094L100.012 162.587C100.161 162.459 100.287 162.307 100.385 162.137C100.5 161.959 100.56 161.751 100.558 161.539L101.013 161.367L102.117 164.293ZM104.155 163.523L103.596 163.734L102.802 161.63C102.668 161.899 102.477 162.136 102.242 162.325L102.051 161.818C102.2 161.69 102.325 161.537 102.423 161.367C102.538 161.188 102.599 160.981 102.6 160.768L103.051 160.598L104.155 163.523ZM104.832 159.926C105.113 159.82 105.372 159.837 105.607 159.978C105.887 160.145 106.128 160.506 106.337 161.059C106.545 161.61 106.599 162.042 106.5 162.355C106.419 162.612 106.236 162.795 105.955 162.901C105.824 162.954 105.682 162.976 105.541 162.964C105.4 162.953 105.263 162.908 105.143 162.834C104.888 162.681 104.656 162.325 104.445 161.765C104.238 161.217 104.184 160.786 104.283 160.473C104.367 160.215 104.547 160.033 104.832 159.926ZM105.007 160.389C104.94 160.414 104.884 160.461 104.848 160.523C104.81 160.61 104.798 160.706 104.813 160.8C104.83 160.959 104.902 161.209 105.031 161.551C105.16 161.893 105.265 162.122 105.348 162.237C105.43 162.352 105.506 162.42 105.576 162.442C105.643 162.465 105.715 162.464 105.78 162.438C105.845 162.413 105.9 162.366 105.935 162.305C105.977 162.219 105.989 162.122 105.97 162.028C105.956 161.869 105.882 161.621 105.753 161.279C105.624 160.937 105.518 160.709 105.436 160.594C105.354 160.478 105.278 160.41 105.211 160.386C105.144 160.363 105.072 160.364 105.006 160.389H105.007ZM107.094 159.072C107.376 158.966 107.634 158.983 107.87 159.125C108.149 159.291 108.394 159.651 108.602 160.203C108.81 160.755 108.865 161.187 108.763 161.501C108.682 161.758 108.499 161.941 108.217 162.047C108.087 162.101 107.945 162.122 107.805 162.111C107.664 162.099 107.528 162.053 107.409 161.979C107.153 161.826 106.919 161.471 106.707 160.911C106.5 160.363 106.446 159.932 106.545 159.619C106.63 159.361 106.813 159.178 107.094 159.072ZM107.269 159.535C107.203 159.559 107.148 159.606 107.114 159.668C107.072 159.754 107.059 159.852 107.076 159.946C107.093 160.105 107.164 160.356 107.293 160.698C107.422 161.039 107.528 161.268 107.613 161.382C107.696 161.497 107.769 161.567 107.839 161.589C107.905 161.612 107.977 161.61 108.042 161.584C108.108 161.561 108.164 161.514 108.198 161.452C108.239 161.365 108.252 161.268 108.236 161.173C108.219 161.016 108.148 160.766 108.019 160.424C107.89 160.082 107.784 159.854 107.699 159.74C107.617 159.625 107.54 159.556 107.473 159.532C107.407 159.509 107.335 159.51 107.269 159.535ZM110.946 160.96L110.389 161.17L109.595 159.066C109.46 159.336 109.268 159.573 109.032 159.762L108.841 159.255C108.99 159.127 109.116 158.975 109.214 158.804C109.328 158.625 109.389 158.418 109.39 158.205L109.842 158.035L110.946 160.96ZM112.984 160.191L112.428 160.401L111.633 158.297C111.499 158.567 111.307 158.805 111.071 158.992L110.88 158.486C111.029 158.358 111.155 158.206 111.252 158.035C111.368 157.857 111.429 157.649 111.429 157.436L111.88 157.266L112.984 160.191ZM113.661 156.594C113.942 156.487 114.201 156.505 114.436 156.646C114.716 156.813 114.96 157.173 115.169 157.725C115.377 158.276 115.431 158.708 115.329 159.022C115.248 159.28 115.065 159.463 114.784 159.569C114.653 159.622 114.512 159.644 114.371 159.632C114.23 159.62 114.095 159.575 113.975 159.5C113.72 159.347 113.485 158.992 113.274 158.433C113.067 157.885 113.013 157.454 113.112 157.141C113.196 156.882 113.379 156.7 113.661 156.594ZM113.835 157.057C113.769 157.081 113.714 157.128 113.68 157.189C113.639 157.276 113.626 157.373 113.642 157.468C113.659 157.626 113.731 157.877 113.86 158.219C113.989 158.561 114.094 158.789 114.176 158.905C114.262 159.018 114.335 159.088 114.405 159.11C114.471 159.133 114.544 159.131 114.609 159.106C114.675 159.082 114.73 159.035 114.764 158.973C114.805 158.886 114.819 158.789 114.802 158.694C114.785 158.537 114.711 158.289 114.582 157.947C114.453 157.605 114.347 157.377 114.265 157.262C114.183 157.146 114.107 157.078 114.04 157.054C113.973 157.031 113.901 157.032 113.835 157.057Z" fill="#20238C"/>
<path fill-rule="evenodd" clip-rule="evenodd" d="M95.3727 150.757C94.7087 151.171 93.9627 151.435 93.1863 151.532C93.1285 151.538 93.0725 151.556 93.0216 151.584C92.9708 151.613 92.926 151.651 92.89 151.696C92.854 151.742 92.8274 151.794 92.8118 151.85C92.7962 151.907 92.7919 151.965 92.7991 152.023C92.8063 152.081 92.825 152.136 92.8539 152.187C92.8829 152.237 92.9216 152.282 92.9678 152.317C93.014 152.352 93.0667 152.378 93.123 152.393C93.1793 152.408 93.2379 152.411 93.2956 152.403C94.1981 152.291 95.0654 151.984 95.8371 151.503C95.9351 151.441 96.0046 151.342 96.0304 151.229C96.0563 151.116 96.0364 150.998 95.9751 150.899C95.9138 150.801 95.816 150.731 95.7032 150.704C95.5903 150.677 95.4716 150.696 95.3727 150.757ZM97.9789 147.241C97.7411 148 97.3761 148.713 96.8993 149.349C96.8645 149.395 96.8391 149.448 96.8247 149.504C96.8102 149.56 96.8069 149.618 96.8149 149.675C96.823 149.732 96.8422 149.787 96.8715 149.837C96.9009 149.887 96.9397 149.931 96.9859 149.965C97.0321 150 97.0847 150.026 97.1406 150.04C97.1966 150.055 97.2549 150.058 97.3121 150.05C97.3694 150.042 97.4245 150.023 97.4743 149.993C97.5241 149.964 97.5677 149.925 97.6025 149.879C98.1369 149.162 98.5472 148.361 98.8162 147.509C98.8504 147.398 98.8394 147.278 98.7858 147.176C98.7323 147.073 98.6403 146.996 98.53 146.96C98.4197 146.925 98.3 146.935 98.1968 146.987C98.0936 147.04 98.0153 147.131 97.9789 147.241ZM91.1081 151.406C90.3353 151.217 89.5998 150.899 88.9331 150.465C88.8347 150.402 88.7154 150.381 88.6013 150.406C88.4872 150.431 88.3878 150.501 88.3248 150.599C88.2619 150.697 88.2406 150.817 88.2656 150.931C88.2907 151.045 88.36 151.144 88.4583 151.207C89.2087 151.691 90.0339 152.047 90.9005 152.261C91.0138 152.288 91.1333 152.27 91.2327 152.209C91.3321 152.148 91.4033 152.05 91.4308 151.937C91.4583 151.824 91.4398 151.704 91.3793 151.605C91.3188 151.505 91.2213 151.434 91.1081 151.406V151.406ZM98.1945 142.735C98.349 143.527 98.405 144.335 98.3612 145.14C98.3548 145.257 98.3948 145.371 98.4725 145.458C98.5502 145.545 98.6592 145.597 98.7755 145.604C98.8919 145.61 99.0062 145.571 99.0933 145.493C99.1803 145.416 99.2331 145.307 99.24 145.19C99.2872 144.312 99.225 143.431 99.0549 142.567C99.0444 142.51 99.0228 142.456 98.9912 142.407C98.9595 142.359 98.9186 142.317 98.8707 142.284C98.8228 142.251 98.7688 142.229 98.712 142.217C98.6553 142.205 98.5967 142.205 98.5398 142.216C98.4829 142.227 98.4287 142.249 98.3805 142.282C98.3322 142.314 98.2909 142.355 98.2587 142.403C98.2266 142.452 98.2044 142.506 98.1934 142.563C98.1823 142.62 98.1827 142.678 98.1945 142.735ZM87.2913 149.096C86.7383 148.508 86.2608 147.853 85.8697 147.147C85.842 147.097 85.8046 147.052 85.7596 147.016C85.7147 146.98 85.663 146.954 85.6077 146.938C85.5524 146.922 85.4945 146.917 85.4373 146.923C85.3801 146.93 85.3247 146.948 85.2744 146.976C85.1725 147.032 85.0973 147.127 85.065 147.239C85.0327 147.351 85.0461 147.471 85.1022 147.574C85.5274 148.344 86.0473 149.058 86.6498 149.699C86.7295 149.784 86.8396 149.833 86.9559 149.837C87.0722 149.841 87.1852 149.798 87.2701 149.719C87.3543 149.638 87.4036 149.528 87.4076 149.412C87.4116 149.296 87.3698 149.182 87.2913 149.096ZM96.3636 138.575C96.8444 139.225 97.2468 139.929 97.5625 140.673C97.585 140.726 97.6177 140.774 97.6588 140.815C97.6999 140.855 97.7485 140.887 97.802 140.909C97.8554 140.93 97.9126 140.941 97.9702 140.941C98.0278 140.94 98.0848 140.928 98.1379 140.906C98.191 140.883 98.2391 140.851 98.2795 140.81C98.3199 140.768 98.3519 140.72 98.3735 140.666C98.3951 140.613 98.406 140.556 98.4055 140.498C98.405 140.44 98.3932 140.383 98.3707 140.33C98.0276 139.522 97.5915 138.757 97.0712 138.05C97.0007 137.959 96.8972 137.898 96.7828 137.883C96.6685 137.867 96.5525 137.897 96.4599 137.965C96.3672 138.034 96.3052 138.137 96.2873 138.251C96.2694 138.365 96.2969 138.481 96.364 138.575H96.3636ZM85.0246 145.162C84.7859 144.391 84.6399 143.593 84.5899 142.787C84.5865 142.729 84.5718 142.673 84.5466 142.621C84.5214 142.569 84.4863 142.523 84.4432 142.484C84.4001 142.446 84.3498 142.417 84.2953 142.398C84.2409 142.379 84.1832 142.371 84.1256 142.374C84.068 142.378 84.0117 142.392 83.9598 142.418C83.9079 142.443 83.8615 142.478 83.8232 142.521C83.7849 142.564 83.7555 142.614 83.7366 142.669C83.7177 142.723 83.7097 142.781 83.7131 142.839C83.7665 143.715 83.9249 144.583 84.1851 145.422C84.2203 145.533 84.2982 145.626 84.4018 145.68C84.5053 145.734 84.6261 145.745 84.7377 145.711C84.7926 145.694 84.8437 145.666 84.8878 145.629C84.932 145.592 84.9685 145.547 84.9951 145.496C85.0218 145.445 85.0381 145.389 85.0431 145.332C85.0481 145.275 85.0418 145.217 85.0245 145.162L85.0246 145.162ZM92.8643 135.762C93.6013 136.072 94.2863 136.493 94.8954 137.011C94.9396 137.048 94.9906 137.076 95.0456 137.093C95.1006 137.111 95.1585 137.117 95.216 137.112C95.2734 137.107 95.3293 137.091 95.3805 137.064C95.4317 137.038 95.4771 137.001 95.5142 136.957C95.5513 136.913 95.5793 136.862 95.5966 136.807C95.614 136.752 95.6203 136.694 95.6153 136.636C95.6103 136.579 95.594 136.523 95.5674 136.472C95.5408 136.421 95.5044 136.375 95.4602 136.338C94.7822 135.764 94.0212 135.296 93.203 134.95C93.0954 134.905 92.9744 134.905 92.8666 134.949C92.7588 134.994 92.673 135.079 92.628 135.187C92.5831 135.294 92.5828 135.415 92.6271 135.523C92.6714 135.631 92.7567 135.717 92.8643 135.762ZM84.7148 140.645C84.8493 139.859 85.1054 139.098 85.4738 138.391C85.5012 138.34 85.5183 138.284 85.524 138.226C85.5298 138.168 85.524 138.11 85.5071 138.055C85.4903 137.999 85.4626 137.948 85.4257 137.903C85.3888 137.858 85.3434 137.821 85.2921 137.794C85.2409 137.767 85.1847 137.75 85.127 137.745C85.0693 137.74 85.0111 137.746 84.9558 137.763C84.9004 137.781 84.8491 137.809 84.8046 137.846C84.7602 137.883 84.7236 137.929 84.6969 137.98C84.2872 138.769 84.0006 139.616 83.8473 140.491C83.8271 140.606 83.8534 140.725 83.9203 140.82C83.9872 140.916 84.0893 140.981 84.2042 141.001C84.3191 141.022 84.4374 140.996 84.5332 140.929C84.6289 140.862 84.6943 140.76 84.7149 140.645H84.7148ZM88.4658 135.631L88.5296 135.607C89.2626 135.332 90.0459 135.217 90.8269 135.271C90.9423 135.277 91.0555 135.237 91.1419 135.161C91.2283 135.084 91.281 134.976 91.2886 134.861C91.2962 134.746 91.258 134.632 91.1823 134.544C91.1067 134.457 90.9996 134.403 90.8844 134.394C90.007 134.334 89.1268 134.457 88.2995 134.755L88.219 134.784C87.4487 135.076 86.7428 135.515 86.1412 136.077C86.0559 136.156 86.0057 136.267 86.0016 136.383C85.9975 136.5 86.0399 136.613 86.1194 136.698C86.1989 136.783 86.309 136.834 86.4255 136.838C86.542 136.842 86.6553 136.799 86.7406 136.72C87.2419 136.252 87.8272 135.882 88.4656 135.631L88.4658 135.631ZM93.4658 147.593C93.3508 147.652 93.2326 147.704 93.1118 147.75C91.81 148.241 90.3774 147.895 89.2715 146.988C89.227 146.952 89.1757 146.924 89.1206 146.908C89.0655 146.891 89.0077 146.885 88.9504 146.891C88.8931 146.896 88.8374 146.913 88.7867 146.941C88.7359 146.968 88.691 147.005 88.6545 147.049C88.6179 147.094 88.5906 147.145 88.5739 147.2C88.5572 147.255 88.5515 147.313 88.5571 147.37C88.5628 147.428 88.5797 147.483 88.6069 147.534C88.634 147.585 88.6709 147.63 88.7154 147.666C90.0667 148.778 91.8262 149.174 93.4222 148.572C93.573 148.515 93.7205 148.45 93.864 148.377C93.916 148.351 93.9624 148.315 94.0005 148.271C94.0386 148.227 94.0677 148.176 94.086 148.121C94.1042 148.066 94.1114 148.008 94.1071 147.95C94.1027 147.892 94.0869 147.835 94.0606 147.784C94.0343 147.732 93.998 147.686 93.9537 147.648C93.9095 147.611 93.8582 147.582 93.8029 147.564C93.7476 147.547 93.6893 147.54 93.6315 147.545C93.5736 147.55 93.5173 147.566 93.4658 147.593V147.593ZM95.1339 141.822C95.1597 141.884 95.1843 141.946 95.2076 142.009C95.7714 143.503 95.6196 145.071 94.9099 146.233C94.8799 146.282 94.8598 146.337 94.8509 146.394C94.842 146.451 94.8445 146.509 94.8581 146.566C94.8717 146.622 94.8963 146.675 94.9303 146.721C94.9644 146.768 95.0073 146.807 95.0566 146.837C95.1059 146.867 95.1607 146.887 95.2177 146.896C95.2748 146.905 95.333 146.903 95.3891 146.889C95.4453 146.875 95.4981 146.851 95.5448 146.817C95.5914 146.783 95.6309 146.74 95.6609 146.691C96.4987 145.317 96.6971 143.465 96.0306 141.699C96.0029 141.626 95.9754 141.553 95.9429 141.482C95.9209 141.428 95.8884 141.38 95.8475 141.339C95.8066 141.298 95.758 141.265 95.7045 141.243C95.651 141.221 95.5936 141.21 95.5357 141.21C95.4778 141.21 95.4206 141.222 95.3672 141.244C95.3138 141.267 95.2654 141.299 95.2248 141.341C95.1841 141.382 95.152 141.431 95.1303 141.484C95.1086 141.538 95.0978 141.595 95.0984 141.653C95.099 141.711 95.1111 141.768 95.1339 141.822ZM87.9892 145.38C87.8963 145.2 87.8142 145.016 87.7435 144.827C87.234 143.477 87.3113 142.066 87.8527 140.949C87.9036 140.844 87.9107 140.723 87.8724 140.613C87.8342 140.503 87.7537 140.413 87.6488 140.362C87.5438 140.311 87.4229 140.304 87.3127 140.342C87.2026 140.38 87.1121 140.461 87.0612 140.566C86.4216 141.883 86.3198 143.546 86.9205 145.137C87.0032 145.357 87.0985 145.572 87.2059 145.78C87.2598 145.883 87.352 145.96 87.4624 145.995C87.5729 146.03 87.6927 146.02 87.7959 145.968C87.899 145.915 87.9772 145.823 88.0134 145.713C88.0496 145.603 88.0409 145.483 87.9892 145.38ZM89.7947 139.104L89.8419 139.086C91.2634 138.549 92.8422 139.011 93.977 140.115C94.0609 140.195 94.1731 140.239 94.2892 140.237C94.4053 140.235 94.5158 140.187 94.5968 140.104C94.6777 140.021 94.7225 139.909 94.7214 139.793C94.7203 139.677 94.6733 139.566 94.5908 139.484C93.2241 138.158 91.3277 137.625 89.6116 138.234L89.5315 138.263C89.2278 138.378 88.9377 138.526 88.6668 138.705C88.6187 138.737 88.5773 138.778 88.5451 138.826C88.5129 138.874 88.4905 138.928 88.479 138.984C88.4676 139.041 88.4675 139.099 88.4786 139.156C88.4897 139.213 88.5119 139.267 88.5439 139.315C88.5759 139.363 88.617 139.404 88.665 139.436C88.7129 139.469 88.7668 139.491 88.8234 139.502C88.88 139.514 88.9383 139.514 88.995 139.503C89.0517 139.492 89.1056 139.469 89.1538 139.437C89.3551 139.304 89.5699 139.192 89.7946 139.104L89.7947 139.104ZM92.3321 143.386C92.0938 143.517 91.8464 143.631 91.5916 143.726C91.276 143.847 90.9497 143.938 90.6169 143.998C90.56 144.007 90.5056 144.028 90.4567 144.059C90.4078 144.09 90.3655 144.13 90.3321 144.177C90.2987 144.224 90.2749 144.277 90.2621 144.333C90.2493 144.39 90.2477 144.448 90.2574 144.505C90.267 144.562 90.2878 144.616 90.3186 144.665C90.3493 144.714 90.3893 144.756 90.4364 144.789C90.4835 144.823 90.5367 144.847 90.593 144.859C90.6493 144.872 90.7075 144.874 90.7644 144.864C91.1527 144.795 91.5336 144.689 91.902 144.548C92.1967 144.437 92.483 144.306 92.7587 144.154C92.8606 144.097 92.9359 144.002 92.9679 143.89C93 143.778 92.9862 143.658 92.9297 143.556C92.8731 143.454 92.7784 143.379 92.6664 143.347C92.5543 143.315 92.4341 143.329 92.3322 143.385L92.3321 143.386ZM91.2577 143.149L91.3592 143.11C91.989 142.872 92.5857 142.76 92.9848 142.797C93.0426 142.803 93.1009 142.798 93.1565 142.781C93.2121 142.764 93.2638 142.737 93.3087 142.7C93.3536 142.663 93.3907 142.618 93.4179 142.566C93.4452 142.515 93.462 142.459 93.4674 142.401C93.4728 142.343 93.4667 142.285 93.4494 142.229C93.4322 142.174 93.4041 142.123 93.3668 142.078C93.3296 142.033 93.2839 141.997 93.2323 141.97C93.1808 141.943 93.1245 141.927 93.0666 141.922C92.586 141.878 91.8744 141.986 91.1219 142.261L91.0488 142.288C90.3938 142.535 89.8413 142.856 89.4815 143.166C89.4372 143.204 89.4008 143.25 89.3744 143.301C89.3479 143.353 89.332 143.409 89.3275 143.467C89.3229 143.525 89.3299 143.583 89.348 143.639C89.3661 143.694 89.395 143.745 89.4329 143.789C89.4709 143.833 89.5171 143.869 89.569 143.895C89.621 143.921 89.6775 143.936 89.7355 143.94C89.7934 143.944 89.8515 143.937 89.9065 143.918C89.9615 143.899 90.0123 143.87 90.0559 143.832C90.3343 143.591 90.7593 143.347 91.2577 143.149Z" fill="#6562F9"/>
<path fill-rule="evenodd" clip-rule="evenodd" d="M62.5299 81.5952C53.8987 86.9255 34.774 103.663 37.53 116.316C41.5139 134.595 60.3956 153.877 60.3956 153.877C61.1201 160.199 66.5205 161.652 67.6535 162.058C68.6322 162.408 64.8003 153.524 65.2136 152.812C66.5442 150.525 69.1638 153.986 69.771 151.75C70.1556 150.338 66.8076 147.751 63.8306 148.081C63.8306 148.081 50.3805 122.904 54.2064 111.599C58.0352 100.295 84.9494 101.141 86.7945 80.2552C87.2877 74.6736 85.0787 67.6706 62.5299 81.5952Z" fill="#FB9C9A"/>
<mask id="mask1_282_4373" style="mask-type:luminance" maskUnits="userSpaceOnUse" x="37" y="73" width="50" height="90">
<path d="M62.5299 81.5952C53.8987 86.9255 34.774 103.663 37.53 116.316C41.5139 134.595 60.3956 153.877 60.3956 153.877C61.1201 160.199 66.5205 161.652 67.6535 162.058C68.6322 162.408 64.8003 153.524 65.2136 152.812C66.5442 150.525 69.1638 153.986 69.771 151.75C70.1556 150.338 66.8076 147.751 63.8306 148.081C63.8306 148.081 50.3805 122.904 54.2064 111.599C58.0352 100.295 84.9494 101.141 86.7945 80.2552C87.2877 74.6736 85.0787 67.6706 62.5299 81.5952Z" fill="white"/>
</mask>
<g mask="url(#mask1_282_4373)">
<path fill-rule="evenodd" clip-rule="evenodd" d="M72.2485 134.428C82.49 121.932 98.9174 112.104 100.747 94.6215C102.031 82.3549 93.8111 73.473 82.9324 69.1785C65.9919 62.493 44.2363 64.0566 28.739 73.7275C6.4875 87.6138 4.79878 117.784 19.2824 137.898C23.771 144.13 29.6994 149.99 37.216 152.293C42.831 154.014 53.2594 154.466 56.8554 148.359C58.0423 146.345 56.7443 143.705 58.2248 141.873C59.3486 140.478 61.2953 140.591 62.6824 139.612C64.9594 138.014 64.6313 134.006 63.7877 131.705L72.2485 134.428Z" fill="url(#paint6_linear_282_4373)"/>
</g>
<path fill-rule="evenodd" clip-rule="evenodd" d="M212.527 66.3859C212.527 66.3859 201.845 63.2413 194.303 55.1081C185.831 62.726 174.8 66.3859 174.8 66.3859V83.5648C174.8 86.9198 175.656 90.2196 177.285 93.1524C178.915 96.0852 181.265 98.5542 184.114 100.326C184.422 100.521 184.734 100.713 185.04 100.904C187.563 102.474 190.471 103.313 193.443 103.33C196.414 103.346 199.331 102.539 201.871 100.998C205.124 99.0241 207.813 96.2458 209.679 92.9306C211.546 89.6154 212.526 85.8752 212.527 82.0707V66.3859Z" fill="url(#paint7_linear_282_4373)"/>
<path fill-rule="evenodd" clip-rule="evenodd" d="M207.53 70.1022C207.53 70.1022 199.678 67.7789 194.133 61.7698C187.906 67.3981 179.797 70.1022 179.797 70.1022V82.818C179.796 85.2907 180.425 87.7228 181.623 89.8857C182.822 92.0485 184.55 93.8712 186.647 95.1823C186.87 95.3203 187.093 95.4598 187.314 95.5995C189.17 96.7598 191.312 97.3809 193.501 97.393C195.69 97.4052 197.838 96.8081 199.707 95.6685H199.709C202.098 94.2114 204.072 92.1646 205.441 89.7248C206.811 87.285 207.53 84.534 207.53 81.736V70.1022Z" fill="white"/>
<path fill-rule="evenodd" clip-rule="evenodd" d="M185.88 83.631L191.069 90.5837C191.502 91.1628 192.163 91.4885 192.85 91.4627C193.197 91.4462 193.536 91.3458 193.836 91.1701C194.136 90.9944 194.389 90.7487 194.574 90.4539L204.266 75.4505C204.953 74.3848 204.708 72.9192 203.715 72.1793C202.721 71.4394 201.36 71.705 200.669 72.7707L192.649 85.1869L189.293 80.6907C188.54 79.6787 187.162 79.5156 186.221 80.3269C185.276 81.1383 185.127 82.6189 185.88 83.631Z" fill="url(#paint8_linear_282_4373)"/>
<path fill-rule="evenodd" clip-rule="evenodd" d="M172.943 83.3113C173.258 81.5345 174.267 79.7184 174.864 79.5099C178.849 78.1239 180.959 82.1069 176.851 83.342C174.864 83.94 172.874 89.0694 172.874 89.0694C172.874 89.0694 172.704 84.6738 172.943 83.3113Z" fill="#FB9C9A"/>
<path fill-rule="evenodd" clip-rule="evenodd" d="M99.294 50.9801C94.0118 50.9801 90.161 55.8297 90.9123 62.4126C91.4458 67.0775 97.3404 72.0934 102.172 72.5666C106.154 72.9561 107.713 68.9153 107.713 62.2901C107.713 55.6649 104.572 50.9801 99.294 50.9801Z" fill="url(#paint9_linear_282_4373)"/>
<path fill-rule="evenodd" clip-rule="evenodd" d="M101.312 68.119C101.412 67.6586 101.802 67.2502 102.12 66.9242C102.4 66.6375 102.693 66.3593 103.04 66.1563C103.247 66.0269 103.471 65.9285 103.706 65.8642C105.074 65.5353 105.727 66.6953 106.79 67.2582C107.2 67.4758 107.639 67.5147 108.096 67.531C109.393 69.509 107.091 71.674 105.405 72.3795C104.563 72.7323 102.366 75.5244 99.688 72.3147C99.0812 71.589 95.792 71.8087 96.8214 68.1202C97.0893 67.1552 96.7001 65.9257 96.629 64.9323C96.5243 63.4756 96.6415 61.7813 95.2187 60.8881C94.9941 60.7484 94.7557 60.6325 94.5072 60.542C94.3315 60.4771 94.1306 60.3382 93.9632 60.4172C92.7287 60.991 94.7583 63.25 91.716 64.1781C91.9127 65.1863 90.9459 65.8939 90.0587 66.0279C88.6694 66.2379 87.1796 65.6348 86.259 64.5795C85.4094 63.6044 84.38 62.0866 84.2042 60.8274C83.9908 59.2857 84.0662 55.9408 85.4973 53.9609C86.6147 52.4151 88.2635 51.214 90.2303 51.3345C90.2095 50.9441 90.4689 50.5545 90.6698 50.242C91.1422 49.5079 91.74 48.8624 92.4357 48.335C93.5531 47.498 94.9341 46.8749 96.336 46.7694C98.215 46.6281 100.224 47.6683 101.04 49.3992C101.396 49.0175 101.935 48.8949 102.429 48.7974C103.639 48.5585 104.777 48.7096 105.852 49.331C108.183 50.6798 108.987 53.3091 108.003 55.7446C107.652 55.6312 107.242 55.6287 106.878 55.576C105.999 55.4505 109.016 57.3182 102.889 58.3961C101.295 58.6765 98.9306 57.4579 97.7798 58.9569C97.0265 59.9349 97.5498 61.102 97.7045 62.1769C97.8425 63.1386 97.7714 64.1216 97.9514 65.077C98.2067 66.4362 99.2487 68.1015 100.709 68.4062L101.312 68.119Z" fill="url(#paint10_linear_282_4373)"/>
<defs>
<linearGradient id="paint0_linear_282_4373" x1="170.425" y1="119.53" x2="74.3284" y2="198.497" gradientUnits="userSpaceOnUse">
<stop stop-color="#E3DBF9"/>
<stop offset="0.54" stop-color="#CCBBFA"/>
<stop offset="1" stop-color="#7848FC"/>
</linearGradient>
<linearGradient id="paint1_linear_282_4373" x1="136.123" y1="111.13" x2="105.32" y2="161.097" gradientUnits="userSpaceOnUse">
<stop stop-color="#E3DBF9"/>
<stop offset="0.54" stop-color="#CCBBFA"/>
<stop offset="1" stop-color="#7848FC"/>
</linearGradient>
<linearGradient id="paint2_linear_282_4373" x1="14.0031" y1="95.059" x2="97.8074" y2="163.884" gradientUnits="userSpaceOnUse">
<stop stop-color="#E3DBF9"/>
<stop offset="0.56" stop-color="#CDBDFA"/>
<stop offset="1" stop-color="#7848FC"/>
</linearGradient>
<linearGradient id="paint3_linear_282_4373" x1="129.712" y1="88.7956" x2="135.02" y2="153.407" gradientUnits="userSpaceOnUse">
<stop stop-color="#272BAA"/>
<stop offset="0.45" stop-color="#1D2190"/>
<stop offset="1" stop-color="#050751"/>
</linearGradient>
<linearGradient id="paint4_linear_282_4373" x1="99.9281" y1="63.8332" x2="85.9203" y2="135.763" gradientUnits="userSpaceOnUse">
<stop stop-color="#3E42D3"/>
<stop offset="1" stop-color="#050751"/>
</linearGradient>
<linearGradient id="paint5_linear_282_4373" x1="89.7128" y1="115.076" x2="84.8835" y2="160.747" gradientUnits="userSpaceOnUse">
<stop stop-color="#E3E3FE"/>
<stop offset="0.47" stop-color="#BBBBFE"/>
<stop offset="1" stop-color="#4F4FFF"/>
</linearGradient>
<linearGradient id="paint6_linear_282_4373" x1="81.8566" y1="70.0909" x2="30.0849" y2="125.113" gradientUnits="userSpaceOnUse">
<stop stop-color="#292DB3"/>
<stop offset="0.56" stop-color="#22259F"/>
<stop offset="1" stop-color="#050751"/>
</linearGradient>
<linearGradient id="paint7_linear_282_4373" x1="204.834" y1="55.5835" x2="169.508" y2="121.945" gradientUnits="userSpaceOnUse">
<stop stop-color="#AADBFF"/>
<stop offset="0.6" stop-color="#91D1FF"/>
<stop offset="0.81" stop-color="#5AB9FF"/>
<stop offset="1" stop-color="#22A1FF"/>
</linearGradient>
<linearGradient id="paint8_linear_282_4373" x1="202.517" y1="66.0364" x2="180.524" y2="102.206" gradientUnits="userSpaceOnUse">
<stop stop-color="#AADBFF"/>
<stop offset="0.47" stop-color="#85CBFF"/>
<stop offset="1" stop-color="#22A1FF"/>
</linearGradient>
<linearGradient id="paint9_linear_282_4373" x1="105.832" y1="52.9079" x2="91.5175" y2="74.7837" gradientUnits="userSpaceOnUse">
<stop stop-color="#FB9C9A"/>
<stop offset="0.64" stop-color="#FC8886"/>
<stop offset="0.84" stop-color="#FD5450"/>
<stop offset="1" stop-color="#FF1712"/>
</linearGradient>
<linearGradient id="paint10_linear_282_4373" x1="101.569" y1="73.0752" x2="92.6982" y2="45.0033" gradientUnits="userSpaceOnUse">
<stop/>
<stop offset="0.53" stop-color="#121212"/>
<stop offset="1" stop-color="#4D4D4D"/>
</linearGradient>
</defs>
</svg>
