<svg width="46" height="27" viewBox="0 0 46 27" fill="none" xmlns="http://www.w3.org/2000/svg">
<path d="M1.2175 26.12V23.96L1.6175 17.52V13.72L2.2975 13C2.3775 12.5467 2.3775 11.8 2.2975 10.76C2.24417 9.66667 2.0175 9.12 1.6175 9.12C1.6175 8.56 1.4975 8.10667 1.2575 7.76C1.0175 7.38667 0.8975 7.05333 0.8975 6.76C1.08417 6.57333 1.23083 6.36 1.3375 6.12C1.47083 5.90667 1.5775 5.64 1.6575 5.32C1.76417 4.97333 1.8175 4.57333 1.8175 4.12C1.8175 4.06667 1.7375 4.09333 1.5775 4.2C1.52417 4.22667 1.4575 4.28 1.3775 4.36L1.0575 3.56C1.19083 3.21333 1.32417 2.8 1.4575 2.32C1.59083 1.84 1.6975 1.38667 1.7775 0.959998L3.2975 0.559999C3.7775 0.693332 4.3375 0.853332 4.9775 1.04C5.7775 1.25333 6.43083 1.42667 6.9375 1.56C7.47083 1.66667 7.87083 1.69333 8.1375 1.64V3.36L10.9375 1.92L12.0575 2.04C12.4575 2.36 12.8708 2.61333 13.2975 2.8C13.7508 2.96 14.0975 3.05333 14.3375 3.08C14.5775 3.10667 14.8042 3.13333 15.0175 3.16C15.2575 3.18667 15.4575 3.21333 15.6175 3.24C15.8842 3.24 16.2175 3.28 16.6175 3.36C17.0175 3.44 17.3642 3.50667 17.6575 3.56L18.1375 4.28C18.2975 4.68 18.4308 5.04 18.5375 5.36C18.6708 5.68 18.7908 5.97333 18.8975 6.24C19.0042 6.50667 19.1108 6.76 19.2175 7C19.3508 7.24 19.5108 7.48 19.6975 7.72C19.6708 7.88 19.6442 8.09333 19.6175 8.36C19.5908 8.6 19.6042 8.90667 19.6575 9.28C19.6842 9.89333 19.8842 10.2533 20.2575 10.36L20.1375 11.16C19.7642 11.6933 19.4575 12.1867 19.2175 12.64C19.0042 13.0667 18.8308 13.44 18.6975 13.76C18.6175 13.9467 18.5375 14.1333 18.4575 14.32C18.4042 14.48 18.3508 14.64 18.2975 14.8C17.9775 14.9067 17.4842 15.08 16.8175 15.32C16.1508 15.5333 15.4175 15.8 14.6175 16.12C13.0708 16.7067 12.1642 17.08 11.8975 17.24C11.6842 17.4 11.4842 17.6133 11.2975 17.88L10.9375 18.36C10.8575 18.3867 10.7375 18.4 10.5775 18.4C10.4442 18.4267 10.3108 18.44 10.1775 18.44C10.0442 18.44 9.87083 18.4533 9.6575 18.48C9.23083 18.5067 8.8975 18.5333 8.6575 18.56C8.4175 18.5867 8.1375 18.5867 7.8175 18.56L7.1775 20.28V21.48L7.2175 23.12L7.4175 23.52C7.47083 23.6533 7.52417 23.8 7.5775 23.96C7.6575 24.12 7.7375 24.2667 7.8175 24.4L7.0175 25.92C6.9375 25.9467 6.79083 25.9867 6.5775 26.04C6.44417 26.0667 6.27083 26.0667 6.0575 26.04C5.87083 26.04 5.6575 26 5.4175 25.92C5.15083 25.8667 4.91083 25.8667 4.6975 25.92C4.48417 26 4.28417 26.0933 4.0975 26.2C3.9375 26.3333 3.7775 26.4533 3.6175 26.56C3.48417 26.6667 3.36417 26.72 3.2575 26.72C3.12417 26.72 2.9775 26.7333 2.8175 26.76C2.6575 26.7867 2.47083 26.8133 2.2575 26.84L1.2175 26.12ZM13.6175 13.12L14.3375 10.8C14.3375 9.94667 14.3508 9.25333 14.3775 8.72C14.4042 8.18667 14.3908 7.6 14.3375 6.96C14.2308 6.85333 14.0975 6.72 13.9375 6.56C13.8042 6.37333 13.6575 6.2 13.4975 6.04C13.3642 5.88 13.2308 5.74667 13.0975 5.64C12.9908 5.53333 12.9242 5.48 12.8975 5.48C12.8442 5.48 12.7242 5.45333 12.5375 5.4C12.3775 5.34667 12.1908 5.29333 11.9775 5.24C11.7642 5.18667 11.5508 5.14667 11.3375 5.12C11.1242 5.06667 10.9642 5.05333 10.8575 5.08C10.8308 5.08 10.7775 5.13333 10.6975 5.24C10.6442 5.32 10.5642 5.4 10.4575 5.48C10.3775 5.56 10.2575 5.6 10.0975 5.6C9.9375 5.57333 9.75083 5.45333 9.5375 5.24C9.24417 4.97333 9.0175 4.86667 8.8575 4.92C8.6975 4.97333 8.56417 5.12 8.4575 5.36C8.35083 5.57333 8.2575 5.85333 8.1775 6.2C8.0975 6.52 8.00417 6.81333 7.8975 7.08C7.79083 7.21333 7.71083 7.29333 7.6575 7.32C7.60417 7.32 7.5775 7.45333 7.5775 7.72C7.5775 7.74667 7.64417 7.86667 7.7775 8.08C7.91083 8.29333 8.04417 8.54667 8.1775 8.84L7.5775 9.36L7.4175 15.24L8.3775 15.56H10.7375L13.6175 13.12ZM42.9063 2.16L45.9863 2.76L45.3463 4.32V4.44C45.3729 4.68 45.2263 5.48 44.9063 6.84C44.8796 6.92 44.7596 7.04 44.5463 7.2C44.3596 7.36 44.1329 7.54667 43.8663 7.76C43.6262 7.97333 43.3863 8.2 43.1463 8.44C42.9063 8.65333 42.7463 8.86667 42.6663 9.08L36.8663 17.96L35.6663 19.16C35.5863 19.1867 35.5063 19.2267 35.4263 19.28C35.3729 19.3067 35.3196 19.32 35.2663 19.32L35.6263 19.84L33.7463 22.68L31.3063 25.88L30.7063 26.72L25.9863 26.48L25.2663 24.44L26.6263 24.08L27.5863 23.08L28.3063 22.56V21.56C28.4129 21.5067 28.5063 21.44 28.5863 21.36C28.6929 21.3067 28.7996 21.24 28.9063 21.16C29.0663 21.0267 29.2396 20.8667 29.4263 20.68C29.6129 20.4933 29.7863 20.2667 29.9463 20C30.5329 18.96 30.5463 18.44 29.9863 18.44C30.1996 18.28 30.3463 18.16 30.4263 18.08C30.6929 17.8133 30.8663 17.4667 30.9463 17.04C31.0529 16.2133 30.9996 15.68 30.7863 15.44C30.6529 15.4133 30.3596 15.1333 29.9063 14.6C29.6663 14.3333 29.4663 14.1067 29.3063 13.92C29.1463 13.7333 29.0129 13.6133 28.9063 13.56C28.7463 13.1067 28.5063 12.6 28.1863 12.04C27.8929 11.48 27.5596 10.92 27.1863 10.36C26.8396 9.77333 26.4796 9.2 26.1063 8.64C25.7329 8.08 25.3863 7.56 25.0663 7.08C24.1063 5.64 23.2663 4.66667 22.5463 4.16L22.2663 3.08C22.5863 2.73333 22.9863 2.53333 23.4663 2.48C23.9996 2.42667 24.3729 2.24 24.5863 1.92L26.8663 1.2C27.3463 1.46667 27.7863 1.77333 28.1863 2.12C28.7463 2.62667 29.3196 2.97333 29.9063 3.16C29.9063 3.50667 30.0129 3.81333 30.2263 4.08C30.4396 4.34667 30.6796 4.6 30.9463 4.84C31.2129 5.05333 31.4663 5.25333 31.7063 5.44C31.9729 5.62667 32.1596 5.81333 32.2663 6C32.2663 6.02667 32.2796 6.12 32.3063 6.28C32.3596 6.41333 32.3863 6.56 32.3863 6.72C32.4129 6.88 32.4129 7.02667 32.3863 7.16C32.3863 7.26667 32.3463 7.32 32.2663 7.32C32.1329 7.32 32.1463 7.38667 32.3063 7.52C32.4663 7.65333 32.7729 7.82667 33.2263 8.04C33.2263 8.12 33.2796 8.26667 33.3863 8.48C33.5196 8.69333 33.6796 8.93333 33.8663 9.2C34.0529 9.46667 34.2396 9.74667 34.4263 10.04C34.6129 10.3067 34.7729 10.56 34.9063 10.8C35.1996 11.36 35.3996 11.8933 35.5063 12.4C35.6129 12.88 35.7063 13.1467 35.7863 13.2C35.8396 13.2 35.9463 13.1733 36.1063 13.12C36.2663 13.04 36.4396 12.96 36.6263 12.88C36.8129 12.7733 36.9729 12.6533 37.1063 12.52C37.2396 12.36 37.3063 12.2 37.3063 12.04C37.3063 11.88 37.2529 11.7467 37.1463 11.64L36.8663 11.28C36.7863 11.1467 36.7196 11.0267 36.6663 10.92C36.6129 10.8133 36.6129 10.7067 36.6663 10.6C36.9596 10.36 37.1729 10.16 37.3063 10C37.4396 9.81333 37.6129 9.57333 37.8263 9.28C37.8796 9.14667 37.9863 9 38.1463 8.84C38.3329 8.65333 38.5196 8.48 38.7063 8.32C38.9196 8.16 39.1063 8.02667 39.2663 7.92C39.4263 7.78667 39.5063 7.70667 39.5063 7.68C39.7196 7.25333 39.8929 6.84 40.0263 6.44C40.1596 6.01333 40.3329 5.41333 40.5463 4.64C40.5729 4.50667 40.6396 4.37333 40.7463 4.24C40.8796 4.10667 41.0129 3.98667 41.1463 3.88C41.3063 3.74667 41.4396 3.64 41.5463 3.56C41.6796 3.45333 41.7596 3.36 41.7863 3.28C41.8129 3.22667 41.8263 3.2 41.8263 3.2C41.8263 3.17333 41.8396 3.13333 41.8663 3.08L42.9063 2.16Z" fill="white"/>
</svg>
