<svg width="57" height="72" viewBox="0 0 57 72" fill="none" xmlns="http://www.w3.org/2000/svg">
<path d="M40.9901 21.2614C40.7173 18.5114 39.5469 16.375 37.4787 14.8523C35.4105 13.3295 32.6037 12.5682 29.0582 12.5682C26.6491 12.5682 24.6151 12.9091 22.956 13.5909C21.2969 14.25 20.0241 15.1705 19.1378 16.3523C18.2741 17.5341 17.8423 18.875 17.8423 20.375C17.7969 21.625 18.0582 22.7159 18.6264 23.6477C19.2173 24.5795 20.0241 25.3864 21.0469 26.0682C22.0696 26.7273 23.2514 27.3068 24.5923 27.8068C25.9332 28.2841 27.3651 28.6932 28.8878 29.0341L35.1605 30.5341C38.206 31.2159 41.0014 32.125 43.5469 33.2614C46.0923 34.3977 48.2969 35.7955 50.1605 37.4545C52.0241 39.1136 53.4673 41.0682 54.4901 43.3182C55.5355 45.5682 56.0696 48.1477 56.0923 51.0568C56.0696 55.3295 54.9787 59.0341 52.8196 62.1705C50.6832 65.2841 47.5923 67.7045 43.5469 69.4318C39.5241 71.1364 34.6719 71.9886 28.9901 71.9886C23.3537 71.9886 18.4446 71.125 14.2628 69.3977C10.1037 67.6705 6.85369 65.1136 4.51278 61.7273C2.1946 58.3182 0.978693 54.1023 0.865057 49.0795H15.1491C15.3082 51.4205 15.9787 53.375 17.1605 54.9432C18.3651 56.4886 19.9673 57.6591 21.9673 58.4545C23.9901 59.2273 26.2741 59.6136 28.8196 59.6136C31.3196 59.6136 33.4901 59.25 35.331 58.5227C37.1946 57.7955 38.6378 56.7841 39.6605 55.4886C40.6832 54.1932 41.1946 52.7045 41.1946 51.0227C41.1946 49.4545 40.7287 48.1364 39.7969 47.0682C38.8878 46 37.5469 45.0909 35.7741 44.3409C34.0241 43.5909 31.8764 42.9091 29.331 42.2955L21.7287 40.3864C15.8423 38.9545 11.1946 36.7159 7.78551 33.6705C4.37642 30.625 2.68324 26.5227 2.70597 21.3636C2.68324 17.1364 3.80824 13.4432 6.08097 10.2841C8.37642 7.125 11.5241 4.65909 15.5241 2.88636C19.5241 1.11363 24.0696 0.22727 29.1605 0.22727C34.3423 0.22727 38.8651 1.11363 42.7287 2.88636C46.6151 4.65909 49.6378 7.125 51.7969 10.2841C53.956 13.4432 55.0696 17.1023 55.1378 21.2614H40.9901Z" fill="white"/>
</svg>
