<svg width="230" height="230" viewBox="0 0 230 230" fill="none" xmlns="http://www.w3.org/2000/svg">
<path fill-rule="evenodd" clip-rule="evenodd" d="M90.275 176.774C59.845 178.846 27.3174 154.25 27.3174 124.315C27.3174 94.3789 75.5499 107.137 91.196 83.3778C128.684 26.4904 204.366 118.032 177.76 128.249C124.449 148.706 163.27 171.8 90.275 176.774Z" fill="#F0EFF4"/>
<path d="M173.422 123.111C173.438 123.191 173.48 123.266 173.497 123.346C173.631 124.094 173.717 124.602 173.628 125.256C173.415 126.653 172.438 128.007 173.003 129.777C173.611 132.285 176.683 133.81 177.509 131.324C177.983 129.681 177.177 127.683 176.275 125.869C175.772 124.897 175.193 123.965 174.544 123.084C175.255 123.037 175.954 122.881 176.617 122.621C176.757 122.565 176.871 122.515 177.011 122.46C177.05 122.479 177.115 122.494 177.155 122.514C178.373 121.998 179.372 121.497 180.611 121.17C182.742 120.557 185.441 119.942 185.643 117.662C185.664 116.939 185.001 116.212 184.308 115.684C183.371 115.056 182.227 114.815 181.116 115.013C179.202 115.251 177.881 116.396 177.165 117.81C176.725 118.699 176.521 119.707 176.383 120.73C176.353 121.234 176.234 121.783 176.359 122.311C175.546 122.637 174.647 122.759 173.693 122.781C173.646 122.768 173.597 122.768 173.551 122.781C173.209 122.789 172.868 122.773 172.529 122.733C172.451 121.172 173.087 119.719 173.645 118.226C173.827 117.637 174.074 117.063 174.137 116.414C174.627 116.563 175.134 116.649 175.646 116.67C176.591 116.733 177.395 116.187 177.034 115.29C176.39 114.089 174.158 113.506 172.947 113.274C171.916 113.116 170.87 113.09 169.832 113.196C169.689 113.2 169.548 113.219 169.408 113.251C170.017 112.661 170.599 112.076 171.168 111.467C171.676 110.952 172.156 110.387 172.65 109.847C174.265 110.193 175.736 111.093 177.233 111.987C179.05 113.151 180.949 114.409 182.81 113.821C184.375 113.264 184.293 111.289 182.513 110.091C180.707 108.897 178.542 108.383 176.626 108.262C175.847 108.212 175.066 108.227 174.29 108.307C174.214 108.322 174.123 108.312 174.02 108.333L175.355 106.908C176.11 106.123 176.879 105.363 177.634 104.578C177.725 104.588 177.841 104.593 177.958 104.598C178.451 104.667 178.659 104.681 179.166 104.775C180.43 105.051 181.713 105.463 182.974 105.684C184.184 105.885 185.414 105.931 186.634 105.821C187.522 105.729 188.46 105.628 189.194 105.262C190.521 104.586 190.65 103.039 188.758 101.946C187.105 101.091 185.232 100.756 183.385 100.984C182.899 101.08 182.319 101.111 181.888 101.306L181.525 100.963L181.576 100.953C182.624 100.387 183.782 99.9654 184.965 99.5384C186.518 99.0112 188.176 98.5189 189.858 97.9665C190.558 98.3541 191.166 98.6771 191.887 99.2545C193.823 100.782 195.204 103.248 197.087 105.035C198.378 106.275 201.762 108.457 203.389 108.165C206.747 107.559 200.362 102.758 198.842 101.619C197.097 100.331 195.219 99.2625 193.32 98.3087C192.691 97.9867 192.041 97.7081 191.374 97.4748C193.602 96.7317 195.803 95.9389 197.843 95.0116C198.211 94.8561 198.565 94.6758 198.894 94.5006L198.933 94.5203C199.182 94.6097 199.471 94.7188 199.734 94.8329C200.153 94.9717 201.012 95.4388 201.184 95.5433C204.533 97.5116 206.626 100.944 210.266 102.772C211.798 103.577 213.73 104.082 214.952 103.371C216.972 101.646 212.5 98.4324 210.443 97.095C208.495 95.9018 206.383 95.1285 204.281 94.5738C203.229 94.2807 202.153 94.0761 201.066 93.9621C200.728 93.9189 200.386 93.903 200.044 93.9144C202.569 92.5915 204.929 90.9757 207.075 89.1004C207.179 89.1349 207.296 89.1398 207.4 89.1746C208.002 89.3444 208.593 89.5514 209.169 89.7944C210.654 90.4147 211.781 91.1054 213.125 92.0857C214.789 93.2794 216.462 94.6925 218.446 95.1872C219.135 95.3005 219.926 95.3935 220.39 95.0534C220.788 94.6984 220.877 94.0446 220.465 93.4619C219.898 92.5502 218.888 91.8634 217.932 91.2224C217.06 90.6386 216.15 90.1155 215.206 89.6568C214.062 89.0794 212.862 88.6206 211.624 88.2876C210.635 88.008 209.63 87.7903 208.614 87.6355C208.985 87.2306 209.355 86.8258 209.712 86.3961L209.737 86.391C211.277 85.5346 213.084 84.9022 214.112 83.5382C214.527 82.9586 214.888 82.3343 214.842 81.5412C214.859 80.4037 213.216 79.3996 212.036 79.2724C210.802 79.0999 209.966 79.7906 209.667 80.6792C209.352 81.7924 209.637 83.0638 209.557 84.2413C209.539 84.7959 209.467 85.3474 209.342 85.888C209.33 85.9141 209.325 85.9425 209.326 85.9711C209.327 85.9996 209.335 86.0275 209.349 86.0525C208.918 86.5523 208.486 87.0521 208.004 87.5619C207.651 87.9319 207.277 88.2825 206.886 88.612C207.101 87.8782 207.027 87.0352 206.592 86.2085C206.322 85.6253 205.659 85.2027 205.005 84.9996C203.529 84.5987 203.121 85.6472 203.723 86.7733C204.174 87.6803 205.163 88.7858 205.125 89.4298C205.132 89.6063 205.127 89.783 205.108 89.9588C205.092 89.9882 205.082 90.0214 205.081 90.0554C205.081 90.0893 205.088 90.123 205.104 90.1532C204.057 90.9745 202.959 91.7267 201.815 92.4051C202.23 91.5213 202.538 90.5478 202.259 89.441C202.011 88.4388 200.985 87.3685 199.774 87.4408C198.64 87.4983 197.878 88.1184 197.261 88.7931C196.01 90.0629 195.8 92.1785 195.323 93.711C195.108 94.4448 194.749 95.124 194.376 95.7782C194.341 95.8681 194.203 95.9782 194.222 96.1129C191.297 97.1866 188.299 98.081 185.242 99.0702C183.931 99.522 182.634 99.9987 181.446 100.62C181.963 100.02 182.455 99.4253 182.932 98.8058C183.542 98.8793 184.094 98.7983 184.444 98.5082C184.83 98.1831 184.661 97.5251 184.165 97.097C184.419 96.6874 184.699 96.2728 184.939 95.8382C186.275 96.5987 187.562 97.1197 188.578 96.6986C189.437 96.2527 188.779 95.0269 187.876 94.4303C187.496 94.1703 187.093 93.9441 186.673 93.7543C187.117 93.4197 187.588 93.1234 188.082 92.8688C190.281 91.7168 192.901 91.0633 194.788 89.5568C195.738 88.8165 196.803 88.0259 197.062 86.8132C197.146 86.3541 197.175 85.7953 196.767 85.3223C195.22 83.829 193.117 84.7963 191.927 85.3625C190.903 85.8703 190.028 86.6333 189.385 87.5779C188.751 88.4771 188.343 89.5257 187.856 90.5343C187.649 90.9506 187.42 91.3558 187.171 91.748C187.231 91.6532 187.278 91.5333 187.338 91.4383C187.788 90.4646 188.159 89.4511 188.53 88.4378C188.582 88.4276 188.593 88.3976 188.644 88.3876C188.665 88.3736 188.682 88.3551 188.695 88.3335C188.707 88.3119 188.715 88.2877 188.717 88.2627C188.71 88.2074 188.69 88.1545 188.659 88.1082C188.67 88.0783 188.682 88.0483 188.708 88.0432C188.743 88.0507 188.78 88.0459 188.812 88.0294C188.844 88.013 188.87 87.9861 188.885 87.953C189.552 86.3004 191.637 83.3727 190.012 81.2311C189.792 81.0321 189.507 80.9208 189.211 80.9185C188.436 80.9051 188.032 81.4547 187.783 81.9741C187.219 83.3023 187.18 84.8588 187.57 86.4693C187.671 86.9214 187.798 87.3675 187.949 87.8054C188.005 87.9051 188.009 88.0148 188.091 88.1094C187.837 88.2147 187.597 88.345 187.343 88.4502C187.096 87.6631 186.92 86.8554 186.816 86.0369C186.668 84.9597 186.506 83.249 185.231 82.3936C185.035 82.2829 184.805 82.251 184.586 82.3044C184.368 82.3578 184.178 82.4925 184.055 82.6811C183.519 83.4504 183.772 84.5624 184.162 85.5641C184.508 86.4351 184.968 87.2561 185.53 88.0057C185.763 88.3281 186.027 88.6281 186.316 88.9019L186.33 88.9269C185.939 89.1423 185.548 89.3575 185.196 89.5927C183.863 90.4636 182.733 91.5436 181.615 92.5935C181.503 92.6985 181.403 92.7736 181.291 92.8786C181.14 92.6594 181.014 92.4352 180.889 92.2109C180.481 91.4777 180.13 90.7147 179.838 89.9284C179.332 88.6174 178.62 86.434 176.922 85.3302C176.377 84.9672 175.776 85.1131 175.545 85.4628C175.17 86.0622 175.556 86.9544 175.858 87.697C176.402 88.973 177.267 90.2132 178.233 91.3785C178.803 92.0408 179.359 92.678 179.991 93.3003C180.138 93.4098 180.261 93.5792 180.42 93.6586C179.674 94.3587 178.903 95.0636 178.132 95.7687C177.442 94.3834 177.002 93.1421 176.451 91.7016C175.919 90.3958 175.37 89.0106 174.2 87.8852C173.249 87.0491 172.184 87.231 171.909 88.0596C171.398 89.4326 172.042 91.242 172.907 92.7861C173.473 93.7277 174.151 94.5972 174.926 95.3758C175.389 95.8499 175.878 96.2985 176.389 96.7196C176.522 96.8041 176.643 96.9187 176.776 97.0032C176.415 97.3232 176.042 97.6732 175.681 97.9932L174.597 98.9534C174.572 98.9584 174.546 98.9635 174.56 98.9879C174.534 98.9929 174.549 99.0179 174.549 99.0179C174.274 99.238 173.987 99.488 173.712 99.7079L173.687 99.7128C172.764 97.7094 171.659 95.6864 169.982 93.8593C169.21 92.988 168.346 92.1068 167.288 91.4855C166.11 90.8046 164.304 90.2198 164.14 91.5521C164.078 92.8642 165.071 94.0793 166.277 95.1143C165.472 94.692 164.608 94.4195 163.793 94.3864C163.309 94.3616 162.834 94.5229 162.465 94.8373C162.097 95.1516 161.862 95.5952 161.81 96.0769C161.734 97.9728 163.672 99.8592 165.047 101.552C165.794 102.429 166.48 103.4 166.475 104.203C166.463 104.455 166.422 104.705 166.351 104.947C166.316 105.037 166.241 105.107 166.297 105.206C166.313 105.239 166.335 105.268 166.363 105.291C166.391 105.314 166.423 105.331 166.458 105.341C166.395 105.402 166.337 105.469 166.286 105.541C165.778 105.751 165.352 106.056 165.284 106.595C165.29 106.653 165.284 106.71 165.265 106.765C165.236 106.823 165.199 106.877 165.156 106.925C164.919 107.251 164.7 107.589 164.501 107.939C164.599 106.592 164.749 105.235 164.185 103.769C163.295 101.317 160.777 98.8527 160.036 96.5646C159.662 95.3382 159.777 94.3751 159.678 93.233C159.808 93.2626 159.922 93.2126 159.943 93.0977C160.009 92.8082 160.062 92.5488 160.142 92.2842C160.385 91.2959 160.585 90.5372 160.893 89.5638C161.064 89.0047 161.26 88.4406 161.456 87.8764L161.481 87.8714C161.842 87.8003 162.207 87.7561 162.574 87.7394C163.268 87.6581 164.935 87.6895 165.729 87.8375C167.377 88.0385 169.441 88.932 170.632 88.0615C171.519 87.3611 170.773 85.8765 169.605 85.1105C168.234 84.1356 166.523 83.6703 165.096 83.813C164.041 83.9101 163.249 84.4255 162.508 84.931C162.377 85.0166 162.242 85.0984 162.106 85.1762C162.258 84.4826 162.384 83.7938 162.554 83.2348C163.014 81.5673 163.751 80.0395 164.409 78.4717C164.539 78.5014 164.653 78.4513 164.77 78.456C165.079 78.4504 165.389 78.4445 165.687 78.469C166.587 78.5394 167.478 78.6877 168.353 78.9123C169.409 79.1744 170.485 79.5713 171.549 79.6943C173.055 79.8956 174.543 79.658 175.398 78.7981C176.188 77.9234 175.164 76.6036 173.91 75.9378C172.628 75.2222 171.207 74.9209 169.901 74.8739C167.988 74.8081 166.869 75.5537 166.163 76.8822C165.97 77.1969 165.497 77.6219 165.112 77.6976C164.976 77.7478 164.835 77.7848 164.691 77.8082C164.81 77.5636 164.889 77.299 164.994 77.0294C165.584 75.3918 165.709 73.7354 166.721 72.2914C167.259 71.5769 168.407 70.6316 168.976 69.7175C169.256 69.3029 169.536 68.8882 169.776 68.4538C171.545 68.1606 173.782 68.5499 175.748 68.3013C176.479 68.185 177.205 67.959 177.597 67.4388C178.392 66.3693 177.645 65.1888 175.981 64.6037C174.21 63.9291 172.754 64.6306 171.608 65.3263C171.24 65.5737 170.909 65.8718 170.625 66.2118C170.719 65.8689 170.834 65.5321 170.97 65.2034C171.252 64.5393 171.597 64.1394 172.184 63.6644C172.838 63.2201 173.452 62.7198 174.02 62.1694C174.454 61.9267 174.874 61.6593 175.277 61.3685C175.804 60.9883 176.33 60.608 176.617 60.0537C177.025 59.3095 177.221 58.1368 176.153 57.296C175.565 56.8034 174.68 56.6457 174.121 56.8664C172.782 57.5726 172.624 59.6781 172.998 61.2088C173.089 61.5231 173.179 61.8372 173.27 62.1511L173.284 62.1759C173.035 62.3909 172.785 62.606 172.522 62.7961C172.055 63.0986 171.624 63.4526 171.236 63.8514C171.213 62.9985 171.538 62.1048 171.473 61.1771C171.425 59.7205 170.337 58.0817 168.759 57.0922C166.788 55.9591 165.223 56.8205 165.645 58.5904C165.821 59.4133 166.333 60.2253 166.831 61.0125C167.422 61.8641 168.052 62.7358 168.834 63.5223C169.225 63.9156 169.653 64.2738 170.095 64.657C170.227 64.7706 170.37 64.8722 170.52 64.9605C170.247 65.5398 170.107 66.2034 169.914 66.8225C169.604 67.744 169.148 68.6093 168.561 69.3844C168.042 70.2336 166.905 71.149 166.219 72.0583C166.088 72.2347 165.975 72.4238 165.882 72.6228C165.855 72.568 165.818 72.519 165.772 72.4784C165.477 71.2917 165.481 70.1294 165.342 68.9673C165.124 66.8526 164.257 64.6446 161.672 63.3281C160.51 62.727 159 62.4159 158.228 63.1211C157.359 63.956 157.5 65.4772 158.289 66.7321C159.398 68.5606 161.346 70.0579 163.282 71.2809C164.064 71.7632 164.771 72.0112 165.283 72.5189L165.311 72.5687C165.348 72.7286 165.398 72.8852 165.459 73.0373C165.478 73.0669 165.503 73.0918 165.533 73.1099C165.563 73.128 165.597 73.1389 165.632 73.1417C165.126 74.32 164.911 75.6624 164.493 76.7957C163.866 78.4683 163.08 80.0617 162.453 81.7337C162.381 81.5543 162.29 81.2403 162.218 81.0609C161.928 80.1633 161.692 79.2494 161.51 78.3239C160.997 75.9354 160.279 72.9787 157.31 71.4336C153.425 69.6261 150.302 71.8177 152.825 75.3592C154.209 77.2718 156.396 78.6391 158.575 79.7867C159.673 80.4278 160.87 80.9391 161.624 81.6758C161.749 81.836 161.856 82.0098 161.942 82.1939C161.998 82.2935 161.988 82.378 162.082 82.443L162.2 82.5026C162.156 82.6774 162.086 82.857 162.042 83.0316C161.678 84.2097 161.486 85.4926 161.201 86.7099C161.132 87.0108 161.041 87.3061 160.928 87.5934C160.902 87.5985 160.917 87.6234 160.905 87.6533C160.835 87.8331 160.791 88.0078 160.721 88.1875C159.474 86.773 158.793 84.999 157.579 83.4402C156.386 82.0708 154.531 80.6381 152.722 80.6071C150.063 80.6326 151.872 84.0659 153.338 85.4646C154.536 86.6393 156.07 87.499 157.643 88.0744C157.824 88.7026 158.057 89.3206 158.303 89.9637C158.126 89.7496 157.924 89.5404 157.747 89.3263C157.247 88.7886 156.049 87.3095 155.313 87.6205C154.621 88.0609 155.749 89.4154 156.44 89.8878C157.096 90.3778 157.832 90.7477 158.617 90.9803L158.642 90.9752C158.828 91.5348 158.96 92.1108 159.037 92.6955C159.095 93.1572 159.127 93.6217 159.134 94.087C159.08 94.0423 159.013 93.972 158.959 93.9279C158.703 93.6739 158.473 93.4151 158.243 93.1561C157.714 92.5686 157.238 91.9716 156.572 91.4935C155.332 90.5484 154.244 91.0944 155.084 92.3397C155.73 93.2911 156.95 93.7427 157.995 94.0346C158.205 94.1036 158.728 94.2775 158.97 94.5061L158.984 94.531C159.038 94.5758 159.066 94.6257 159.119 94.6704C159.177 95.7379 159.339 96.84 160.018 97.951C161.301 100.243 163.384 102.488 163.838 104.722C164.126 106.353 163.729 107.98 163.814 109.706C163.845 111.691 164.307 113.785 164.403 115.786C164.442 116.11 164.482 116.434 164.533 116.729C163.842 115.952 163.114 115.21 162.348 114.503C160.766 113.1 159.158 111.702 157.664 110.253C157.672 110.115 157.701 109.978 157.751 109.849C157.889 109.347 158.1 108.868 158.375 108.426C159.065 107.322 160.67 106.176 160.967 104.624C161.439 102.623 158.912 101.156 157.044 101.884C155.411 102.675 155.421 104.775 155.583 106.486C155.668 107.188 155.809 107.882 156.005 108.561L155.803 108.352C154.749 107.231 153.745 106.046 152.702 104.896C152.697 104.786 152.588 104.642 152.544 104.512C152.397 104.253 152.273 103.981 152.174 103.7C151.814 102.803 151.507 101.342 151.522 100.454C151.491 98.4683 152.708 96.9841 152.204 94.8152C151.956 93.5087 150.42 91.6812 148.981 92.4625C148.527 92.7178 148.314 93.2022 148.126 93.6267C147.82 94.3512 147.713 95.174 147.735 96.027C147.782 97.2657 148.042 98.4871 148.505 99.637C148.789 100.367 149.12 101.078 149.498 101.765C147.625 100.197 145.579 98.8297 143.722 97.3421C143.735 97.3112 143.739 97.2778 143.736 97.2447C143.732 97.2117 143.72 97.18 143.701 97.1526C143.665 96.9935 143.641 96.8317 143.63 96.6688C143.597 96.205 143.663 95.3068 143.889 94.8474C144.724 93.1894 145.675 91.5362 145.577 89.4812C145.515 87.0867 144.831 83.0724 141.492 81.6278C139.206 80.6949 138.168 82.4481 138.158 84.0543C137.991 86.8532 139.537 89.868 140.806 92.7437C141.32 93.915 141.708 94.8619 142.114 95.9436C141.634 95.4963 141.179 95.0226 140.751 94.5247C139.569 93.1255 138.737 91.7404 137.741 90.1662C136.881 88.7314 135.918 87.3166 135.058 85.8818C134.89 85.5828 134.735 85.2539 134.567 84.9549C134.584 84.9383 134.597 84.9183 134.605 84.8963C134.613 84.8742 134.616 84.8506 134.613 84.8272C134.611 84.8039 134.604 84.7813 134.592 84.7611C134.58 84.7409 134.564 84.7236 134.544 84.7105C133.327 83.4011 132.579 82.1655 131.488 80.776C129.824 78.6694 127.889 76.5334 125.439 75.0521C124.352 74.381 123.171 74.2538 122.771 75.1625C122.53 75.9014 122.956 76.8133 123.365 77.6456C123.797 78.4179 124.27 79.2096 124.893 79.9171C125.91 81.0722 127.152 82.0724 128.444 83.0075C129.935 84.0603 131.516 84.98 133.168 85.756L134.788 86.5158C134.828 86.5359 134.873 86.546 134.918 86.5454C135.474 87.4871 136.121 88.4385 136.702 89.3751C136.534 89.344 136.369 89.3027 136.206 89.2514C135.406 89.0516 134.628 88.7691 133.886 88.4083C131.211 87.137 128.717 85.2217 125.788 84.3603C125.228 84.2223 124.643 84.1433 124.212 84.3388C123.97 84.4628 123.781 84.6717 123.682 84.9257C123.583 85.1797 123.581 85.4612 123.676 85.7167C124.059 86.8583 125.274 87.8086 126.414 88.5245C129.065 90.1601 132.133 91.271 134.906 91.1952C135.835 91.1782 136.748 91.0815 137.523 90.7905L137.549 90.7855C138.393 92.1407 139.262 93.4906 140.335 94.7455C141.259 95.8361 142.37 96.8064 143.518 97.687C143.694 97.8338 143.877 97.9732 144.065 98.1048C142.736 97.8134 141.5 97.2822 140.105 96.6715C138.672 96.0411 137.24 95.4654 135.76 94.9548C133.993 94.3898 132.052 93.6657 130.41 93.9335C129.411 94.1303 129.206 95.0835 129.915 95.9949C130.559 96.8919 131.632 97.5377 132.6 98.1492C134.237 99.1139 136.013 99.8186 137.865 100.238C139.73 100.673 141.586 100.889 143.35 100.79C144.561 100.718 145.809 100.61 146.878 100.234C146.904 100.229 146.89 100.204 146.89 100.204C148.33 101.303 149.745 102.408 150.957 103.608C151.699 104.375 152.416 105.146 153.107 105.923C151.279 105.817 149.467 105.525 147.699 105.052C145.196 104.493 142.091 103.417 140.407 104.828C139.368 105.613 139.781 107.164 141.154 108.193C142.474 109.178 144.078 109.554 145.542 109.681C147.812 109.925 149.693 109.223 151.336 108.347C152.044 107.986 152.94 107.505 153.553 107.329C153.726 107.267 153.907 107.232 154.091 107.223L154.244 107.193C154.705 107.71 155.205 108.249 155.691 108.761C155.88 108.945 156.043 109.135 156.217 109.294L156.245 109.344C156.273 109.394 156.313 109.414 156.392 109.453L157.16 110.215C157.157 110.243 157.16 110.272 157.17 110.299C157.18 110.326 157.196 110.35 157.217 110.369C157.275 110.416 157.343 110.45 157.415 110.469C158.653 111.663 159.953 112.818 161.28 113.968C162.414 114.947 163.481 116.003 164.472 117.128C164.525 117.173 164.567 117.248 164.635 117.318C164.646 117.382 164.644 117.448 164.63 117.512C164.468 119.204 164.748 120.974 165.043 122.769C163.964 123.535 162.069 123.299 160.602 123.727C159.582 124.038 158.762 124.808 158.82 125.875C158.856 127.058 159.789 128.368 161.111 129.103C162.924 130.157 164.668 129.26 164.986 127.898C165.28 126.899 165.353 125.862 165.438 124.794C165.707 125.985 165.964 127.207 166.078 128.374C166.258 129.611 166.078 130.863 166.108 132.185C166.142 132.4 166.086 132.604 166.172 132.809C166.31 133.003 166.657 132.962 166.622 132.748C166.538 131.99 166.637 130.947 166.652 130.059C166.634 129.184 166.572 128.31 166.465 127.44C166.291 126.064 165.896 124.648 165.618 123.237L165.646 122.982C165.65 122.969 165.651 122.955 165.648 122.941C165.645 122.927 165.639 122.914 165.63 122.903C165.86 122.857 165.858 122.802 166.012 122.772C166.866 122.521 167.756 122.485 168.701 122.547C168.667 122.637 168.696 122.742 168.647 122.806C168.617 123.006 168.57 123.126 168.549 123.241C168.335 123.974 167.987 124.624 167.654 125.298C167.034 126.526 166.334 128.019 167.371 129.668C169.104 132.508 172.429 132.047 171.718 129.255C171.382 127.689 170.072 126.011 169.575 124.615C169.408 124.012 169.366 123.632 169.511 123.078C169.535 122.934 169.582 122.794 169.649 122.664C170.48 122.777 171.3 122.92 172.156 123.028C172.576 123.083 172.999 123.111 173.422 123.111ZM158.415 89.0015C158.313 88.7174 158.237 88.4282 158.148 88.169C158.358 88.238 158.593 88.3028 158.788 88.3473C159.273 88.5009 159.598 88.575 159.984 88.8585L159.998 88.8834L160.038 88.9033C160.145 88.9929 160.215 89.1174 160.333 89.177C160.322 89.207 160.336 89.232 160.31 89.2369C159.978 90.2268 159.697 91.2331 159.468 92.2519C159.456 92.2818 159.47 92.3067 159.445 92.3118C159.296 91.2346 158.836 90.1081 158.415 89.0015ZM167.882 115.047C168.164 114.991 169.237 115.029 169.498 115.088C169.748 115.125 169.996 115.178 170.24 115.246C169.864 115.872 169.646 116.579 169.603 117.308C169.332 117.038 169.022 116.81 168.684 116.631C168.063 116.256 167.378 115.997 166.664 115.867L166.65 115.842C166.86 115.608 167.069 115.373 167.293 115.163L167.319 115.158C167.5 115.094 167.69 115.057 167.882 115.047ZM175.518 105.881C175.334 104.775 175.016 103.695 174.57 102.665C174.28 101.985 173.955 101.32 173.596 100.672C173.532 100.552 173.458 100.437 173.375 100.328L173.788 99.9982C174.763 100.47 175.626 101.047 176.599 101.768C177.132 102.161 177.707 102.629 178.319 103.062C177.403 104.017 176.448 104.951 175.518 105.881L175.518 105.881ZM184.983 90.0771C185.708 89.5669 186.475 89.1197 187.277 88.7402C187.442 88.6801 187.568 88.5999 187.733 88.5398C187.442 89.2887 187.164 90.0625 186.833 90.7915C186.502 91.5205 186.132 92.2297 185.76 92.9389C185.74 92.9529 185.722 92.9714 185.71 92.993C185.697 93.0146 185.69 93.0388 185.688 93.0638C185.665 93.1237 185.628 93.1586 185.604 93.2185C184.775 92.9716 183.919 92.8244 183.055 92.78C182.641 92.751 182.252 92.7169 181.851 92.7128C182.897 91.7878 183.918 90.8678 184.983 90.0773V90.0771ZM181.031 93.4835C181.976 93.8507 183.161 94.6962 184.392 95.4219C184.138 95.8315 183.909 96.236 183.641 96.6207C183.187 96.3717 182.696 96.1976 182.187 96.105C180.951 95.8648 179.686 95.8153 178.436 95.9584C179.293 95.1528 180.188 94.3129 181.031 93.4835ZM176.805 97.4135C176.897 97.337 176.984 97.2552 177.066 97.1686C177.236 97.2181 177.429 97.2077 177.599 97.2572C178.251 97.4055 178.931 97.6036 179.585 97.8067C180.304 98.0246 181.3 98.3817 182.224 98.5594C181.747 99.179 181.229 99.7784 180.712 100.378C180.06 99.9258 179.325 99.6281 178.592 99.3852C177.924 99.1536 177.233 98.993 176.532 98.9058C176.078 98.8568 175.638 98.8328 175.198 98.8088C175.759 98.3383 176.295 97.873 176.805 97.4129V97.4135ZM167.847 103.354C168.282 102.66 168.716 101.91 168.954 101.117C169.191 101.54 169.428 101.964 169.705 102.407C168.883 102.988 168.095 103.614 167.343 104.283C167.511 103.973 167.678 103.663 167.846 103.353L167.847 103.354ZM167.095 105.161C167.999 104.305 168.963 103.514 169.979 102.795C170.814 104.034 171.766 105.189 172.822 106.246C173.185 106.59 173.587 106.953 173.962 107.266C174.007 107.308 174.056 107.344 174.109 107.376C173.503 108.021 172.911 108.69 172.319 109.36C172.293 109.352 172.265 109.35 172.238 109.355C172.211 109.36 172.186 109.373 172.165 109.39C172.147 109.399 172.131 109.411 172.118 109.427C172.104 109.442 172.095 109.46 172.089 109.48C172.084 109.499 172.083 109.52 172.087 109.54C172.09 109.56 172.098 109.579 172.109 109.595C171.776 109.965 171.469 110.33 171.121 110.675C170.871 109.618 170.671 108.551 170.162 107.489C169.525 106.148 168.471 105.028 167.095 105.161ZM164.901 115.716C164.768 113.447 164.25 111.253 164.303 109.113C164.31 108.973 164.303 108.809 164.311 108.669C164.583 108.698 164.618 108.304 164.753 108.139C164.909 107.859 165.08 107.605 165.25 107.35C165.484 108.023 165.966 108.73 166.494 109.318C167.224 110.114 168.26 110.491 169.184 110.973C169.361 111.074 169.53 111.189 169.689 111.316C169.703 111.341 169.757 111.386 169.771 111.411C169.81 111.431 169.88 111.555 169.92 111.575C169.972 111.643 170.014 111.719 170.045 111.799C169.104 112.759 168.083 113.679 167.116 114.644C167.202 113.937 167.202 113.222 167.118 112.514C167.046 112.03 166.932 111.472 166.525 110.999C166.228 110.67 165.669 110.587 165.433 110.826C165.184 111.041 165.186 111.401 165.174 111.735C165.213 112.363 165.409 113.016 165.641 113.634C165.837 114.154 165.993 114.687 166.108 115.23C166.139 115.362 166.158 115.498 166.163 115.634C165.781 116.069 165.413 116.528 165.059 117.013C165.015 116.579 164.945 116.15 164.901 115.716H164.901ZM165.965 122.339C165.791 122.377 165.621 122.43 165.455 122.495L165.429 122.5C165.239 121.348 165.082 120.051 165.018 119.123C164.999 118.939 164.999 118.754 165.02 118.57C165.034 118.593 165.053 118.613 165.077 118.628C165.1 118.642 165.126 118.651 165.153 118.654C165.362 118.723 165.511 118.584 165.4 118.384C165.356 118.255 165.337 118.12 165.293 117.99C165.396 117.97 165.47 117.9 165.44 117.796C165.465 117.79 165.465 117.79 165.505 117.81C165.76 117.824 166.014 117.867 166.259 117.938C166.743 118.092 167.614 118.529 168.294 118.727C168.752 118.886 169.271 118.95 169.642 118.849C169.676 119.164 169.737 119.476 169.823 119.782C170.079 120.718 170.505 121.6 171.08 122.383C171.108 122.433 171.162 122.478 171.19 122.527C169.525 122.247 167.472 121.932 165.965 122.339H165.965Z" fill="#DAD8E4"/>
<path fill-rule="evenodd" clip-rule="evenodd" d="M64.3981 92.1453C53.907 94.623 38.1488 103.628 34.5184 86.9515C32.0313 75.525 61.5664 76.5007 67.7005 70.1696C81.1944 56.2424 101.964 68.8422 93.0827 73.3194C75.2869 82.2862 89.5648 86.2002 64.3981 92.1453Z" fill="#F0EFF4"/>
<path fill-rule="evenodd" clip-rule="evenodd" d="M144.523 110.768C140.567 116.695 100.726 119.946 95.5471 112.662C87.5431 101.415 110.594 69.2727 110.594 69.2727C110.297 67.7364 110.241 64.0226 111.452 62.5733C113.285 60.3705 110.558 58.2784 112.254 57.8033C114.435 57.1948 116.182 59.2546 119.98 60.2846C122.231 60.8886 121.917 66.7958 119.789 70.1022C119.032 71.2752 117.585 71.3823 117.585 71.3823C117.585 71.3823 108.693 93.2624 110.582 97.4528C112.924 102.636 124.076 96.6683 141.21 94.2496C149.405 93.0915 146.703 107.501 144.523 110.768Z" fill="#FFC197"/>
<mask id="mask0_282_4185" style="mask-type:luminance" maskUnits="userSpaceOnUse" x="93" y="57" width="54" height="60">
<path d="M144.523 110.768C140.567 116.695 100.726 119.946 95.5471 112.662C87.5431 101.415 110.594 69.2727 110.594 69.2727C110.297 67.7364 110.241 64.0226 111.452 62.5733C113.285 60.3705 110.558 58.2784 112.254 57.8033C114.435 57.1948 116.182 59.2546 119.98 60.2846C122.231 60.8886 121.917 66.7958 119.789 70.1022C119.032 71.2752 117.585 71.3823 117.585 71.3823C117.585 71.3823 108.693 93.2624 110.582 97.4528C112.924 102.636 124.076 96.6683 141.21 94.2496C149.405 93.0915 146.703 107.501 144.523 110.768Z" fill="white"/>
</mask>
<g mask="url(#mask0_282_4185)">
<path fill-rule="evenodd" clip-rule="evenodd" d="M122.481 94.7544C123.981 95.9044 124.335 98.628 124.589 100.332C124.859 102.133 124.777 103.981 124.175 105.717C123.27 108.33 121.394 110.466 120.622 113.127C120.05 115.106 120.187 117.336 120.858 119.279C121.17 120.187 121.644 121.032 122.255 121.773C125.88 126.142 133.343 124.511 137.92 122.975C143.071 121.246 148.159 117.953 150.817 113.068C154.94 105.495 151.199 96.1528 144.096 91.9532C141.278 90.307 138.105 89.3647 134.846 89.2063C130.975 89.0031 127.001 89.7375 123.656 91.7402L122.481 94.7544Z" fill="#FE9400"/>
<path fill-rule="evenodd" clip-rule="evenodd" d="M107.411 70.686C104.838 75.5424 101.518 86.1612 99.7864 91.3438C97.5764 97.9979 96.6961 103.042 100.093 109C104.111 116.07 117.524 113.307 124.087 111.491C125.536 111.089 126.966 110.624 128.374 110.098C130.359 109.371 132.288 108.497 134.143 107.482C137.97 105.343 141.165 102.404 144.026 99.1077C144.848 98.1625 145.585 97.1297 146.456 96.2307C146.714 95.962 147.106 95.5658 147.527 95.6147C148.235 95.696 148.398 97.0019 148.493 97.51C148.857 99.6145 148.828 101.813 148.685 103.936C148.12 112.327 145.394 120.709 137.893 125.292C133.262 128.123 127.493 129.003 122.212 129.778C116.94 130.551 111.391 131.25 106.053 130.763C96.5236 129.895 86.4683 125.754 81.2543 117.303C75.227 107.514 78.0015 94.4303 82.9479 84.801C84.1821 82.4005 85.6076 80.0919 87.3011 77.9881C90.6016 73.8884 95.0219 70.1566 100.236 68.9048L107.411 70.686Z" fill="black" fill-opacity="0.1"/>
</g>
<path fill-rule="evenodd" clip-rule="evenodd" d="M59.0803 58.988C58.6108 58.249 57.7185 57.7185 56.695 57.569C55.6867 57.407 54.6548 57.6393 53.8132 58.2177L10.3785 89.4828C9.25254 90.2933 8.9425 91.6096 9.62606 92.6856L64.2879 178.729C64.7642 179.479 65.6491 179.998 66.6799 180.159C67.6881 180.321 68.7201 180.088 69.5616 179.51L112.996 148.245C114.122 147.434 114.432 146.118 113.748 145.042L59.0803 58.988ZM58.4276 59.2525L113.096 145.307C113.628 146.144 113.388 147.172 112.502 147.81L69.0678 179.075C68.4084 179.526 67.6024 179.71 66.8126 179.589C66.0038 179.474 65.3134 179.053 64.9406 178.466L10.2789 92.4216C9.74026 91.5738 9.97992 90.5457 10.8654 89.908L54.2997 58.643C54.9591 58.1921 55.7651 58.0083 56.5549 58.1286C57.3713 58.2541 58.0547 58.6651 58.4276 59.2519V59.2525Z" fill="#77536F"/>
<path fill-rule="evenodd" clip-rule="evenodd" d="M67.4859 58.2029C67.4065 58.0759 67.3015 57.9669 67.1775 57.8829C67.0535 57.799 66.9133 57.7419 66.7659 57.7153C66.6212 57.6878 66.4724 57.6894 66.3283 57.7199C66.1842 57.7504 66.0476 57.8094 65.9264 57.8932L19.635 91.2146C19.4083 91.3791 19.2532 91.6242 19.2015 91.8995C19.1498 92.1748 19.2054 92.4594 19.3568 92.6951L73.4837 177.897C73.5622 178.022 73.6663 178.13 73.7892 178.212C73.912 178.294 74.051 178.349 74.1968 178.374C74.3414 178.404 74.4909 178.404 74.6356 178.374C74.7802 178.343 74.9169 178.283 75.0368 178.196L121.328 144.875C121.555 144.713 121.711 144.47 121.764 144.197C121.817 143.923 121.763 143.64 121.613 143.405L67.4859 58.2029Z" fill="#A9A5C6"/>
<path fill-rule="evenodd" clip-rule="evenodd" d="M102.591 125.203C101.821 123.99 100.389 123.13 98.709 122.883C97.0294 122.636 95.3056 123.024 94.0363 123.937L69.8503 141.346C66.7683 143.565 65.9377 147.145 67.8113 150.094C68.5818 151.307 70.0135 152.166 71.693 152.413C73.3724 152.659 75.0964 152.272 76.3598 151.363L100.552 133.949C103.627 131.735 104.465 128.152 102.591 125.203ZM102.07 125.411L102.071 125.412C103.825 128.173 103.04 131.529 100.159 133.603L75.9675 151.016C74.8405 151.828 73.2974 152.176 71.7978 151.955C70.3043 151.73 69.0198 150.968 68.3321 149.885C66.578 147.124 67.3624 143.768 70.2433 141.695L94.4351 124.28C95.5621 123.469 97.1052 123.121 98.5981 123.345C100.097 123.566 101.382 124.328 102.07 125.411H102.07Z" fill="white"/>
<path fill-rule="evenodd" clip-rule="evenodd" d="M122.047 117.475C121.561 116.71 120.923 116.052 120.174 115.542C119.424 115.032 118.578 114.681 117.688 114.509C116.798 114.338 115.882 114.35 114.996 114.545C114.111 114.74 113.275 115.114 112.539 115.644L81.5885 137.923C80.0254 139.047 78.9516 140.727 78.5873 142.618C78.2231 144.509 78.5959 146.467 79.6293 148.092C80.1154 148.857 80.7528 149.516 81.5024 150.026C82.252 150.536 83.098 150.888 83.9884 151.059C84.8788 151.231 85.7949 151.218 86.6804 151.023C87.5658 150.828 88.4021 150.453 89.1377 149.923L120.088 127.644C121.65 126.519 122.723 124.839 123.087 122.949C123.451 121.059 123.08 119.101 122.048 117.476L122.047 117.475Z" fill="#77536F"/>
<path fill-rule="evenodd" clip-rule="evenodd" d="M86.276 100.35C86.0796 100.041 85.822 99.7749 85.5191 99.5689C85.2162 99.3629 84.8744 99.221 84.5147 99.1519C84.155 99.0828 83.785 99.088 83.4273 99.1671C83.0697 99.2463 82.732 99.3977 82.435 99.6121L52.1764 121.393C51.5488 121.844 51.1175 122.518 50.971 123.277C50.8245 124.036 50.9738 124.823 51.3883 125.475C51.5845 125.783 51.8415 126.049 52.1438 126.255C52.446 126.46 52.787 126.602 53.146 126.672C53.505 126.741 53.8744 126.736 54.2315 126.658C54.5887 126.58 54.9261 126.43 55.2231 126.216L85.4879 104.431C86.1155 103.981 86.5469 103.307 86.6935 102.548C86.8401 101.789 86.6908 101.003 86.2763 100.35L86.276 100.35ZM92.7144 110.482C92.5179 110.173 92.2604 109.907 91.9575 109.701C91.6546 109.495 91.3128 109.353 90.9531 109.284C90.5934 109.215 90.2234 109.22 89.8657 109.299C89.5081 109.378 89.1704 109.53 88.8734 109.744L58.6147 131.525C57.9871 131.977 57.5558 132.651 57.4093 133.41C57.2627 134.169 57.412 134.955 57.8266 135.607C58.0227 135.916 58.2798 136.181 58.582 136.387C58.8843 136.593 59.2253 136.735 59.5843 136.804C59.9433 136.873 60.3126 136.869 60.6698 136.791C61.0269 136.712 61.3643 136.562 61.6614 136.349L91.9259 114.564C92.5536 114.113 92.9849 113.439 93.1315 112.68C93.2781 111.921 93.1289 111.135 92.7144 110.482V110.482Z" fill="white"/>
<path d="M89.6719 141.734L90.5171 141.037C90.5964 141.117 90.6924 141.178 90.7983 141.217C90.9041 141.255 91.0171 141.27 91.1293 141.26C91.4042 141.218 91.663 141.103 91.8794 140.928C92.1171 140.776 92.3156 140.57 92.4586 140.327C92.5492 140.137 92.5595 139.982 92.487 139.867C92.4639 139.831 92.4323 139.8 92.3948 139.779C92.3573 139.757 92.3152 139.745 92.272 139.743C92.1287 139.747 91.988 139.782 91.8592 139.845C91.7408 139.894 91.4692 140.025 91.0464 140.228C90.5082 140.497 90.1022 140.641 89.8256 140.656C89.441 140.684 89.1735 140.574 89.0158 140.325C88.9122 140.148 88.8791 139.939 88.9231 139.739C88.9824 139.473 89.1058 139.225 89.2826 139.017C89.5202 138.734 89.7948 138.485 90.0991 138.275C90.665 137.868 91.1449 137.647 91.5389 137.613C91.9327 137.578 92.2252 137.706 92.4202 137.981L91.5356 138.659C91.4748 138.597 91.4005 138.55 91.3186 138.522C91.2367 138.493 91.1493 138.484 91.0632 138.495C90.8278 138.546 90.6076 138.651 90.4208 138.803C90.2004 138.947 90.0143 139.138 89.8758 139.361C89.8433 139.403 89.8237 139.453 89.8196 139.506C89.8155 139.559 89.8271 139.611 89.8528 139.657C89.8824 139.696 89.9223 139.725 89.9678 139.742C90.0134 139.758 90.0627 139.761 90.1101 139.751C90.2683 139.732 90.5908 139.607 91.0745 139.36C91.436 139.169 91.813 139.009 92.2015 138.881C92.4269 138.809 92.6669 138.795 92.899 138.841C93.1057 138.894 93.2831 139.027 93.3922 139.21C93.51 139.409 93.5478 139.645 93.4978 139.87C93.4394 140.161 93.3055 140.431 93.1096 140.654C92.8474 140.964 92.5446 141.238 92.2092 141.468C91.6387 141.879 91.1468 142.102 90.7265 142.138C90.5312 142.16 90.3334 142.135 90.1498 142.065C89.9662 141.995 89.8023 141.881 89.6719 141.734ZM93.0942 137.004L92.7426 136.451L93.6031 135.831L93.9548 136.385L93.0942 137.004ZM94.7287 139.577L93.288 137.31L94.1485 136.691L95.589 138.958L94.7287 139.577ZM96.4867 138.525L97.5232 137.904C97.5483 137.936 97.5816 137.961 97.6197 137.975C97.6577 137.99 97.6989 137.994 97.739 137.986C97.8966 137.948 98.0436 137.875 98.1685 137.772C98.3456 137.655 98.5015 137.508 98.6296 137.339C98.6828 137.259 98.7083 137.163 98.7023 137.067C98.6815 136.956 98.6358 136.851 98.5685 136.76L98.359 136.43C98.2535 136.866 97.9897 137.246 97.619 137.497C97.1794 137.813 96.7505 137.932 96.335 137.858C96.1723 137.83 96.0176 137.767 95.8816 137.673C95.7456 137.579 95.6316 137.457 95.5474 137.315C95.4312 137.149 95.3566 136.958 95.3299 136.757C95.3032 136.557 95.3253 136.352 95.3941 136.162C95.542 135.752 95.8175 135.399 96.1803 135.157C96.5277 134.883 96.9693 134.757 97.4091 134.806L97.2074 134.489L98.0124 133.91L99.3055 135.945C99.4458 136.145 99.5433 136.372 99.5921 136.611C99.6124 136.783 99.5892 136.957 99.5247 137.117C99.4374 137.303 99.3202 137.474 99.1776 137.622C98.971 137.841 98.7419 138.038 98.4941 138.209C97.942 138.606 97.5079 138.824 97.1934 138.854C96.8815 138.889 96.6585 138.806 96.5292 138.603C96.5131 138.578 96.4989 138.552 96.4867 138.525ZM96.4107 136.646C96.5633 136.886 96.74 137.014 96.948 137.03C97.1648 137.04 97.378 136.973 97.5498 136.84C97.7473 136.706 97.8962 136.511 97.9744 136.286C98.0091 136.174 98.0173 136.056 97.9985 135.941C97.9798 135.826 97.9344 135.717 97.8662 135.622C97.7167 135.386 97.5348 135.261 97.3268 135.245C97.0964 135.238 96.8709 135.312 96.6897 135.454C96.4999 135.583 96.3579 135.771 96.2859 135.988C96.2564 136.1 96.2523 136.217 96.2739 136.331C96.2955 136.445 96.3422 136.553 96.4107 136.646ZM103.264 133.433L102.403 134.053L101.669 132.897C101.514 132.652 101.394 132.507 101.31 132.461C101.222 132.417 101.123 132.404 101.026 132.422C100.904 132.447 100.788 132.5 100.688 132.576C100.547 132.675 100.428 132.803 100.34 132.951C100.264 133.071 100.229 133.213 100.242 133.354C100.294 133.558 100.384 133.751 100.508 133.922L101.159 134.948L100.299 135.568L98.8584 133.3L99.6581 132.724L99.8703 133.058C99.9996 132.587 100.293 132.178 100.698 131.904C100.873 131.777 101.064 131.673 101.266 131.596C101.417 131.54 101.577 131.515 101.738 131.524C101.857 131.538 101.97 131.583 102.066 131.655C102.187 131.76 102.289 131.885 102.369 132.024L103.264 133.433ZM103.892 128.425L104.8 127.772L105.875 129.465C105.98 129.643 106.102 129.809 106.239 129.963C106.307 130.013 106.384 130.048 106.466 130.066C106.549 130.085 106.634 130.086 106.716 130.07C107.2 129.942 107.619 129.642 107.897 129.226C107.977 129.094 108.001 128.936 107.965 128.786C107.887 128.589 107.787 128.403 107.666 128.229L106.567 126.499L107.475 125.846L108.517 127.487C108.755 127.861 108.902 128.147 108.949 128.338C109 128.53 108.994 128.733 108.931 128.921C108.846 129.155 108.721 129.372 108.56 129.561C108.324 129.832 108.055 130.071 107.759 130.274C107.329 130.584 106.986 130.784 106.714 130.872C106.495 130.959 106.259 130.998 106.023 130.985C105.85 130.976 105.684 130.919 105.543 130.82C105.31 130.608 105.11 130.362 104.95 130.09L103.892 128.425ZM108.946 126.039L109.751 125.459L109.963 125.793C110.002 125.584 110.085 125.386 110.209 125.213C110.348 125.006 110.525 124.826 110.731 124.683C111.061 124.425 111.471 124.289 111.891 124.299C112.286 124.311 112.601 124.506 112.834 124.872C112.949 125.041 113.024 125.235 113.053 125.437C113.081 125.64 113.062 125.847 112.997 126.041C112.857 126.453 112.587 126.807 112.228 127.052C112.066 127.172 111.886 127.265 111.695 127.328C111.492 127.388 111.281 127.413 111.069 127.405L111.796 128.549L110.935 129.169L108.946 126.039ZM110.493 126.521C110.656 126.777 110.85 126.911 111.073 126.928C111.304 126.943 111.533 126.873 111.717 126.731C111.905 126.604 112.043 126.417 112.109 126.2C112.17 125.996 112.119 125.766 111.96 125.513C111.807 125.273 111.63 125.145 111.419 125.125C111.196 125.114 110.977 125.184 110.801 125.32C110.605 125.451 110.459 125.644 110.386 125.868C110.353 125.978 110.345 126.094 110.364 126.207C110.382 126.32 110.427 126.428 110.493 126.521Z" fill="white"/>
<path d="M64.8558 103.445C70.6385 98.0148 71.6762 89.7258 67.1737 84.9311C62.6711 80.1363 54.3333 80.6515 48.5506 86.0818C42.7679 91.5121 41.7302 99.8011 46.2328 104.596C50.7353 109.391 59.0732 108.875 64.8558 103.445Z" fill="white"/>
<path fill-rule="evenodd" clip-rule="evenodd" d="M55.5012 100.731C53.8232 100.706 52.3106 99.9693 51.4214 98.5696C49.8095 96.0322 50.8619 92.2689 53.7769 90.1705C56.6919 88.0721 60.3779 88.4266 61.9895 90.964C63.0321 92.6051 62.9469 94.7629 61.9844 96.645C65.9362 95.3153 69.4723 95.9742 70.3639 98.4292C71.4073 101.312 68.4029 105.589 63.664 107.971C58.9251 110.353 54.2159 109.952 53.1727 107.069C52.5218 105.237 53.4865 102.845 55.5012 100.731Z" fill="#D1CFE1"/>
<path fill-rule="evenodd" clip-rule="evenodd" d="M140.939 159.061C141.953 139.926 135.227 123.273 135.84 112.334C136.232 105.395 133.228 95.0953 144.632 93.4268C154.41 91.9964 166.494 94.5807 168.876 97.2117C173.698 102.52 171.947 131.3 167.364 135.226C158.179 141.089 148.115 153.202 140.939 159.061Z" fill="#FE9400"/>
<mask id="mask1_282_4185" style="mask-type:luminance" maskUnits="userSpaceOnUse" x="135" y="93" width="37" height="67">
<path d="M140.939 159.061C141.953 139.926 135.227 123.273 135.84 112.334C136.232 105.395 133.228 95.0953 144.632 93.4268C154.41 91.9964 166.494 94.5807 168.876 97.2117C173.698 102.52 171.947 131.3 167.364 135.226C158.179 141.089 148.115 153.202 140.939 159.061Z" fill="white"/>
</mask>
<g mask="url(#mask1_282_4185)">
<path fill-rule="evenodd" clip-rule="evenodd" d="M160.714 107.726C159.919 108.786 159.47 110.098 159.097 111.353C158.111 114.59 158.073 117.82 158.523 121.15C158.963 124.439 159.834 127.846 159.24 131.173C158.791 133.634 157.47 135.668 156.179 137.758C152.936 143.014 151.022 144.739 146.63 148.636C144.133 150.844 139.264 159.921 140 163.453C140.507 165.917 144.401 163.525 145.865 162.772C149.836 160.725 153.385 157.848 157.26 155.601C162.79 152.386 169.009 149.608 173.151 144.547C178.653 137.819 179.313 127.647 177.198 119.491C176.194 115.609 174.424 111.545 170.932 109.318L160.714 107.726Z" fill="black" fill-opacity="0.1"/>
</g>
<path fill-rule="evenodd" clip-rule="evenodd" d="M167.746 97.5583C174.319 100.333 187.705 138.101 180.01 145.137C172.316 152.173 121.588 139.778 121.588 139.778C120.135 140.358 116.507 141.11 114.847 140.192C112.348 138.806 113.886 135.711 113.101 134.134C112.094 132.107 104.903 136.669 105.193 132.742C105.374 130.42 117.031 129.12 120.678 130.591C121.982 131.116 122.358 132.517 122.358 132.517C122.358 132.517 158.489 135.864 162.251 133.222C166.903 129.949 155.242 118.148 157.057 104.809C158.173 96.6093 164.136 96.0315 167.746 97.5583Z" fill="#FFC197"/>
<mask id="mask2_282_4185" style="mask-type:luminance" maskUnits="userSpaceOnUse" x="105" y="96" width="78" height="52">
<path d="M167.746 97.5583C174.319 100.333 187.705 138.101 180.01 145.137C172.316 152.173 121.588 139.778 121.588 139.778C120.135 140.358 116.507 141.11 114.847 140.192C112.348 138.806 113.886 135.711 113.101 134.134C112.094 132.107 104.903 136.669 105.193 132.742C105.374 130.42 117.031 129.12 120.678 130.591C121.982 131.116 122.358 132.517 122.358 132.517C122.358 132.517 158.489 135.864 162.251 133.222C166.903 129.949 155.242 118.148 157.057 104.809C158.173 96.6093 164.136 96.0315 167.746 97.5583Z" fill="white"/>
</mask>
<g mask="url(#mask2_282_4185)">
<path fill-rule="evenodd" clip-rule="evenodd" d="M157.367 122.041C158.216 120.352 160.824 119.493 162.45 118.923C164.168 118.32 165.999 118.054 167.817 118.319C170.553 118.718 173.004 120.161 175.762 120.419C177.813 120.61 179.979 120.058 181.761 119.034C182.595 118.556 183.336 117.933 183.949 117.193C187.56 112.814 184.558 105.788 182.191 101.581C179.526 96.8457 175.337 92.4663 170.04 90.7719C161.828 88.1424 153.354 93.5689 150.561 101.334C149.473 104.41 149.142 107.704 149.598 110.935C150.125 114.775 151.592 118.542 154.187 121.451L157.367 122.041Z" fill="#FE9400"/>
</g>
<path fill-rule="evenodd" clip-rule="evenodd" d="M146.185 93.1683C146.185 93.1683 150.041 90.3163 149.141 87.314C148.911 86.5257 147.171 88.7471 145.601 87.7855C143.458 86.463 142.942 78.841 145.362 74.8754C146.864 72.4175 152.145 70.9432 153.868 72.6174C155.59 74.2917 156.269 81.4281 155.676 84.9224C154.738 90.4965 159.818 93.8498 159.818 93.8498C159.818 93.8498 151.38 100.603 149.256 106.209C148.634 107.855 146.185 93.1683 146.185 93.1683Z" fill="#FFC197"/>
<mask id="mask3_282_4185" style="mask-type:luminance" maskUnits="userSpaceOnUse" x="143" y="71" width="17" height="36">
<path d="M146.185 93.1683C146.185 93.1683 150.041 90.3163 149.141 87.314C148.911 86.5257 147.171 88.7471 145.601 87.7855C143.458 86.463 142.942 78.841 145.362 74.8754C146.864 72.4175 152.145 70.9432 153.868 72.6174C155.59 74.2917 156.269 81.4281 155.676 84.9224C154.738 90.4965 159.818 93.8498 159.818 93.8498C159.818 93.8498 151.38 100.603 149.256 106.209C148.634 107.855 146.185 93.1683 146.185 93.1683Z" fill="white"/>
</mask>
<g mask="url(#mask3_282_4185)">
<path fill-rule="evenodd" clip-rule="evenodd" d="M148.136 87.7243C148.442 87.5588 148.691 87.221 148.92 86.9685C149.448 86.4031 149.934 85.8004 150.374 85.1651C150.537 84.9121 150.7 84.6541 150.881 84.4044C150.92 84.3412 151.025 84.1576 151.121 84.1576C151.216 84.1576 151.159 84.4734 151.149 84.5141C151.085 84.9559 150.983 85.3912 150.843 85.8152C150.317 87.5506 149.236 88.8499 148.078 90.1999L148.136 87.7243Z" fill="black" fill-opacity="0.1"/>
</g>
<path fill-rule="evenodd" clip-rule="evenodd" d="M146.539 78.0958C145.822 78.0528 145.152 77.6337 144.597 77.2051C142.463 75.5614 142.607 72.7017 144.463 70.8992C145.582 69.8172 147.878 69.0949 148.95 70.618C149.295 70.1301 150.012 69.9233 150.557 69.7961C151 69.6786 151.46 69.6385 151.916 69.6775C155.035 70.0976 154.308 74.0172 156.68 75.2706C157.455 74.7721 158.307 76.4014 158.46 76.898C158.986 78.6249 158.757 81.5764 156.767 82.2652C156.594 82.7293 156.154 83.0555 155.762 83.3232C154.681 84.0667 152.94 84.5986 151.734 83.8304C151.589 83.7366 151.457 83.624 151.342 83.4955C150.481 82.5378 151.39 81.4462 151.677 80.4512C151.83 79.9268 151.954 79.2705 151.495 78.8583C151.122 78.5349 150.749 78.7185 150.452 79.0308C150.002 79.5063 149.754 80.2554 149.036 80.3894C148.003 80.5807 146.998 79.5876 146.673 78.891C146.606 78.7435 146.539 78.0958 146.539 78.0958Z" fill="black"/>
<path fill-rule="evenodd" clip-rule="evenodd" d="M139.942 70.493C139.943 70.1567 139.849 69.827 139.671 69.5415C139.493 69.2559 139.239 69.0259 138.937 68.8775L100.51 49.979C100.235 49.8449 99.9311 49.7828 99.6259 49.7985C99.3206 49.8142 99.0244 49.9071 98.7649 50.0687C98.5054 50.2302 98.2912 50.455 98.1424 50.722C97.9936 50.9889 97.9151 51.2893 97.9141 51.595V57.9545C97.9149 58.2906 98.0093 58.6198 98.1868 58.9051C98.3643 59.1905 98.6179 59.4208 98.919 59.57L137.354 78.4721C137.628 78.6068 137.933 78.6692 138.238 78.6534C138.543 78.6376 138.84 78.5442 139.099 78.382C139.358 78.2198 139.571 77.9941 139.719 77.7263C139.866 77.4586 139.943 77.1576 139.942 76.8519L139.942 70.493Z" fill="#77536F"/>
<path fill-rule="evenodd" clip-rule="evenodd" d="M103.335 59.3961L102.517 58.471L103.581 57.39L101.7 55.9668L101.952 55.1655L103.833 56.5884L103.733 54.6266L104.706 55.056L104.805 57.0178L106.625 57.2284L106.971 58.2935L105.151 58.0828L106.376 60.1746L105.617 60.4038L104.398 58.314L103.335 59.3961ZM110.104 62.721L109.286 61.7957L110.35 60.7147L108.469 59.2919L108.72 58.4906L110.601 59.9134L110.502 57.9517L111.474 58.3811L111.574 60.3428L113.393 60.5535L113.739 61.6185L111.92 61.4079L113.145 63.4997L112.386 63.7288L111.167 61.6391L110.104 62.721ZM117.356 65.9557L116.538 65.0305L117.602 63.9496L115.722 62.5268L115.973 61.7254L117.854 63.1483L117.754 61.1866L118.727 61.616L118.827 63.5778L120.646 63.7883L120.992 64.8535L119.173 64.6428L120.398 66.7345L119.639 66.9637L118.42 64.8739L117.356 65.9557ZM124.438 69.7711L123.62 68.8458L124.684 67.7648L122.803 66.3419L123.055 65.5407L124.936 66.9635L124.836 65.0018L125.809 65.4312L125.908 67.3929L127.728 67.6036L128.074 68.6686L126.255 68.458L127.48 70.5496L126.721 70.7788L125.502 68.6892L124.438 69.7711ZM131.911 73.4464L131.094 72.5212L132.158 71.4402L130.277 70.0174L130.528 69.2161L132.409 70.639L132.309 68.6772L133.282 69.1066L133.382 71.0684L135.201 71.279L135.547 72.3441L133.728 72.1334L134.953 74.2251L134.194 74.4543L132.975 72.3646L131.911 73.4464Z" fill="white"/>
<path fill-rule="evenodd" clip-rule="evenodd" d="M115.783 70.3957C116.381 69.7172 119.972 68.0826 120.915 67.9514C122.418 67.7306 123.833 68.7152 123.312 70.1446C123.105 70.6945 118.556 71.958 117.305 72.0029C116.793 72.0191 115.545 70.6646 115.783 70.3957Z" fill="#FFC197"/>
</svg>
