<svg width="137" height="117" viewBox="0 0 137 117" fill="none" xmlns="http://www.w3.org/2000/svg">
<g clip-path="url(#clip0_282_4556)">
<path fill-rule="evenodd" clip-rule="evenodd" d="M11.8438 36.0308C11.4446 35.4676 11.5774 34.6874 12.1406 34.2881L39.3336 15.0098C39.8967 14.6105 40.677 14.7434 41.0763 15.3066C41.4755 15.8697 41.3426 16.65 40.7795 17.0493L13.5865 36.3276C13.0233 36.7268 12.2431 36.5939 11.8438 36.0308Z" fill="white"/>
<path d="M15.1149 32.1796L14.0508 29.4502C12.6888 25.9565 12.0078 24.2097 12.5018 22.5613C12.9958 20.913 14.5253 19.8287 17.5844 17.66L21.8409 14.6423C24.9 12.4736 26.4294 11.3893 28.1484 11.4688C29.8673 11.5483 31.2902 12.7691 34.1361 15.2108L36.3594 17.1184L15.1149 32.1796Z" fill="white"/>
</g>
<path d="M58.9901 44.2614C58.7173 41.5114 57.5469 39.375 55.4787 37.8523C53.4105 36.3295 50.6037 35.5682 47.0583 35.5682C44.6492 35.5682 42.6151 35.9091 40.956 36.5909C39.2969 37.25 38.0242 38.1705 37.1378 39.3523C36.2742 40.5341 35.8423 41.875 35.8423 43.375C35.7969 44.625 36.0583 45.7159 36.6264 46.6477C37.2173 47.5795 38.0242 48.3864 39.0469 49.0682C40.0696 49.7273 41.2514 50.3068 42.5923 50.8068C43.9333 51.2841 45.3651 51.6932 46.8878 52.0341L53.1605 53.5341C56.206 54.2159 59.0014 55.125 61.5469 56.2614C64.0923 57.3977 66.2969 58.7955 68.1605 60.4545C70.0242 62.1136 71.4673 64.0682 72.4901 66.3182C73.5355 68.5682 74.0696 71.1477 74.0923 74.0568C74.0696 78.3295 72.9787 82.0341 70.8196 85.1705C68.6833 88.2841 65.5923 90.7045 61.5469 92.4318C57.5242 94.1364 52.6719 94.9886 46.9901 94.9886C41.3537 94.9886 36.4446 94.125 32.2628 92.3977C28.1037 90.6705 24.8537 88.1136 22.5128 84.7273C20.1946 81.3182 18.9787 77.1023 18.8651 72.0795H33.1492C33.3083 74.4205 33.9787 76.375 35.1605 77.9432C36.3651 79.4886 37.9673 80.6591 39.9673 81.4545C41.9901 82.2273 44.2742 82.6136 46.8196 82.6136C49.3196 82.6136 51.4901 82.25 53.331 81.5227C55.1946 80.7955 56.6378 79.7841 57.6605 78.4886C58.6833 77.1932 59.1946 75.7045 59.1946 74.0227C59.1946 72.4545 58.7287 71.1364 57.7969 70.0682C56.8878 69 55.5469 68.0909 53.7742 67.3409C52.0242 66.5909 49.8764 65.9091 47.331 65.2955L39.7287 63.3864C33.8423 61.9545 29.1946 59.7159 25.7855 56.6705C22.3764 53.625 20.6833 49.5227 20.706 44.3636C20.6833 40.1364 21.8083 36.4432 24.081 33.2841C26.3764 30.125 29.5242 27.6591 33.5242 25.8864C37.5242 24.1136 42.0696 23.2273 47.1605 23.2273C52.3423 23.2273 56.8651 24.1136 60.7287 25.8864C64.6151 27.6591 67.6378 30.125 69.7969 33.2841C71.956 36.4432 73.0696 40.1023 73.1378 44.2614H58.9901Z" fill="white"/>
<path d="M88.8489 47.96C88.5289 48.0133 88.2489 48.12 88.0089 48.28C87.7689 48.44 87.5556 48.6133 87.3689 48.8C87.2089 48.96 87.0622 49.12 86.9289 49.28C86.7956 49.4133 86.6756 49.4933 86.5689 49.52C86.4356 49.44 86.2622 49.4 86.0489 49.4C85.8356 49.3733 85.6222 49.4133 85.4089 49.52C85.2222 49.6 85.0756 49.76 84.9689 50C84.8889 50.2133 84.9156 50.52 85.0489 50.92L85.2089 53.76L85.0489 55.24V56L84.2889 57.08L82.9689 57.4H80.3289C80.0356 57.4533 79.7956 57.4133 79.6089 57.28C79.4489 57.12 79.3689 56.7333 79.3689 56.12V56.04L80.0089 53.64L80.1289 50.92L80.4089 45.8L80.8889 42.36C80.8622 42.2267 80.8356 41.9733 80.8089 41.6C80.7822 41.2267 80.7422 40.76 80.6889 40.2C80.6622 39.6133 80.6356 39.1333 80.6089 38.76C80.6089 38.3867 80.6089 38.0933 80.6089 37.88C80.6089 37.9333 80.7022 37.8667 80.8889 37.68C81.0756 37.4667 81.2356 37.2133 81.3689 36.92C81.5022 36.6 81.5556 36.2533 81.5289 35.88C81.5022 35.5067 81.2756 35.16 80.8489 34.84L81.2489 31.52C81.4356 31.4133 81.4489 31.0933 81.2889 30.56L82.0889 29.76L82.6089 29.68C82.8222 29.7333 83.0356 29.7733 83.2489 29.8C83.4889 29.8 83.7556 29.8267 84.0489 29.88C84.2889 29.9333 84.5022 29.9733 84.6889 30C84.9022 30 85.0889 30.04 85.2489 30.12L86.0489 30.56V31.32C86.1022 31.4533 86.1556 31.6667 86.2089 31.96C86.2622 32.2267 86.3022 32.56 86.3289 32.96C86.3289 33.1467 86.3156 33.36 86.2889 33.6C86.2622 33.84 86.2356 34.0667 86.2089 34.28C86.2089 34.4933 86.1956 34.68 86.1689 34.84C86.1422 35 86.1289 35.0933 86.1289 35.12C86.1289 35.1467 86.1156 35.2133 86.0889 35.32C86.0889 35.4267 86.0756 35.5333 86.0489 35.64C86.0222 35.7467 85.9956 35.84 85.9689 35.92C85.9422 36 85.9156 36.0267 85.8889 36C85.8622 36 85.8222 36.08 85.7689 36.24C85.7422 36.4 85.7022 36.6 85.6489 36.84C85.6222 37.0533 85.5956 37.28 85.5689 37.52C85.5422 37.76 85.5422 37.9467 85.5689 38.08C85.5956 38.2133 85.6222 38.4267 85.6489 38.72C85.6756 38.9867 85.7022 39.36 85.7289 39.84C85.7289 40.08 85.7289 40.2933 85.7289 40.48C85.7556 40.6667 85.7689 40.8267 85.7689 40.96C85.7689 41.12 85.7822 41.24 85.8089 41.32L85.5689 44.24L84.8489 44.84C84.4756 45.5867 84.3022 46.1067 84.3289 46.4C84.3822 46.6933 84.5422 46.9333 84.8089 47.12C85.2889 47.04 85.6222 46.9733 85.8089 46.92C85.9956 46.8667 86.1422 46.7733 86.2489 46.64C86.3556 46.5067 86.4489 46.3333 86.5289 46.12C86.6356 45.9067 86.8489 45.6 87.1689 45.2C87.1689 45.2533 87.4089 45.1333 87.8889 44.84C88.3156 44.5733 88.5156 44.2533 88.4889 43.88C88.8356 43.72 89.0889 43.5867 89.2489 43.48C89.4089 43.3733 89.5956 43.2667 89.8089 43.16C90.3156 42.7867 90.6489 42.4267 90.8089 42.08C90.9956 41.7333 91.1422 41.5733 91.2489 41.6C91.3289 41.6 91.3822 41.6133 91.4089 41.64C91.4622 41.6667 91.5422 41.7067 91.6489 41.76C91.7822 41.68 91.9956 41.5467 92.2889 41.36C92.6089 41.1467 92.9822 40.8533 93.4089 40.48C93.6756 40.2667 93.9156 40.0667 94.1289 39.88C94.3689 39.6933 94.5956 39.5067 94.8089 39.32L95.8089 39.44L96.4889 40.88L96.0489 41.16C95.8889 41.32 95.7289 41.52 95.5689 41.76C95.4089 42 95.2489 42.24 95.0889 42.48C94.9556 42.6933 94.8089 42.8933 94.6489 43.08C94.4889 43.24 94.3289 43.3333 94.1689 43.36C93.5022 43.8933 92.7556 44.3867 91.9289 44.84C91.1289 45.2933 90.3422 45.7867 89.5689 46.32C89.4356 46.4 89.3156 46.4933 89.2089 46.6C89.1022 46.68 88.9956 46.76 88.8889 46.84C88.8356 46.8933 88.8089 46.9867 88.8089 47.12C88.8356 47.2267 88.8622 47.3467 88.8889 47.48C88.9156 47.5867 88.9289 47.6933 88.9289 47.8C88.9289 47.9067 88.9022 47.96 88.8489 47.96ZM98.2089 56.68L95.4089 58.08L94.5689 57.88L93.6089 56.6C93.5022 56.4667 93.4089 56.3333 93.3289 56.2C93.2489 56.04 93.1422 55.8667 93.0089 55.68C92.7156 55.2 92.4222 54.8 92.1289 54.48C91.8622 54.1333 91.6756 53.8533 91.5689 53.64C91.5422 53.5867 91.4889 53.4933 91.4089 53.36C91.3289 53.2267 91.1822 53.1067 90.9689 53L90.8089 50.88C90.9156 50.8267 90.8222 50.6933 90.5289 50.48C90.2622 50.24 89.9822 49.9467 89.6889 49.6C89.2356 48.8533 89.1156 48.3333 89.3289 48.04C89.7022 48.0933 90.1156 48.1333 90.5689 48.16C91.0489 48.1867 91.5689 48.1733 92.1289 48.12C92.3156 48.0933 92.4756 48.08 92.6089 48.08C92.7422 48.08 92.8756 48.08 93.0089 48.08L93.5689 48.64C93.5689 48.6667 93.5556 48.68 93.5289 48.68C93.5289 48.68 93.5289 48.6933 93.5289 48.72C93.5822 48.8 93.6622 48.9333 93.7689 49.12C93.9022 49.3067 94.0756 49.5733 94.2889 49.92C94.6089 50.1867 94.8356 50.4267 94.9689 50.64C95.1022 50.8533 95.1956 51.0533 95.2489 51.24C95.3022 51.4267 95.3422 51.6133 95.3689 51.8C95.3956 51.9867 95.4756 52.2 95.6089 52.44C95.6889 52.52 95.8089 52.6533 95.9689 52.84C96.1289 53 96.3289 53.2 96.5689 53.44C96.8089 53.68 96.9822 53.8667 97.0889 54C97.1956 54.1333 97.2622 54.2133 97.2889 54.24C97.3422 54.2933 97.3422 54.3467 97.2889 54.4C97.2622 54.4533 97.2622 54.48 97.2889 54.48L98.2889 55.96L98.2089 56.68ZM105.284 32.16C105.337 31.9467 105.364 31.7467 105.364 31.56C105.39 31.3467 105.417 31.1333 105.444 30.92C105.444 30.7333 105.444 30.5733 105.444 30.44C105.47 30.3067 105.484 30.1867 105.484 30.08L105.684 29.64C105.764 29.6133 105.87 29.6 106.004 29.6C106.137 29.6 106.297 29.5867 106.484 29.56C107.044 29.5333 107.404 29.4667 107.564 29.36C107.564 29.3333 107.63 29.28 107.764 29.2C107.844 29.12 107.91 29.0667 107.964 29.04C107.99 29.04 108.084 29.0533 108.244 29.08C108.404 29.1067 108.617 29.16 108.884 29.24C109.337 29.3467 109.657 29.4 109.844 29.4C110.084 29.4 110.217 29.3867 110.244 29.36C110.27 29.3333 110.35 29.3333 110.484 29.36L110.844 30.04L111.204 32.08L110.364 33.48C110.337 33.5067 110.31 33.5333 110.284 33.56C110.284 33.5867 110.257 33.6133 110.204 33.64C110.07 33.72 109.91 33.84 109.724 34L109.604 34.12L108.404 34.24C108.244 34.1867 108.057 34.1333 107.844 34.08C107.63 34 107.377 33.9067 107.084 33.8C106.79 33.6933 106.537 33.6 106.324 33.52C106.11 33.4133 105.924 33.3333 105.764 33.28L105.564 33.08L105.284 32.16ZM110.244 39.04L110.084 40.48L110.244 41.08L110.004 41.72L110.124 42.64L109.924 43.4L110.044 43.64L109.884 45.44L109.724 49.24C109.724 49.4267 109.697 49.6667 109.644 49.96C109.59 50.2267 109.55 50.52 109.524 50.84C109.497 51.1333 109.497 51.44 109.524 51.76C109.55 52.0533 109.63 52.3067 109.764 52.52C109.737 52.92 109.697 53.3867 109.644 53.92C109.59 54.4533 109.497 55.0667 109.364 55.76C109.15 56.0533 108.924 56.32 108.684 56.56C108.47 56.7733 108.057 56.8933 107.444 56.92C107.097 56.9467 106.75 56.9733 106.404 57C106.084 57.0267 105.777 57.0667 105.484 57.12C105.324 57.1467 105.164 57.1733 105.004 57.2C104.844 57.2267 104.67 57.2667 104.484 57.32L103.484 56.04C103.51 55.9067 103.55 55.5467 103.604 54.96C103.684 54.3467 103.75 53.6267 103.804 52.8C103.857 51.9733 103.884 51.0933 103.884 50.16C103.91 49.2267 103.884 48.36 103.804 47.56L104.044 46.8L104.404 45.04L104.524 43.64L104.764 43.16L104.804 42.8L105.044 41.72L105.244 39.52L108.844 38.12L110.244 39.04ZM121.466 57.16C121.386 57.16 121.213 57.1733 120.946 57.2C120.706 57.2 120.439 57.2133 120.146 57.24C119.853 57.24 119.573 57.2533 119.306 57.28C119.039 57.28 118.853 57.28 118.746 57.28L117.866 57.36L117.186 56.88C117.159 56.48 117.186 56.0133 117.266 55.48C117.373 54.9467 117.426 54.5333 117.426 54.24C117.746 54.24 117.813 53.92 117.626 53.28C117.413 52.64 117.333 52.1333 117.386 51.76C117.413 51.3333 117.479 50.9067 117.586 50.48C117.693 50.0267 117.706 49.7333 117.626 49.6C117.573 49.44 117.506 49.2667 117.426 49.08C117.346 48.8667 117.279 48.6267 117.226 48.36L117.706 45.76C117.706 44.32 117.719 43.2133 117.746 42.44C117.799 41.6667 117.839 41.0933 117.866 40.72C117.919 40.3467 117.973 40.12 118.026 40.04C118.106 39.9333 118.159 39.84 118.186 39.76C118.239 39.68 118.266 39.5467 118.266 39.36C118.293 39.1733 118.293 38.8 118.266 38.24L119.106 37.8C119.559 37.8267 120.106 37.9067 120.746 38.04C121.413 38.1467 122.053 38.2667 122.666 38.4C122.986 38.4533 123.266 38.5067 123.506 38.56C123.746 38.5867 123.959 38.6267 124.146 38.68L124.706 39.44C124.199 39.7867 123.866 40.0133 123.706 40.12C123.546 40.2267 123.533 40.4533 123.666 40.8C124.146 41.2267 124.559 41.36 124.906 41.2C125.279 41.04 125.533 40.7867 125.666 40.44L128.266 39.8H129.786L130.466 40.04C131.106 40.2533 131.746 40.48 132.386 40.72C133.053 40.96 133.599 41.1467 134.026 41.28L134.746 43.04L134.706 43.52C134.759 44.2933 134.799 45.04 134.826 45.76C134.879 46.4533 134.879 47.3067 134.826 48.32C134.799 48.96 134.773 49.6133 134.746 50.28C134.719 50.92 134.693 51.5333 134.666 52.12C134.666 52.7067 134.666 53.2267 134.666 53.68C134.666 54.1067 134.666 54.4267 134.666 54.64C134.666 54.6667 134.693 54.7733 134.746 54.96C134.826 55.1467 134.933 55.3467 135.066 55.56L134.786 56L134.026 56.36C133.653 56.3867 133.173 56.4533 132.586 56.56C132.026 56.6667 131.559 56.72 131.186 56.72C131.026 56.72 130.893 56.6667 130.786 56.56C130.679 56.4267 130.439 56.3733 130.066 56.4L129.506 55.92C129.559 55.5733 129.573 55.2933 129.546 55.08C129.519 54.84 129.479 54.64 129.426 54.48C129.373 54.2933 129.319 54.1333 129.266 54C129.213 53.8667 129.186 53.7333 129.186 53.6C129.213 53.2 129.253 52.76 129.306 52.28C129.359 51.9067 129.413 51.48 129.466 51C129.546 50.4933 129.639 50 129.746 49.52C129.799 49.2267 129.826 48.8533 129.826 48.4C129.826 47.92 129.826 47.4533 129.826 47C129.826 46.52 129.826 46.0667 129.826 45.64C129.826 45.2133 129.839 44.8933 129.866 44.68L128.706 42.64C128.599 42.6133 128.493 42.5867 128.386 42.56C128.279 42.5333 128.159 42.4933 128.026 42.44C127.813 42.3867 127.599 42.4 127.386 42.48C127.199 42.56 127.013 42.6533 126.826 42.76C126.639 42.8667 126.466 42.9733 126.306 43.08C126.146 43.1867 125.999 43.24 125.866 43.24C125.866 43.32 125.719 43.2533 125.426 43.04C125.159 42.8 124.933 42.5733 124.746 42.36C124.293 41.9867 123.959 41.92 123.746 42.16C123.559 42.3733 123.399 42.6667 123.266 43.04C123.293 43.3333 123.333 43.5333 123.386 43.64C123.466 43.7467 123.546 43.8267 123.626 43.88C123.733 43.9067 123.826 43.9067 123.906 43.88C123.773 43.9867 123.666 44.1867 123.586 44.48C123.506 44.7467 123.439 45.0533 123.386 45.4C123.359 45.72 123.346 46.0667 123.346 46.44C123.373 46.7867 123.413 47.1067 123.466 47.4C123.519 47.72 123.479 48.28 123.346 49.08C123.239 49.88 123.213 50.8 123.266 51.84C123.266 52.24 123.253 52.6667 123.226 53.12C123.199 53.5467 123.173 53.9733 123.146 54.4C123.119 54.8 123.093 55.1733 123.066 55.52C123.039 55.84 123.026 56.0933 123.026 56.28V56.4C122.519 56.8267 121.999 57.08 121.466 57.16Z" fill="white"/>
<path d="M81.2175 87.12V84.96L81.6175 78.52V74.72L82.2975 74C82.3775 73.5467 82.3775 72.8 82.2975 71.76C82.2442 70.6667 82.0175 70.12 81.6175 70.12C81.6175 69.56 81.4975 69.1067 81.2575 68.76C81.0175 68.3867 80.8975 68.0533 80.8975 67.76C81.0842 67.5733 81.2308 67.36 81.3375 67.12C81.4708 66.9067 81.5775 66.64 81.6575 66.32C81.7642 65.9733 81.8175 65.5733 81.8175 65.12C81.8175 65.0667 81.7375 65.0933 81.5775 65.2C81.5242 65.2267 81.4575 65.28 81.3775 65.36L81.0575 64.56C81.1908 64.2133 81.3242 63.8 81.4575 63.32C81.5908 62.84 81.6975 62.3867 81.7775 61.96L83.2975 61.56C83.7775 61.6933 84.3375 61.8533 84.9775 62.04C85.7775 62.2533 86.4308 62.4267 86.9375 62.56C87.4708 62.6667 87.8708 62.6933 88.1375 62.64V64.36L90.9375 62.92L92.0575 63.04C92.4575 63.36 92.8708 63.6133 93.2975 63.8C93.7508 63.96 94.0975 64.0533 94.3375 64.08C94.5775 64.1067 94.8042 64.1333 95.0175 64.16C95.2575 64.1867 95.4575 64.2133 95.6175 64.24C95.8842 64.24 96.2175 64.28 96.6175 64.36C97.0175 64.44 97.3642 64.5067 97.6575 64.56L98.1375 65.28C98.2975 65.68 98.4308 66.04 98.5375 66.36C98.6708 66.68 98.7908 66.9733 98.8975 67.24C99.0042 67.5067 99.1108 67.76 99.2175 68C99.3508 68.24 99.5108 68.48 99.6975 68.72C99.6708 68.88 99.6442 69.0933 99.6175 69.36C99.5908 69.6 99.6042 69.9067 99.6575 70.28C99.6842 70.8933 99.8842 71.2533 100.258 71.36L100.138 72.16C99.7642 72.6933 99.4575 73.1867 99.2175 73.64C99.0042 74.0667 98.8308 74.44 98.6975 74.76C98.6175 74.9467 98.5375 75.1333 98.4575 75.32C98.4042 75.48 98.3508 75.64 98.2975 75.8C97.9775 75.9067 97.4842 76.08 96.8175 76.32C96.1508 76.5333 95.4175 76.8 94.6175 77.12C93.0708 77.7067 92.1642 78.08 91.8975 78.24C91.6842 78.4 91.4842 78.6133 91.2975 78.88L90.9375 79.36C90.8575 79.3867 90.7375 79.4 90.5775 79.4C90.4442 79.4267 90.3108 79.44 90.1775 79.44C90.0442 79.44 89.8708 79.4533 89.6575 79.48C89.2308 79.5067 88.8975 79.5333 88.6575 79.56C88.4175 79.5867 88.1375 79.5867 87.8175 79.56L87.1775 81.28V82.48L87.2175 84.12L87.4175 84.52C87.4708 84.6533 87.5242 84.8 87.5775 84.96C87.6575 85.12 87.7375 85.2667 87.8175 85.4L87.0175 86.92C86.9375 86.9467 86.7908 86.9867 86.5775 87.04C86.4442 87.0667 86.2708 87.0667 86.0575 87.04C85.8708 87.04 85.6575 87 85.4175 86.92C85.1508 86.8667 84.9108 86.8667 84.6975 86.92C84.4842 87 84.2842 87.0933 84.0975 87.2C83.9375 87.3333 83.7775 87.4533 83.6175 87.56C83.4842 87.6667 83.3642 87.72 83.2575 87.72C83.1242 87.72 82.9775 87.7333 82.8175 87.76C82.6575 87.7867 82.4708 87.8133 82.2575 87.84L81.2175 87.12ZM93.6175 74.12L94.3375 71.8C94.3375 70.9467 94.3508 70.2533 94.3775 69.72C94.4042 69.1867 94.3908 68.6 94.3375 67.96C94.2308 67.8533 94.0975 67.72 93.9375 67.56C93.8042 67.3733 93.6575 67.2 93.4975 67.04C93.3642 66.88 93.2308 66.7467 93.0975 66.64C92.9908 66.5333 92.9242 66.48 92.8975 66.48C92.8442 66.48 92.7242 66.4533 92.5375 66.4C92.3775 66.3467 92.1908 66.2933 91.9775 66.24C91.7642 66.1867 91.5508 66.1467 91.3375 66.12C91.1242 66.0667 90.9642 66.0533 90.8575 66.08C90.8308 66.08 90.7775 66.1333 90.6975 66.24C90.6442 66.32 90.5642 66.4 90.4575 66.48C90.3775 66.56 90.2575 66.6 90.0975 66.6C89.9375 66.5733 89.7508 66.4533 89.5375 66.24C89.2442 65.9733 89.0175 65.8667 88.8575 65.92C88.6975 65.9733 88.5642 66.12 88.4575 66.36C88.3508 66.5733 88.2575 66.8533 88.1775 67.2C88.0975 67.52 88.0042 67.8133 87.8975 68.08C87.7908 68.2133 87.7108 68.2933 87.6575 68.32C87.6042 68.32 87.5775 68.4533 87.5775 68.72C87.5775 68.7467 87.6442 68.8667 87.7775 69.08C87.9108 69.2933 88.0442 69.5467 88.1775 69.84L87.5775 70.36L87.4175 76.24L88.3775 76.56H90.7375L93.6175 74.12ZM122.906 63.16L125.986 63.76L125.346 65.32V65.44C125.373 65.68 125.226 66.48 124.906 67.84C124.88 67.92 124.76 68.04 124.546 68.2C124.36 68.36 124.133 68.5467 123.866 68.76C123.626 68.9733 123.386 69.2 123.146 69.44C122.906 69.6533 122.746 69.8667 122.666 70.08L116.866 78.96L115.666 80.16C115.586 80.1867 115.506 80.2267 115.426 80.28C115.373 80.3067 115.32 80.32 115.266 80.32L115.626 80.84L113.746 83.68L111.306 86.88L110.706 87.72L105.986 87.48L105.266 85.44L106.626 85.08L107.586 84.08L108.306 83.56V82.56C108.413 82.5067 108.506 82.44 108.586 82.36C108.693 82.3067 108.8 82.24 108.906 82.16C109.066 82.0267 109.24 81.8667 109.426 81.68C109.613 81.4933 109.786 81.2667 109.946 81C110.533 79.96 110.546 79.44 109.986 79.44C110.2 79.28 110.346 79.16 110.426 79.08C110.693 78.8133 110.866 78.4667 110.946 78.04C111.053 77.2133 111 76.68 110.786 76.44C110.653 76.4133 110.36 76.1333 109.906 75.6C109.666 75.3333 109.466 75.1067 109.306 74.92C109.146 74.7333 109.013 74.6133 108.906 74.56C108.746 74.1067 108.506 73.6 108.186 73.04C107.893 72.48 107.56 71.92 107.186 71.36C106.84 70.7733 106.48 70.2 106.106 69.64C105.733 69.08 105.386 68.56 105.066 68.08C104.106 66.64 103.266 65.6667 102.546 65.16L102.266 64.08C102.586 63.7333 102.986 63.5333 103.466 63.48C104 63.4267 104.373 63.24 104.586 62.92L106.866 62.2C107.346 62.4667 107.786 62.7733 108.186 63.12C108.746 63.6267 109.32 63.9733 109.906 64.16C109.906 64.5067 110.013 64.8133 110.226 65.08C110.44 65.3467 110.68 65.6 110.946 65.84C111.213 66.0533 111.466 66.2533 111.706 66.44C111.973 66.6267 112.16 66.8133 112.266 67C112.266 67.0267 112.28 67.12 112.306 67.28C112.36 67.4133 112.386 67.56 112.386 67.72C112.413 67.88 112.413 68.0267 112.386 68.16C112.386 68.2667 112.346 68.32 112.266 68.32C112.133 68.32 112.146 68.3867 112.306 68.52C112.466 68.6533 112.773 68.8267 113.226 69.04C113.226 69.12 113.28 69.2667 113.386 69.48C113.52 69.6933 113.68 69.9333 113.866 70.2C114.053 70.4667 114.24 70.7467 114.426 71.04C114.613 71.3067 114.773 71.56 114.906 71.8C115.2 72.36 115.4 72.8933 115.506 73.4C115.613 73.88 115.706 74.1467 115.786 74.2C115.84 74.2 115.946 74.1733 116.106 74.12C116.266 74.04 116.44 73.96 116.626 73.88C116.813 73.7733 116.973 73.6533 117.106 73.52C117.24 73.36 117.306 73.2 117.306 73.04C117.306 72.88 117.253 72.7467 117.146 72.64L116.866 72.28C116.786 72.1467 116.72 72.0267 116.666 71.92C116.613 71.8133 116.613 71.7067 116.666 71.6C116.96 71.36 117.173 71.16 117.306 71C117.44 70.8133 117.613 70.5733 117.826 70.28C117.88 70.1467 117.986 70 118.146 69.84C118.333 69.6533 118.52 69.48 118.706 69.32C118.92 69.16 119.106 69.0267 119.266 68.92C119.426 68.7867 119.506 68.7067 119.506 68.68C119.72 68.2533 119.893 67.84 120.026 67.44C120.16 67.0133 120.333 66.4133 120.546 65.64C120.573 65.5067 120.64 65.3733 120.746 65.24C120.88 65.1067 121.013 64.9867 121.146 64.88C121.306 64.7467 121.44 64.64 121.546 64.56C121.68 64.4533 121.76 64.36 121.786 64.28C121.813 64.2267 121.826 64.2 121.826 64.2C121.826 64.1733 121.84 64.1333 121.866 64.08L122.906 63.16Z" fill="white"/>
<defs>
<clipPath id="clip0_282_4556">
<rect width="40" height="40" fill="white" transform="translate(0.505096 23.6392) rotate(-35.3346)"/>
</clipPath>
</defs>
</svg>
