<svg width="190" height="190" viewBox="0 0 190 190" fill="none" xmlns="http://www.w3.org/2000/svg">
<path d="M15.156 116.051C7.36649 127.793 5.15704 138.462 5.73733 147.285C6.78572 163.225 24.1195 169.831 40.0945 169.831H146.878C155.859 169.831 163.757 163.038 167.155 154.725C174.709 136.249 188.106 112.699 179.395 90.1582C168.068 60.85 151.362 66.2562 130.123 40.9319C108.886 15.6074 83.1174 15.0383 51.6852 35.5255C20.2532 56.0128 36.677 83.6133 15.156 116.051Z" fill="#E7E8FF"/>
<path d="M77.4713 29.5642C77.4713 24.7894 81.3295 20.9187 86.089 20.9187H150.473C155.233 20.9187 159.091 24.7894 159.091 29.5642V160.677C159.091 165.451 155.233 169.322 150.473 169.322H86.089C81.3295 169.322 77.4713 165.451 77.4713 160.677V29.5642Z" fill="white"/>
<path fill-rule="evenodd" clip-rule="evenodd" d="M76.9639 29.5642C76.9639 24.5086 81.0496 20.4101 86.089 20.4101H150.473C155.512 20.4101 159.598 24.5086 159.598 29.5642V160.677C159.598 165.732 155.512 169.831 150.473 169.831H86.089C81.0496 169.831 76.9639 165.732 76.9639 160.677V29.5642ZM86.089 21.4273C81.6094 21.4273 77.9779 25.0703 77.9779 29.5642V160.677C77.9779 165.17 81.6094 168.814 86.089 168.814H150.473C154.953 168.814 158.584 165.17 158.584 160.677V29.5642C158.584 25.0703 154.953 21.4273 150.473 21.4273H86.089Z" fill="#032068"/>
<path d="M101.566 144.31C101.566 142.905 102.701 141.767 104.101 141.767H133.213C134.614 141.767 135.748 142.905 135.748 144.31V146.532C135.748 147.937 134.614 149.075 133.213 149.075H104.101C102.701 149.075 101.566 147.937 101.566 146.532V144.31Z" fill="#E7E8FF"/>
<path d="M101.483 24.8253L99.4067 20.9185H137.156L134.632 25.1379C133.35 27.2824 131.039 28.5945 128.546 28.5945H107.746C105.125 28.5945 102.717 27.1454 101.483 24.8253Z" fill="#032068"/>
<path d="M157.051 23.989H79.5118C82.1642 21.328 84.6976 20.8333 85.633 20.9186H150.929C154.194 20.9186 156.371 22.9656 157.051 23.989Z" fill="#032068"/>
<path d="M157.051 166.251H79.5118C82.1642 168.913 84.6976 169.407 85.633 169.322H150.929C154.194 169.322 156.371 167.275 157.051 166.251Z" fill="#032068"/>
<path fill-rule="evenodd" clip-rule="evenodd" d="M127.623 60.7672H92.0404V59.7501H127.623V60.7672Z" fill="#E7E8FF"/>
<path fill-rule="evenodd" clip-rule="evenodd" d="M144.714 51.7732H92.0404V50.7561H144.714V51.7732Z" fill="#E7E8FF"/>
<path d="M109.972 125.76C109.972 124.356 111.107 123.217 112.507 123.217H114.722C116.122 123.217 117.257 124.356 117.257 125.76V127.982C117.257 129.386 116.122 130.524 114.722 130.524H112.507C111.107 130.524 109.972 129.386 109.972 127.982V125.76Z" fill="#F4AD5E"/>
<path fill-rule="evenodd" clip-rule="evenodd" d="M122.914 125.76C122.914 124.074 124.275 122.708 125.955 122.708H128.17C129.85 122.708 131.212 124.074 131.212 125.76V127.982C131.212 129.667 129.85 131.033 128.17 131.033H125.955C124.275 131.033 122.914 129.667 122.914 127.982V125.76ZM125.955 123.725C124.835 123.725 123.927 124.636 123.927 125.76V127.982C123.927 129.105 124.835 130.016 125.955 130.016H128.17C129.291 130.016 130.198 129.105 130.198 127.982V125.76C130.198 124.636 129.291 123.725 128.17 123.725H125.955Z" fill="#E7E8FF"/>
<path d="M135.188 110.282V74.0443C135.188 72.6395 134.053 71.5014 132.653 71.5014H108.337C107.665 71.5014 107.02 71.7693 106.545 72.2462L101.748 77.0577C101.273 77.5346 101.006 78.1812 101.006 78.8557V110.282C101.006 111.686 102.141 112.825 103.541 112.825H132.653C134.053 112.825 135.188 111.686 135.188 110.282Z" fill="white"/>
<path fill-rule="evenodd" clip-rule="evenodd" d="M106.187 71.8865C106.757 71.314 107.53 70.9929 108.337 70.9929H132.653C134.333 70.9929 135.695 72.359 135.695 74.0443V110.282C135.695 111.967 134.333 113.333 132.653 113.333H103.541C101.861 113.333 100.499 111.967 100.499 110.282V78.8557C100.499 78.0463 100.82 77.2705 101.39 76.6979L106.187 71.8865ZM108.337 72.01C107.8 72.01 107.283 72.2241 106.903 72.6053L102.107 77.4174C101.727 77.7987 101.513 78.3161 101.513 78.8557V110.282C101.513 111.405 102.421 112.316 103.541 112.316H132.653C133.773 112.316 134.681 111.405 134.681 110.282V74.0443C134.681 72.9207 133.773 72.01 132.653 72.01H108.337Z" fill="#F4AD5E"/>
<path d="M101.152 77.8025L107.434 71.5014V76.2768C107.434 77.1191 106.753 77.8025 105.913 77.8025H101.152Z" fill="#F4AD5E"/>
<path fill-rule="evenodd" clip-rule="evenodd" d="M115.76 80.0692H108.164V79.052H115.76V80.0692ZM127.446 87.103H108.164V86.0858H127.446V87.103ZM127.446 93.1114H108.164V92.0943H127.446V93.1114ZM127.446 99.2655H108.164V98.2484H127.446V99.2655ZM123.94 104.981H108.164V103.964H123.94V104.981Z" fill="#F4AD5E"/>
<path d="M82.8641 151.006L85.0288 169.831H26.0532L27.9469 151.006H82.8641Z" fill="#032068"/>
<path d="M49.3187 69.0359L48.5072 76.0697L48.7776 81.4802L58.7872 82.562L63.1157 77.1514L62.3041 69.0359C63.9534 68.0935 65.1928 65.5088 65.4848 61.4609C66.0478 61.2806 67.1739 60.433 67.1739 58.4852C67.1739 56.5374 65.9395 55.87 65.3227 55.7798C64.4442 49.2131 61.0377 46.8524 55.2704 46.8524C49.7411 46.8524 46.7433 50.4688 45.8334 55.7798C45.1917 55.6897 43.9081 56.1045 43.9081 58.4852C43.9081 60.8658 45.0611 61.4609 45.6376 61.4609C46.1665 66.0472 48.5203 68.3968 49.3187 69.0359Z" fill="#EFCB96"/>
<path d="M44.1787 51.1809C43.7459 53.778 44.1788 57.403 45.2608 58.7557L47.4251 54.1566C48.0744 54.5895 51.1223 54.6977 52.2946 54.6977C56.8395 54.4813 60.14 51.9022 61.2221 50.6398C61.4385 52.5876 64.3783 57.7637 65.5506 60.1083C66.9933 57.9441 67.9313 52.263 66.633 46.8524C65.334 41.4418 61.7632 41.1713 59.5989 41.7123C53.6473 37.1133 46.884 37.6544 43.6377 42.2534C41.0406 45.9326 42.5555 49.7381 44.1787 51.1809Z" fill="#032068"/>
<path d="M31.7733 156.727C30.3659 155.398 29.7046 154.219 29.5498 153.795C27.8119 154.872 23.7833 155.614 22.5363 157.499C20.9776 159.854 24.1899 166.871 25.4067 167.521C26.6234 168.172 31.2118 167.013 32.3796 165.952C33.3139 165.104 32.4886 162.782 31.9201 161.858C32.5342 161.383 34.2793 161.157 34.1777 159.996C34.0505 158.544 33.5325 158.388 31.7733 156.727Z" fill="#EFCB96"/>
<path fill-rule="evenodd" clip-rule="evenodd" d="M29.5614 80.1338C29.3852 80.2098 29.2076 80.2978 29.0289 80.3979C14.9614 89.0549 6.57497 117.731 6.84553 124.224C7.11602 130.716 17.6667 158.851 20.3719 159.122C22.6333 159.348 29.4308 157.117 31.6013 154.957C38.4427 156.687 49.1231 156.687 56.8934 156.687C70.1493 156.687 83.1345 155.605 85.2992 152.088C86.0257 150.908 85.2087 146.768 84.4873 144.243C86.1105 147.309 91.359 152.305 99.3662 147.76C109.376 142.079 104.777 124.765 96.3908 99.0647C89.6813 78.5042 72.3134 73.7251 64.4683 73.9056C64.4683 75.7087 62.791 79.3161 56.0818 79.3161C49.3727 79.3161 47.8758 75.7087 47.6954 73.9056C44.4491 73.9955 36.2791 75.366 29.57 80.1274C29.5671 80.1293 29.5643 80.1319 29.5614 80.1338Z" fill="#F4AD5E"/>
<path d="M41.2999 85.3423C41.3027 84.4043 42.065 83.6469 43.0028 83.6494L66.5589 83.7172C67.4969 83.7197 68.2543 84.4822 68.2518 85.4202L68.1593 117.497C68.1568 118.435 67.3943 119.193 66.4569 119.19L42.9006 119.122C41.9628 119.119 41.2048 118.357 41.2075 117.419L41.2999 85.3423Z" fill="white"/>
<path fill-rule="evenodd" clip-rule="evenodd" d="M40.734 85.3404C40.7375 84.0902 41.7541 83.0794 43.0044 83.0832L66.5608 83.151C67.811 83.1548 68.8218 84.1713 68.818 85.4215L68.7255 117.499C68.7217 118.749 67.7052 119.76 66.455 119.756L42.8989 119.688C41.6486 119.684 40.6379 118.668 40.6416 117.417L40.734 85.3404ZM43.0011 84.215C42.3759 84.2137 41.8677 84.7191 41.8659 85.3442L41.7735 117.421C41.7717 118.046 42.2771 118.554 42.9022 118.556L66.4582 118.624C67.0833 118.625 67.5918 118.12 67.5937 117.495L67.6862 85.4183C67.6875 84.7932 67.1827 84.2846 66.557 84.2834L43.0011 84.215Z" fill="#032068"/>
<path d="M84.4873 144.513L70.1493 119.354C71.2317 128.552 79.8887 143.972 85.5697 150.194C85.5697 148.896 84.7578 145.415 84.4873 144.513Z" fill="#032068"/>
<path d="M93.1443 121.248C89.1505 117.52 80.7006 110.123 78.3725 109.892C78.3364 109.89 78.3009 109.888 78.2654 109.886C78.2996 109.886 78.3351 109.888 78.3725 109.892C79.4346 109.913 80.7 108.933 80.7 104.746C83.4056 112.05 91.2507 115.567 93.1443 121.248Z" fill="#032068"/>
<path d="M70.4197 116.378L77.4535 110.89C76.5922 110.134 74.6098 107.715 73.5756 104.086C72.5414 100.457 69.8694 99.0457 68.6629 98.7943V102.322C67.7148 101.482 65.4569 100.003 64.0085 100.81C62.1988 101.818 62.9744 109.882 63.233 110.89C63.4917 111.898 66.8528 113.41 68.1454 113.662C69.1796 113.864 69.6084 115.026 70.4197 116.378Z" fill="#EFCB96"/>
<path d="M9.28025 134.504C13.6087 126.063 11.4445 114.395 9.82131 109.615C9.00975 112.681 7.27835 119.571 6.84546 122.601C6.41264 125.631 8.28832 131.799 9.28025 134.504Z" fill="#032068"/>
<path d="M84.2169 143.702C90.7098 138.941 100.629 139.373 104.777 140.185C104.326 142.169 103.154 146.719 96.9317 149.113C89.8979 151.818 85.7502 146.498 84.2169 143.702Z" fill="#032068"/>
<path d="M29.029 127.47C29.2454 123.358 31.8245 113.493 33.0869 109.074C31.1932 113.944 26.3237 122.06 26.3237 127.47C26.3237 131.799 30.2914 146.588 32.2754 153.441C31.1031 146.498 28.8125 131.582 29.029 127.47Z" fill="#032068"/>
<path d="M55.4769 71.5261C52.0142 71.5261 49.886 69.813 49.2547 69.0916L48.9843 71.7966C55.044 75.2596 60.5268 73.2399 62.5107 71.7966L62.2402 69.0916C61.4286 69.813 58.9397 71.5261 55.4769 71.5261Z" fill="#032068"/>
<path d="M136.428 124.933C135.708 141.996 146.337 160.677 152.371 168.732C152.686 169.153 153.181 169.391 153.706 169.391H158.191C159.209 169.391 159.997 168.486 159.863 167.477C155.867 137.378 144.79 126.132 138.304 123.606C137.383 123.247 136.469 123.946 136.428 124.933Z" fill="white"/>
<path fill-rule="evenodd" clip-rule="evenodd" d="M138.098 124.133C137.597 123.938 137.021 124.292 136.993 124.957C136.638 133.372 139.083 142.219 142.387 149.989C145.69 157.754 149.833 164.398 152.824 168.393C153.029 168.665 153.352 168.825 153.706 168.825H158.191C158.865 168.825 159.392 168.223 159.302 167.552C155.316 137.531 144.297 126.548 138.098 124.133ZM135.862 124.909C135.917 123.599 137.167 122.556 138.509 123.078C145.282 125.717 156.418 137.225 160.425 167.403C160.603 168.748 159.554 169.957 158.191 169.957H153.706C153.009 169.957 152.344 169.64 151.918 169.071C148.876 165.01 144.687 158.286 141.346 150.432C138.007 142.582 135.497 133.557 135.862 124.909Z" fill="#032068"/>
<path d="M170.389 114.759C156.427 127.239 153.631 156.486 153.672 167.97C153.675 168.887 154.427 169.597 155.343 169.597H159.497C160.125 169.597 160.709 169.239 161 168.681C174.974 141.891 173.536 125.256 173.03 115.981C172.956 114.619 171.407 113.849 170.389 114.759Z" fill="#032068"/>
<path d="M181.414 140.869C170.405 146.129 161.731 159.132 157.723 167.03C157.166 168.127 157.981 169.391 159.212 169.391H164.149C164.477 169.391 164.8 169.295 165.073 169.115C177.067 161.155 182.036 149.329 183.461 142.47C183.714 141.256 182.533 140.333 181.414 140.869Z" fill="white"/>
<path fill-rule="evenodd" clip-rule="evenodd" d="M182.907 142.355C183.064 141.601 182.357 141.045 181.658 141.379C176.257 143.96 171.398 148.458 167.379 153.321C163.365 158.179 160.216 163.368 158.228 167.286C157.872 167.987 158.381 168.825 159.212 168.825H164.149C164.368 168.825 164.582 168.761 164.76 168.643C176.599 160.787 181.504 149.109 182.907 142.355ZM181.17 140.358C182.71 139.622 184.364 140.91 184.016 142.586C182.569 149.548 177.535 161.524 165.385 169.586C165.018 169.83 164.586 169.957 164.149 169.957H159.212C157.582 169.957 156.46 168.268 157.218 166.774C159.238 162.794 162.43 157.533 166.506 152.6C170.579 147.672 175.563 143.038 181.17 140.358Z" fill="#032068"/>
<path fill-rule="evenodd" clip-rule="evenodd" d="M142.377 130.209C144.693 133.351 146.874 137.654 148.83 142.31C150.155 145.463 151.381 148.791 152.479 152.049L153.573 148.559L154.652 148.897L153.089 153.891C154.093 156.976 154.976 159.96 155.711 162.629C156.39 165.094 156.943 167.292 157.35 169.057L156.247 169.312C155.858 167.626 155.333 165.534 154.69 163.186L150.781 161.435L151.244 160.402L154.296 161.769C153.62 159.372 152.835 156.758 151.957 154.069C150.76 150.401 149.392 146.598 147.899 143.018L142.625 141.842L142.871 140.737L147.355 141.737C145.529 137.513 143.539 133.694 141.466 130.88L142.377 130.209Z" fill="#032068"/>
<path fill-rule="evenodd" clip-rule="evenodd" d="M165.992 134.076C166.81 131.141 167.589 128.486 168.29 126.292C169.103 123.746 169.799 121.867 170.316 120.892L169.317 120.361C168.745 121.437 168.023 123.41 167.211 125.948C166.396 128.5 165.478 131.666 164.518 135.155C163.848 137.59 163.158 140.185 162.467 142.843L160.832 139.001L159.791 139.445L162.002 144.641C161.167 147.883 160.338 151.187 159.552 154.378C158.191 159.903 156.958 165.094 156.041 169.056L157.143 169.312C158.046 165.413 159.255 160.322 160.592 154.894L166.158 151.913L165.623 150.915L160.957 153.414C161.665 150.552 162.404 147.619 163.146 144.737C163.954 141.603 164.766 138.529 165.55 135.672L170.111 132.887L169.521 131.921L165.992 134.076Z" fill="white"/>
<path fill-rule="evenodd" clip-rule="evenodd" d="M174.865 150.199C176.241 148.769 177.585 147.5 178.85 146.483L178.14 145.601C176.476 146.94 174.701 148.68 172.918 150.618C171.763 151.873 170.602 153.216 169.462 154.592L169.756 152.743L168.638 152.566L168.038 156.343C166.537 158.22 165.095 160.119 163.781 161.914C161.728 164.717 159.983 167.268 158.804 169.082L159.753 169.699C160.888 167.954 162.557 165.51 164.525 162.815H168.573V161.683H165.358C166.508 160.133 167.741 158.523 169.015 156.934C170.517 155.06 172.074 153.217 173.616 151.531L177.546 150.941L177.378 149.821L174.865 150.199Z" fill="#032068"/>
</svg>
