<svg width="192" height="192" viewBox="0 0 192 192" fill="none" xmlns="http://www.w3.org/2000/svg">
<path d="M138 74.3625V189.6H54.375V99.825L83.475 128.925L138 74.3625Z" fill="url(#paint0_linear_282_4345)"/>
<path d="M138 74.3625L94.35 118.012L83.475 128.887L72.5625 118.012L54.375 99.825L65.2875 88.9125L83.475 107.1L127.087 63.4875L138 74.3625Z" fill="#FCC047"/>
<path d="M37.125 99.9375H6.75C4.6875 99.9375 3 98.25 3 96.1875C3 94.125 4.6875 92.4375 6.75 92.4375H37.125C39.1875 92.4375 40.875 94.125 40.875 96.1875C40.875 98.25 39.1875 99.9375 37.125 99.9375Z" fill="url(#paint1_linear_282_4345)"/>
<path d="M185.625 99.9375H155.25C153.188 99.9375 151.5 98.25 151.5 96.1875C151.5 94.125 153.188 92.4375 155.25 92.4375H185.625C187.688 92.4375 189.375 94.125 189.375 96.1875C189.375 98.25 187.688 99.9375 185.625 99.9375Z" fill="url(#paint2_linear_282_4345)"/>
<path d="M96.1875 40.875C94.125 40.875 92.4375 39.1875 92.4375 37.125V6.75C92.4375 4.6875 94.125 3 96.1875 3C98.25 3 99.9375 4.6875 99.9375 6.75V37.125C99.9375 39.1875 98.25 40.875 96.1875 40.875Z" fill="url(#paint3_linear_282_4345)"/>
<path d="M96.1875 189.6C94.125 189.6 92.4375 187.913 92.4375 185.85V155.25C92.4375 153.188 94.125 151.5 96.1875 151.5C98.25 151.5 99.9375 153.188 99.9375 155.25V185.85C99.9375 187.913 98.25 189.6 96.1875 189.6Z" fill="url(#paint4_linear_282_4345)"/>
<path d="M159.638 162.975C158.663 162.975 157.725 162.6 156.975 161.888L135.488 140.4C134.025 138.938 134.025 136.575 135.488 135.113C136.95 133.65 139.313 133.65 140.775 135.113L162.263 156.6C163.725 158.063 163.725 160.425 162.263 161.888C161.55 162.6 160.613 162.975 159.638 162.975Z" fill="url(#paint5_linear_282_4345)"/>
<path d="M31.35 161.588C30.375 161.588 29.4375 161.213 28.6875 160.5C27.225 159.038 27.225 156.675 28.6875 155.213L50.2125 133.688C51.675 132.225 54.0375 132.225 55.5 133.688C56.9625 135.15 56.9625 137.513 55.5 138.975L34.0125 160.5C33.2625 161.213 32.325 161.588 31.35 161.588Z" fill="url(#paint6_linear_282_4345)"/>
<path d="M136.313 56.5875C135.338 56.5875 134.4 56.2125 133.65 55.5C132.188 54.0375 132.188 51.675 133.65 50.2125L155.138 28.7625C156.6 27.3 158.963 27.3 160.425 28.7625C161.888 30.225 161.888 32.5875 160.425 34.05L138.975 55.5C138.225 56.2125 137.288 56.5875 136.313 56.5875Z" fill="url(#paint7_linear_282_4345)"/>
<path d="M54.3375 58.2375C53.3625 58.2375 52.425 57.8625 51.675 57.15L30.225 35.7C28.7625 34.2375 28.7625 31.875 30.225 30.4125C31.6875 28.95 34.05 28.95 35.5125 30.4125L56.9625 51.8625C58.425 53.325 58.425 55.6875 56.9625 57.15C56.25 57.8625 55.3125 58.2375 54.3375 58.2375Z" fill="url(#paint8_linear_282_4345)"/>
<path d="M73.875 45.225C72.375 45.225 70.9875 44.325 70.3875 42.8625L64.725 28.65C63.975 26.7375 64.9125 24.5625 66.825 23.775C68.7375 23.025 70.9125 23.9625 71.7 25.875L77.3625 40.0875C78.1125 42 77.175 44.175 75.2625 44.9625C74.8125 45.15 74.325 45.225 73.875 45.225ZM41.2125 78.3C40.7625 78.3 40.3125 78.225 39.9 78.075L27.225 73.3125C25.275 72.6 24.3 70.425 25.05 68.475C25.7625 66.525 27.9375 65.55 29.8875 66.3L42.5625 71.0625C44.5125 71.775 45.4875 73.95 44.7375 75.9C44.175 77.3625 42.7125 78.3 41.2125 78.3ZM28.5375 128.963C27.2625 128.963 25.9875 128.288 25.3125 127.088C24.2625 125.288 24.8625 123 26.6625 121.95L39.3375 114.563C41.1375 113.513 43.425 114.113 44.475 115.913C45.525 117.713 44.925 120 43.125 121.05L30.45 128.438C29.85 128.813 29.175 128.963 28.5375 128.963ZM65.8125 167.213C65.325 167.213 64.875 167.138 64.3875 166.95C62.475 166.163 61.5375 163.988 62.325 162.075L67.9125 148.425C68.7 146.513 70.875 145.575 72.7875 146.363C74.7 147.15 75.6375 149.325 74.85 151.238L69.2625 164.888C68.7 166.35 67.275 167.213 65.8125 167.213ZM126.9 167.213C125.438 167.213 124.088 166.35 123.45 164.963L117.525 151.313C116.7 149.4 117.563 147.188 119.475 146.363C121.388 145.538 123.6 146.4 124.425 148.313L130.35 161.963C131.175 163.875 130.312 166.088 128.4 166.913C127.912 167.1 127.388 167.213 126.9 167.213ZM163.312 126.825C162.825 126.825 162.3 126.713 161.812 126.525L149.663 121.275C147.75 120.45 146.888 118.238 147.713 116.363C148.537 114.45 150.75 113.588 152.625 114.413L164.775 119.663C166.688 120.488 167.55 122.7 166.725 124.575C166.125 125.963 164.775 126.825 163.312 126.825ZM150.15 75.9375C148.725 75.9375 147.338 75.1125 146.7 73.6875C145.875 71.775 146.738 69.5625 148.613 68.7375L161.775 62.925C163.688 62.1 165.9 62.9625 166.725 64.8375C167.55 66.75 166.688 68.9625 164.812 69.7875L151.65 75.6C151.162 75.825 150.675 75.9375 150.15 75.9375ZM119.963 45.8625C119.625 45.8625 119.25 45.825 118.913 45.7125C116.925 45.1125 115.8 43.05 116.363 41.0625L120.75 26.2125C121.35 24.225 123.412 23.1 125.4 23.6625C127.388 24.2625 128.513 26.325 127.95 28.3125L123.562 43.1625C123.075 44.8125 121.575 45.8625 119.963 45.8625Z" fill="#39EA96"/>
<path d="M146.363 4.04999C146.363 4.04999 146.363 15.6375 134.813 15.6375C134.813 15.6375 146.363 15.6375 146.363 27.225C146.363 27.225 146.363 15.6375 157.95 15.6375C157.95 15.6375 146.363 15.6375 146.363 4.04999ZM139.013 20.8875C139.013 20.8875 139.013 25.0875 134.813 25.0875C134.813 25.0875 139.013 25.0875 139.013 29.2875C139.013 29.2875 139.012 25.0875 143.212 25.0875C143.212 25.0875 139.013 25.0875 139.013 20.8875ZM43.575 131.888C43.575 131.888 43.575 138.413 37.05 138.413C37.05 138.413 43.575 138.413 43.575 144.938C43.575 144.938 43.575 138.413 50.1 138.413C50.1375 138.413 43.575 138.413 43.575 131.888Z" fill="#FCC047"/>
<defs>
<linearGradient id="paint0_linear_282_4345" x1="96.1875" y1="223.5" x2="96.1875" y2="85.5424" gradientUnits="userSpaceOnUse">
<stop stop-color="white" stop-opacity="0"/>
<stop offset="0.144" stop-color="#FAFBFF" stop-opacity="0.086"/>
<stop offset="0.308" stop-color="#ECF0FF" stop-opacity="0.185"/>
<stop offset="0.483" stop-color="#D5DEFF" stop-opacity="0.29"/>
<stop offset="0.665" stop-color="#B5C5FF" stop-opacity="0.399"/>
<stop offset="0.85" stop-color="#8DA4FF" stop-opacity="0.51"/>
<stop offset="1" stop-color="#6686FF" stop-opacity="0.6"/>
</linearGradient>
<linearGradient id="paint1_linear_282_4345" x1="3" y1="96.1875" x2="40.875" y2="96.1875" gradientUnits="userSpaceOnUse">
<stop stop-color="#381FA1"/>
<stop offset="1" stop-color="#5F2FC9"/>
</linearGradient>
<linearGradient id="paint2_linear_282_4345" x1="151.5" y1="96.1875" x2="189.375" y2="96.1875" gradientUnits="userSpaceOnUse">
<stop stop-color="#381FA1"/>
<stop offset="1" stop-color="#5F2FC9"/>
</linearGradient>
<linearGradient id="paint3_linear_282_4345" x1="92.4375" y1="21.9375" x2="99.9375" y2="21.9375" gradientUnits="userSpaceOnUse">
<stop stop-color="#381FA1"/>
<stop offset="1" stop-color="#5F2FC9"/>
</linearGradient>
<linearGradient id="paint4_linear_282_4345" x1="92.4375" y1="170.55" x2="99.9375" y2="170.55" gradientUnits="userSpaceOnUse">
<stop stop-color="#381FA1"/>
<stop offset="1" stop-color="#5F2FC9"/>
</linearGradient>
<linearGradient id="paint5_linear_282_4345" x1="134.391" y1="148.495" x2="163.359" y2="148.495" gradientUnits="userSpaceOnUse">
<stop stop-color="#381FA1"/>
<stop offset="1" stop-color="#5F2FC9"/>
</linearGradient>
<linearGradient id="paint6_linear_282_4345" x1="27.5906" y1="147.089" x2="56.5969" y2="147.089" gradientUnits="userSpaceOnUse">
<stop stop-color="#381FA1"/>
<stop offset="1" stop-color="#5F2FC9"/>
</linearGradient>
<linearGradient id="paint7_linear_282_4345" x1="132.553" y1="42.1264" x2="161.522" y2="42.1264" gradientUnits="userSpaceOnUse">
<stop stop-color="#381FA1"/>
<stop offset="1" stop-color="#5F2FC9"/>
</linearGradient>
<linearGradient id="paint8_linear_282_4345" x1="29.1281" y1="43.7767" x2="58.0594" y2="43.7767" gradientUnits="userSpaceOnUse">
<stop stop-color="#381FA1"/>
<stop offset="1" stop-color="#5F2FC9"/>
</linearGradient>
</defs>
</svg>
