<svg width="260" height="260" viewBox="0 0 260 260" fill="none" xmlns="http://www.w3.org/2000/svg">
<path opacity="0.31" d="M216.426 179.378C216.062 179.383 213.826 176.393 213.397 175.979C209.895 172.589 207.793 168.865 206.214 164.814C205.01 161.725 204.112 158.444 203.132 154.982C202.47 152.646 201.404 150.037 199.093 149.3C196.844 148.585 194.422 150.068 193.04 151.98C191.656 153.891 190.96 156.209 189.778 158.251C187.633 161.951 183.837 163.501 180.698 160.249C176.215 155.603 174.195 149.266 171.352 143.599C169.289 139.485 167.56 134.668 164.96 130.874C160.995 125.091 155.557 120.159 148.328 120.159C143.744 120.852 139.707 124.913 136.972 129.986C134.239 135.058 132.643 141.093 131.286 147.112C130.147 152.16 129.148 157.264 128.223 162.394C126.504 156.212 124.716 150.075 122.78 144.045C120.683 137.514 118.367 131.006 115.151 125.78C111.935 120.553 107.676 116.699 103.401 116.726C96.8115 118.001 92.56 124.506 89.7722 131.714C87.945 136.44 87.0591 142.165 85.7639 147.158C83.9824 154.036 83.0483 161.518 79.625 167.539C77.2296 171.752 73.5463 170.678 71.0642 166.891C69.6944 164.801 68.7291 162.317 67.1955 160.41C65.662 158.504 63.2426 157.261 61.2974 158.463C59.2968 159.698 58.6974 162.825 58.4278 165.567C58.0281 169.638 57.6791 173.485 57.0218 177.173C56.8798 177.977 56.7209 178.772 56.5452 179.559H125.339C125.291 179.853 125.243 180.149 125.197 180.442L216.426 179.378Z" fill="#DCE6EF"/>
<path opacity="0.77" d="M188.9 170.028C188.721 173.574 184.862 179.773 181.316 179.595C177.77 179.417 175.878 172.926 176.059 169.38C176.237 165.834 180.014 148.087 183.56 148.267C187.104 148.446 189.078 166.482 188.9 170.028Z" fill="#FFBE55"/>
<path d="M181.6 179.405H181.596C181.583 179.404 181.571 179.401 181.56 179.396C181.549 179.39 181.54 179.383 181.532 179.374C181.524 179.364 181.517 179.354 181.513 179.342C181.51 179.331 181.508 179.318 181.509 179.306L183.298 150.566C183.3 150.516 183.341 150.473 183.396 150.48C183.447 150.482 183.488 150.528 183.483 150.579L181.694 179.318C181.692 179.342 181.681 179.363 181.664 179.379C181.646 179.395 181.624 179.404 181.6 179.405Z" fill="#0B4870"/>
<path opacity="0.77" d="M180.782 169.289C179.975 171.063 179.359 172.924 178.988 174.864C178.801 175.847 178.68 176.913 179.126 177.811C179.612 178.791 180.69 179.362 181.769 179.54C184.405 179.973 187.041 178.358 188.587 176.179C190.132 174 190.801 171.335 191.415 168.738C191.899 166.691 192.374 164.614 193.286 162.707C193.676 161.889 195.965 158.732 194.882 157.914C193.401 156.751 189.116 158.015 186.372 161.015C184.109 163.48 182.164 166.256 180.782 169.289Z" fill="#FFBE55"/>
<path d="M181.769 179.631C181.762 179.631 181.754 179.631 181.745 179.629C181.721 179.623 181.701 179.607 181.688 179.586C181.675 179.565 181.671 179.539 181.677 179.516C181.709 179.39 184.956 167.019 192.571 159.975C192.609 159.941 192.667 159.941 192.703 159.979C192.739 160.018 192.737 160.076 192.699 160.112C185.122 167.117 181.892 179.439 181.86 179.561C181.851 179.605 181.812 179.631 181.769 179.631Z" fill="#0B4870"/>
<path opacity="0.77" d="M199.422 166.369C199.15 166.857 198.64 167.19 198.175 167.45C197.605 167.772 196.996 168.054 196.406 168.328C195.65 168.68 194.87 169.043 194.148 169.496C193.623 169.826 193.156 170.199 192.764 170.599C193.382 169.193 194.107 167.965 194.959 166.867C196.081 165.423 197.232 164.691 198.385 164.691C198.411 164.691 198.438 164.691 198.464 164.693C198.821 164.703 199.097 164.792 199.288 164.956C199.68 165.29 199.663 165.935 199.422 166.369ZM200.708 174.378C200.253 174.703 199.649 174.785 199.119 174.824C198.464 174.869 197.793 174.864 197.145 174.862C196.312 174.857 195.45 174.85 194.605 174.951C193.989 175.026 193.406 175.163 192.882 175.356C194.042 174.349 195.222 173.548 196.461 172.922C198.094 172.096 199.447 171.927 200.489 172.421L200.561 172.457C200.879 172.618 201.091 172.816 201.194 173.047C201.401 173.514 201.11 174.092 200.708 174.378Z" fill="#FFBE55"/>
<path opacity="0.77" d="M197.675 178.321C197.297 178.269 196.957 178.028 196.676 177.797C196.329 177.513 195.997 177.197 195.677 176.889C195.265 176.497 194.839 176.09 194.372 175.743C194.03 175.49 193.676 175.286 193.324 175.136C194.374 175.18 195.335 175.334 196.247 175.604C197.446 175.957 198.197 176.509 198.484 177.241C198.491 177.257 198.496 177.274 198.503 177.291C198.585 177.52 198.597 177.717 198.541 177.881C198.426 178.216 198.009 178.367 197.675 178.321Z" fill="#FFBE55"/>
<path d="M189.046 179.703C188.998 179.699 188.953 179.662 188.953 179.609C188.953 179.532 189.095 171.906 198.286 165.514C198.329 165.485 198.387 165.495 198.416 165.538C198.445 165.581 198.435 165.639 198.392 165.668C189.28 172.004 189.138 179.535 189.138 179.609C189.14 179.66 189.099 179.703 189.046 179.703Z" fill="#0B4870"/>
<path d="M189.046 179.703C189.032 179.703 189.02 179.701 189.006 179.694C188.994 179.689 188.984 179.681 188.976 179.672C188.967 179.663 188.961 179.652 188.956 179.641C188.952 179.629 188.95 179.617 188.951 179.604C188.951 179.592 188.954 179.58 188.96 179.569C188.989 179.508 191.916 173.425 199.593 173.425C199.646 173.425 199.687 173.466 199.687 173.519C199.687 173.572 199.646 173.613 199.593 173.613C192.039 173.613 189.157 179.588 189.131 179.648C189.116 179.682 189.083 179.703 189.046 179.703Z" fill="#0B4870"/>
<path d="M197.848 177.549C197.828 177.548 197.809 177.541 197.793 177.529C194.754 175.238 193.259 175.305 193.247 175.307C193.194 175.312 193.151 175.271 193.146 175.221C193.144 175.17 193.182 175.124 193.233 175.12C193.296 175.112 194.795 175.035 197.906 177.38C197.947 177.411 197.956 177.469 197.925 177.513C197.906 177.534 197.877 177.549 197.848 177.549Z" fill="#0B4870"/>
<path d="M80.2509 168.509C78.9148 166.966 77.2224 165.637 76.6879 163.689C76.2979 162.266 76.6061 160.762 76.7578 159.296C76.9094 157.83 76.8565 156.207 75.9079 155.08C75.1255 154.151 73.8905 153.747 72.7037 153.491C71.5168 153.236 70.277 153.075 69.2226 152.471C67.5109 151.489 67.8528 149.82 66.9331 148.356C65.9028 146.715 63.5026 144.618 61.4466 145.708C59.2703 146.864 59.6146 150.371 61.0615 151.919C62.022 152.947 63.2522 153.932 63.3942 155.333C63.6061 157.44 61.1939 159.337 61.8559 161.349C62.347 162.835 64.2176 163.345 65.1444 164.606C66.0592 165.856 65.8739 167.604 65.337 169.055C64.7978 170.507 63.9503 171.848 63.6157 173.357C62.9296 176.448 65.3563 178.584 68.12 179.275C70.6598 179.908 76.1366 179.609 76.1366 179.609C78.0915 178.926 80.2581 177.209 81.3342 175.331C82.1455 173.913 82.2587 172.118 81.6303 170.608C81.3053 169.833 80.8094 169.152 80.2509 168.509Z" fill="#FFBE55"/>
<path d="M74.2516 179.624C74.2035 179.624 74.1602 179.585 74.1578 179.535C73.1539 163.701 63.8974 149.238 63.8035 149.093C63.7966 149.083 63.7918 149.071 63.7895 149.059C63.7872 149.047 63.7874 149.034 63.7901 149.022C63.7928 149.01 63.7979 148.998 63.8052 148.988C63.8125 148.978 63.8217 148.97 63.8324 148.963C63.8757 148.934 63.9335 148.946 63.9624 148.992C64.0563 149.136 73.3392 163.644 74.3479 179.523C74.3504 179.573 74.3118 179.619 74.2613 179.621C74.2565 179.624 74.2541 179.624 74.2516 179.624Z" fill="#0B4870"/>
<path d="M55.5533 168.528C55.6978 168.405 55.9072 168.338 56.1769 168.331H56.237C57.1061 168.331 57.9776 168.884 58.8274 169.975C59.4726 170.806 60.0191 171.735 60.4861 172.796C60.19 172.493 59.8361 172.211 59.4389 171.964C58.8948 171.622 58.3026 171.347 57.732 171.08C57.2867 170.873 56.8269 170.659 56.3959 170.416C56.0445 170.218 55.6593 169.965 55.4522 169.597C55.2693 169.27 55.2572 168.781 55.5533 168.528ZM54.1137 174.645C54.1907 174.472 54.352 174.323 54.5928 174.2C54.6096 174.19 54.6289 174.183 54.6458 174.174C55.433 173.8 56.4561 173.928 57.6911 174.551C58.63 175.026 59.5207 175.632 60.3995 176.393C60.0022 176.246 59.5617 176.143 59.097 176.087C58.4567 176.01 57.8067 176.015 57.1759 176.02C56.6848 176.022 56.1769 176.027 55.6833 175.991C55.2813 175.962 54.8263 175.9 54.482 175.654C54.1739 175.437 53.9548 174.999 54.1137 174.645Z" fill="#FFBE55"/>
<path d="M56.1167 178.305C56.0733 178.182 56.083 178.033 56.1456 177.859C56.1504 177.847 56.1552 177.833 56.16 177.821C56.3767 177.267 56.9448 176.851 57.8524 176.583C58.5409 176.379 59.268 176.263 60.0624 176.229C59.7952 176.343 59.528 176.497 59.2704 176.689C58.9165 176.952 58.5939 177.257 58.2833 177.556C58.0402 177.787 57.7898 178.028 57.5274 178.242C57.3156 178.415 57.058 178.598 56.7715 178.639C56.5187 178.671 56.2058 178.555 56.1167 178.305Z" fill="#FFBE55"/>
<path d="M63.2956 179.703C63.2707 179.703 63.2468 179.693 63.2292 179.676C63.2116 179.658 63.2017 179.634 63.2017 179.609C63.2017 179.552 63.0885 173.865 56.2154 169.087C56.195 169.073 56.1809 169.051 56.1764 169.027C56.1719 169.002 56.1773 168.977 56.1913 168.957C56.2054 168.936 56.2269 168.922 56.2513 168.918C56.2757 168.913 56.3009 168.919 56.3213 168.933C63.2811 173.771 63.3895 179.552 63.3895 179.609C63.3919 179.66 63.3485 179.703 63.2956 179.703C63.298 179.703 63.298 179.703 63.2956 179.703Z" fill="#0B4870"/>
<path d="M63.298 179.703C63.2618 179.703 63.2281 179.684 63.2137 179.65C63.192 179.605 61.0181 175.1 55.3222 175.1C55.2693 175.1 55.2283 175.059 55.2283 175.006C55.2283 174.954 55.2693 174.913 55.3222 174.913C61.1409 174.913 63.3606 179.525 63.3822 179.571C63.4039 179.619 63.3846 179.674 63.3365 179.696C63.3244 179.699 63.31 179.703 63.298 179.703Z" fill="#0B4870"/>
<path d="M56.6415 178.074C56.6268 178.074 56.6124 178.07 56.5993 178.064C56.5863 178.057 56.5752 178.047 56.5668 178.035C56.5355 177.994 56.5428 177.934 56.5861 177.903C58.943 176.124 60.0865 176.186 60.1346 176.189C60.1852 176.193 60.2261 176.237 60.2213 176.29C60.2165 176.34 60.1731 176.384 60.1202 176.376C60.1081 176.376 58.9863 176.328 56.6993 178.052C56.68 178.069 56.6607 178.074 56.6415 178.074Z" fill="#0B4870"/>
<path d="M156.183 175.731H90.1766C88.7226 175.731 87.5405 174.549 87.5405 173.095V84.2617C87.5405 82.8076 88.7226 81.6255 90.1766 81.6255H109.905V82.3478H90.1766C89.1222 82.3478 88.2627 83.2072 88.2627 84.2617V173.095C88.2627 174.149 89.1222 175.009 90.1766 175.009H156.183C157.237 175.009 158.097 174.149 158.097 173.095V84.2617C158.097 83.2072 157.237 82.3478 156.183 82.3478H136.459V81.6255H156.183C157.637 81.6255 158.819 82.8076 158.819 84.2617V173.095C158.819 174.547 157.637 175.731 156.183 175.731Z" fill="#FFBE55"/>
<path d="M153.429 171.061H92.9307C92.4179 171.061 92.0015 170.644 92.0015 170.131V87.2252C92.0015 86.7124 92.4179 86.2959 92.9307 86.2959H153.429C153.942 86.2959 154.358 86.7124 154.358 87.2252V170.131C154.358 170.644 153.942 171.061 153.429 171.061Z" fill="#F2F2F2"/>
<path d="M136.772 88.7563H109.588V79.8609H117.457C117.51 76.7505 120.057 74.2348 123.18 74.2348C126.302 74.2348 128.849 76.7505 128.902 79.8609H136.772V88.7563ZM110.31 88.0341H136.05V80.5831H128.149L128.173 80.1065C128.175 80.0583 128.18 80.0078 128.18 79.9572C128.18 77.2007 125.936 74.957 123.18 74.957C120.423 74.957 118.18 77.2007 118.18 79.9572C118.18 80.0078 118.184 80.0583 118.187 80.1065L118.211 80.5831H110.31V88.0341Z" fill="#FFBE55"/>
<path d="M123.18 83.33C121.321 83.33 119.807 81.8181 119.807 79.9572C119.807 78.0963 121.319 76.5844 123.18 76.5844C125.041 76.5844 126.553 78.0963 126.553 79.9572C126.553 81.8181 125.038 83.33 123.18 83.33ZM123.18 77.3091C121.719 77.3091 120.529 78.4983 120.529 79.9596C120.529 81.4209 121.719 82.6102 123.18 82.6102C124.641 82.6102 125.83 81.4209 125.83 79.9596C125.83 78.4983 124.641 77.3091 123.18 77.3091Z" fill="#FFBE55"/>
<path d="M218.111 189.67H41.8889C39.0963 189.67 36.8333 187.407 36.8333 184.614C36.8333 181.822 39.0963 179.559 41.8889 179.559H218.111C220.904 179.559 223.167 181.822 223.167 184.614C223.167 187.407 220.904 189.67 218.111 189.67Z" fill="#D3D3D3"/>
<path d="M110.279 109.828H99.8617V99.4115H110.279V109.828ZM100.102 109.588H110.038V99.6522H100.102V109.588Z" fill="#0B4870"/>
<path d="M105.413 107.532L101.971 104.828L102.565 104.072L105.348 106.256L111.374 100.451L112.041 101.145L105.413 107.532ZM148.2 102.421H115.043C114.939 102.421 114.839 102.379 114.765 102.306C114.692 102.232 114.65 102.132 114.65 102.028C114.65 101.924 114.692 101.824 114.765 101.751C114.839 101.677 114.939 101.636 115.043 101.636H148.2C148.304 101.636 148.404 101.677 148.477 101.751C148.551 101.824 148.592 101.924 148.592 102.028C148.592 102.132 148.551 102.232 148.477 102.306C148.404 102.379 148.304 102.421 148.2 102.421ZM148.2 104.149H115.043C114.939 104.149 114.839 104.108 114.765 104.034C114.692 103.961 114.65 103.861 114.65 103.757C114.65 103.653 114.692 103.553 114.765 103.479C114.839 103.406 114.939 103.364 115.043 103.364H148.2C148.304 103.364 148.404 103.406 148.477 103.479C148.551 103.553 148.592 103.653 148.592 103.757C148.592 103.861 148.551 103.961 148.477 104.034C148.404 104.108 148.304 104.149 148.2 104.149ZM148.2 105.875H115.043C114.939 105.875 114.839 105.834 114.765 105.76C114.692 105.687 114.65 105.587 114.65 105.483C114.65 105.379 114.692 105.279 114.765 105.205C114.839 105.132 114.939 105.091 115.043 105.091H148.2C148.304 105.091 148.404 105.132 148.477 105.205C148.551 105.279 148.592 105.379 148.592 105.483C148.592 105.587 148.551 105.687 148.477 105.76C148.404 105.834 148.304 105.875 148.2 105.875ZM148.2 107.604H115.043C114.939 107.604 114.839 107.563 114.765 107.489C114.692 107.415 114.65 107.316 114.65 107.211C114.65 107.107 114.692 107.008 114.765 106.934C114.839 106.86 114.939 106.819 115.043 106.819H148.2C148.304 106.819 148.404 106.86 148.477 106.934C148.551 107.008 148.592 107.107 148.592 107.211C148.592 107.316 148.551 107.415 148.477 107.489C148.404 107.563 148.304 107.604 148.2 107.604ZM110.279 126.211H99.8617V115.794H110.279V126.211ZM100.102 125.97H110.038V116.035H100.102V125.97Z" fill="#0B4870"/>
<path d="M105.413 123.914L101.971 121.211L102.565 120.455L105.348 122.638L111.374 116.834L112.041 117.527L105.413 123.914ZM148.2 118.803H115.043C114.939 118.803 114.839 118.762 114.765 118.688C114.692 118.615 114.65 118.515 114.65 118.411C114.65 118.307 114.692 118.207 114.765 118.133C114.839 118.06 114.939 118.018 115.043 118.018H148.2C148.304 118.018 148.404 118.06 148.477 118.133C148.551 118.207 148.592 118.307 148.592 118.411C148.592 118.515 148.551 118.615 148.477 118.688C148.404 118.762 148.304 118.803 148.2 118.803ZM148.2 120.532H115.043C114.939 120.532 114.839 120.49 114.765 120.417C114.692 120.343 114.65 120.243 114.65 120.139C114.65 120.035 114.692 119.935 114.765 119.862C114.839 119.788 114.939 119.747 115.043 119.747H148.2C148.304 119.747 148.404 119.788 148.477 119.862C148.551 119.935 148.592 120.035 148.592 120.139C148.592 120.243 148.551 120.343 148.477 120.417C148.404 120.49 148.304 120.532 148.2 120.532ZM148.2 122.258H115.043C114.939 122.258 114.839 122.216 114.765 122.143C114.692 122.069 114.65 121.969 114.65 121.865C114.65 121.761 114.692 121.661 114.765 121.588C114.839 121.514 114.939 121.473 115.043 121.473H148.2C148.304 121.473 148.404 121.514 148.477 121.588C148.551 121.661 148.592 121.761 148.592 121.865C148.592 121.969 148.551 122.069 148.477 122.143C148.404 122.216 148.304 122.258 148.2 122.258ZM148.2 123.986H115.043C114.939 123.986 114.839 123.945 114.765 123.871C114.692 123.798 114.65 123.698 114.65 123.594C114.65 123.49 114.692 123.39 114.765 123.316C114.839 123.243 114.939 123.201 115.043 123.201H148.2C148.304 123.201 148.404 123.243 148.477 123.316C148.551 123.39 148.592 123.49 148.592 123.594C148.592 123.698 148.551 123.798 148.477 123.871C148.404 123.945 148.304 123.986 148.2 123.986ZM110.279 142.593H99.8617V132.176H110.279V142.593ZM100.102 142.352H110.038V132.417H100.102V142.352Z" fill="#0B4870"/>
<path d="M105.413 140.297L101.971 137.593L102.565 136.837L105.348 139.021L111.374 133.216L112.041 133.91L105.413 140.297ZM148.2 135.186H115.043C114.939 135.186 114.839 135.144 114.765 135.071C114.692 134.997 114.65 134.897 114.65 134.793C114.65 134.689 114.692 134.589 114.765 134.516C114.839 134.442 114.939 134.401 115.043 134.401H148.2C148.304 134.401 148.404 134.442 148.477 134.516C148.551 134.589 148.592 134.689 148.592 134.793C148.592 134.897 148.551 134.997 148.477 135.071C148.404 135.144 148.304 135.186 148.2 135.186ZM148.2 136.914H115.043C114.939 136.914 114.839 136.873 114.765 136.799C114.692 136.726 114.65 136.626 114.65 136.522C114.65 136.418 114.692 136.318 114.765 136.244C114.839 136.171 114.939 136.129 115.043 136.129H148.2C148.304 136.129 148.404 136.171 148.477 136.244C148.551 136.318 148.592 136.418 148.592 136.522C148.592 136.626 148.551 136.726 148.477 136.799C148.404 136.873 148.304 136.914 148.2 136.914ZM148.2 138.64H115.043C114.939 138.64 114.839 138.599 114.765 138.525C114.692 138.452 114.65 138.352 114.65 138.248C114.65 138.144 114.692 138.044 114.765 137.97C114.839 137.897 114.939 137.855 115.043 137.855H148.2C148.304 137.855 148.404 137.897 148.477 137.97C148.551 138.044 148.592 138.144 148.592 138.248C148.592 138.352 148.551 138.452 148.477 138.525C148.404 138.599 148.304 138.64 148.2 138.64ZM148.2 140.369H115.043C114.939 140.369 114.839 140.327 114.765 140.254C114.692 140.18 114.65 140.08 114.65 139.976C114.65 139.872 114.692 139.772 114.765 139.699C114.839 139.625 114.939 139.584 115.043 139.584H148.2C148.304 139.584 148.404 139.625 148.477 139.699C148.551 139.772 148.592 139.872 148.592 139.976C148.592 140.08 148.551 140.18 148.477 140.254C148.404 140.327 148.304 140.369 148.2 140.369ZM110.279 158.976H99.8617V148.559H110.279V158.976ZM100.102 158.735H110.038V148.799H100.102V158.735Z" fill="#0B4870"/>
<path d="M105.413 156.679L101.971 153.975L102.565 153.219L105.348 155.403L111.374 149.599L112.041 150.292L105.413 156.679ZM148.2 151.568H115.043C114.939 151.568 114.839 151.527 114.765 151.453C114.692 151.379 114.65 151.28 114.65 151.176C114.65 151.071 114.692 150.972 114.765 150.898C114.839 150.824 114.939 150.783 115.043 150.783H148.2C148.304 150.783 148.404 150.824 148.477 150.898C148.551 150.972 148.592 151.071 148.592 151.176C148.592 151.28 148.551 151.379 148.477 151.453C148.404 151.527 148.304 151.568 148.2 151.568ZM148.2 153.296H115.043C114.939 153.296 114.839 153.255 114.765 153.182C114.692 153.108 114.65 153.008 114.65 152.904C114.65 152.8 114.692 152.7 114.765 152.627C114.839 152.553 114.939 152.512 115.043 152.512H148.2C148.304 152.512 148.404 152.553 148.477 152.627C148.551 152.7 148.592 152.8 148.592 152.904C148.592 153.008 148.551 153.108 148.477 153.182C148.404 153.255 148.304 153.296 148.2 153.296ZM148.2 155.023H115.043C114.939 155.023 114.839 154.981 114.765 154.908C114.692 154.834 114.65 154.734 114.65 154.63C114.65 154.526 114.692 154.426 114.765 154.353C114.839 154.279 114.939 154.238 115.043 154.238H148.2C148.304 154.238 148.404 154.279 148.477 154.353C148.551 154.426 148.592 154.526 148.592 154.63C148.592 154.734 148.551 154.834 148.477 154.908C148.404 154.981 148.304 155.023 148.2 155.023ZM148.2 156.751H115.043C114.939 156.751 114.839 156.71 114.765 156.636C114.692 156.563 114.65 156.463 114.65 156.359C114.65 156.255 114.692 156.155 114.765 156.081C114.839 156.008 114.939 155.966 115.043 155.966H148.2C148.304 155.966 148.404 156.008 148.477 156.081C148.551 156.155 148.592 156.255 148.592 156.359C148.592 156.463 148.551 156.563 148.477 156.636C148.404 156.71 148.304 156.751 148.2 156.751Z" fill="#0B4870"/>
<path d="M149.878 139.947C150.417 139.565 150.913 139.122 151.142 138.992C151.238 138.939 151.537 138.871 151.621 138.845C151.871 138.77 152.271 138.693 152.444 138.498L153.186 137.684C153.537 137.285 153.997 137.152 154.394 137.504C154.825 137.884 154.698 138.426 154.269 138.811L153.761 139.389C153.419 139.697 153.248 140.13 153.058 140.549C152.673 141.404 151.799 142.047 151.053 142.497C150.583 142.779 149.873 142.579 148.941 142.261C148.484 142.104 147.822 141.726 148.393 141.512C148.872 141.334 150.311 141.722 150.947 140.395C150.978 140.33 151.046 140.157 150.981 140.097C150.788 139.916 150.362 140.325 150.078 140.455C149.678 140.638 149.358 140.576 149.259 140.429C149.153 140.275 149.493 140.222 149.878 139.947Z" fill="#FAB9AF"/>
<path d="M170.139 110.844C170.139 110.844 168.949 125.12 164.681 129.937C162.11 132.841 155.819 137.819 154.363 138.96C154.178 139.105 153.918 139.112 153.725 138.977C153.602 138.891 153.463 138.785 153.342 138.679C153.219 138.57 153.077 138.414 152.95 138.265C152.738 138.017 152.748 137.648 152.969 137.41C154.601 135.636 161.005 128.604 161.785 126.755C162.678 124.634 164.216 112.113 165.63 110.3C167.043 108.483 169.751 108.09 170.139 110.844Z" fill="#FFBE55"/>
<path d="M164.749 134.427L168.389 108.861L178.204 107.512L183.31 134.244L164.749 134.427ZM172.337 174.046L172.327 176.928C172.325 177.515 172.404 178.098 172.563 178.661L172.813 179.549C173.018 180.279 172.471 181.001 171.713 180.998C169.751 180.991 166.395 180.996 165.531 180.998C165.389 180.998 165.252 180.902 165.24 180.763C165.167 179.922 167.596 179.357 169.429 178.649C170.822 178.11 170.748 175.603 170.577 174.14C170.512 173.586 170.974 173.117 171.528 173.162C171.985 173.201 172.339 173.586 172.337 174.046ZM185.828 173.237L186.82 176.533C186.863 176.68 186.928 176.817 187.015 176.942L187.718 177.987C188.165 178.651 187.843 179.556 187.077 179.79C187.077 179.79 185.657 180.288 184.196 180.77C182.698 181.261 180.813 180.852 180.813 180.454C180.813 179.576 181.632 180.274 183.004 179.357C183.464 179.048 183.938 178.728 184.362 178.396C185.541 177.469 184.511 175.124 183.789 173.803C183.529 173.328 183.806 172.739 184.335 172.626L184.677 172.553C185.178 172.45 185.679 172.746 185.828 173.237Z" fill="#FAB9AF"/>
<path d="M175.685 134.675L164.806 133.763C164.806 133.763 163.711 141.681 166.46 156.012C167.751 162.734 170.437 175.577 170.437 175.577C171.104 175.868 171.781 175.941 172.469 175.77C172.469 175.77 172.674 170.105 172.799 164.002C172.919 158.152 172.951 151.9 173.324 149.854C174.084 145.675 175.685 134.675 175.685 134.675Z" fill="#0B4870"/>
<path d="M173.439 134.812C172.315 140.841 169.806 149.854 174.641 158.321C179.472 166.788 184.549 175.591 184.549 175.591C185.204 175.618 185.796 175.382 186.348 174.963C186.348 174.963 185.5 171.126 184.275 166.643C182.874 161.515 181.1 155.485 181.605 152.341C182.554 146.447 183.642 138.599 183.312 134.786C182.98 130.973 174.029 131.644 173.439 134.812Z" fill="#0B4870"/>
<path d="M164.373 133.777L168.389 108.861L178.206 107.512L183.481 133.823C183.504 133.94 183.505 134.061 183.481 134.179C183.458 134.296 183.412 134.408 183.345 134.507C183.278 134.607 183.192 134.692 183.093 134.758C182.993 134.824 182.881 134.869 182.763 134.892C180.936 135.239 176.528 135.961 171.593 135.961C167.909 135.961 165.839 135.246 164.898 134.791C164.713 134.701 164.561 134.554 164.467 134.371C164.372 134.189 164.339 133.98 164.373 133.777Z" fill="#F2F2F2"/>
<path d="M183.803 143.421C183.952 142.779 184.034 142.116 184.119 141.869C184.155 141.765 184.335 141.517 184.381 141.44C184.521 141.219 184.769 140.896 184.769 140.636L184.788 139.536C184.788 139.004 185.045 138.602 185.575 138.602C186.15 138.602 186.413 139.093 186.345 139.666V140.436C186.292 140.894 186.451 141.332 186.586 141.772C186.861 142.668 186.632 143.727 186.369 144.56C186.206 145.082 185.539 145.403 184.631 145.778C184.186 145.964 183.437 146.118 183.724 145.581C183.964 145.131 185.301 144.471 184.901 143.053C184.882 142.983 184.819 142.807 184.73 142.805C184.465 142.798 184.417 143.385 184.289 143.672C184.111 144.074 183.83 144.237 183.656 144.194C183.476 144.146 183.695 143.881 183.803 143.421Z" fill="#FAB9AF"/>
<path d="M175.139 109.065C175.139 110.861 175.466 112.638 176.078 114.325C177.277 117.626 179.077 123.866 178.006 129.364C176.468 137.282 174.487 140.482 177.053 142.328C179.619 144.172 184.54 141.096 184.682 140.068C184.824 139.042 183.724 126.435 182.479 120.972C181.232 115.51 177.741 107.657 177.741 107.657L176.263 107.816C175.954 107.848 175.669 107.994 175.461 108.225C175.253 108.455 175.139 108.755 175.139 109.065Z" fill="#FFBE55"/>
<path d="M179.751 108.191C179.751 108.191 188.303 119.687 188.286 126.122C188.276 130 186.851 137.894 186.514 139.714C186.471 139.945 186.283 140.123 186.047 140.147C185.898 140.164 185.722 140.176 185.563 140.176C185.402 140.176 185.19 140.152 184.995 140.126C184.839 140.103 184.696 140.024 184.595 139.903C184.493 139.782 184.439 139.628 184.444 139.471C184.494 137.061 184.648 127.552 184.008 125.647C183.274 123.464 176.148 113.059 176.008 110.762C175.866 108.468 177.64 106.381 179.751 108.191ZM171.051 108.495C171.051 108.495 169.349 112.173 169.941 117.46C170.536 122.746 171.911 138.845 167.101 141.276C165.577 142.047 162.098 138.638 162.098 137.371C162.098 136.105 163.258 131.873 164.359 128.024C165.459 124.174 168.109 108.897 168.109 108.897L171.051 108.495Z" fill="#FFBE55"/>
<path d="M172.421 97.0907C174.612 97.0907 175.43 98.6507 175.471 101.535C175.488 102.616 175.002 103.685 174.609 104.368C174.318 104.876 174.238 105.478 174.405 106.039L174.886 107.666C175.213 109.176 174.496 110.006 173.437 110.307C172.912 110.457 172.284 110.341 171.826 110.045C171.282 109.694 171.236 108.935 171.338 108.295L171.463 107.83C171.631 107.204 171.268 106.53 170.635 106.393C168.947 106.025 168.706 104.265 168.254 101.535C167.782 98.6893 170.23 97.0907 172.421 97.0907Z" fill="#FAB9AF"/>
<path d="M167.32 95.8244L168.576 96.2072C169.039 96.3468 169.53 96.3517 169.994 96.2168L172.503 95.4898C174.022 95.4898 176.533 96.3468 176.215 98.54L175.936 100.09C175.825 100.709 175.307 101.174 174.679 101.227C174.621 101.441 174.426 101.59 174.205 101.59C173.933 101.59 173.714 101.371 173.714 101.099C173.714 100.399 173.223 99.8039 172.541 99.6498C171.704 99.462 170.81 99.4163 169.874 99.6691C168.131 100.139 166.292 99.0576 166.118 97.2593C166.106 97.1461 166.102 97.0305 166.102 96.9126C166.099 96.1855 166.699 95.6535 167.32 95.8244Z" fill="#0B4870"/>
<path d="M174.265 101.588C174.265 102.257 174.513 102.799 175.158 102.799C175.803 102.799 176.215 101.879 176.215 101.21C176.215 100.541 175.801 100.377 175.158 100.377C174.513 100.377 174.265 100.921 174.265 101.588Z" fill="#FAB9AF"/>
<path d="M174.53 104.525C174.53 104.525 172.893 106.773 170.859 106.47C170.859 106.47 171.282 106.672 171.383 107C171.383 107 173.316 106.858 174.53 104.525Z" fill="#E8948B"/>
<path d="M178.87 73.1708C178.87 74.7332 177.84 76.0019 176.566 76.0019H149.25C147.979 76.0019 146.946 74.7356 146.946 73.1708C146.946 71.6083 147.976 70.3396 149.25 70.3396H176.566C177.84 70.342 178.87 71.6083 178.87 73.1708ZM81.0887 88.3278C81.0887 89.8902 79.8224 91.1589 78.2576 91.1589H44.6935C43.1311 91.1589 41.8624 89.8926 41.8624 88.3278C41.8624 86.7654 43.1287 85.4967 44.6935 85.4967H78.26C79.8224 85.4967 81.0887 86.763 81.0887 88.3278ZM94.8109 73.1611C94.8109 74.7235 93.7613 75.9922 92.4685 75.9922H64.6943C63.4015 75.9922 62.3519 74.7259 62.3519 73.1611C62.3519 71.5987 63.4015 70.33 64.6943 70.33H92.4685C93.7613 70.33 94.8109 71.5963 94.8109 73.1611ZM208.775 85.4293C208.775 86.9917 207.509 88.2604 205.944 88.2604H172.38C170.818 88.2604 169.549 86.9941 169.549 85.4293C169.549 83.8669 170.815 82.5982 172.38 82.5982H205.946C207.509 82.6006 208.775 83.8669 208.775 85.4293Z" fill="#F2F2F2"/>
<path d="M172.628 178.887C172.628 178.887 171.106 179.559 169.689 178.514C169.689 178.514 166.188 179.075 165.184 180.11C164.18 181.145 164.907 181.658 166.169 181.636C167.428 181.615 172.296 181.564 172.296 181.564C172.296 181.564 173.545 180.801 172.628 178.887ZM187.255 177.188C187.255 177.188 186.514 178.163 184.853 177.585C184.853 177.585 181.16 179.272 180.507 180.558C179.855 181.844 180.7 182.118 181.899 181.726C183.098 181.333 187.73 179.845 187.73 179.845C187.73 179.845 188.697 178.743 187.255 177.188Z" fill="#0B4870"/>
</svg>
